solid OpenSCAD_Model
  facet normal 0.737285 -0.675582 0
    outer loop
      vertex 4.94975 -4.94975 40
      vertex 5.36231 -4.49951 0
      vertex 5.36231 -4.49951 40
    endloop
  endfacet
  facet normal 0.737285 -0.675582 0
    outer loop
      vertex 5.36231 -4.49951 0
      vertex 4.94975 -4.94975 40
      vertex 4.94975 -4.94975 0
    endloop
  endfacet
  facet normal 0.991445 0.130528 0
    outer loop
      vertex 6.97336 0.610089 40
      vertex 6.89365 1.21554 0
      vertex 6.89365 1.21554 40
    endloop
  endfacet
  facet normal 0.991445 0.130528 0
    outer loop
      vertex 6.89365 1.21554 0
      vertex 6.97336 0.610089 40
      vertex 6.97336 0.610089 0
    endloop
  endfacet
  facet normal 0.999048 0.0436242 0
    outer loop
      vertex 7 0 40
      vertex 6.97336 0.610089 0
      vertex 6.97336 0.610089 40
    endloop
  endfacet
  facet normal 0.999048 0.0436242 0
    outer loop
      vertex 6.97336 0.610089 0
      vertex 7 0 40
      vertex 7 0 0
    endloop
  endfacet
  facet normal 0.976297 0.216436 0
    outer loop
      vertex 6.89365 1.21554 40
      vertex 6.76148 1.81173 0
      vertex 6.76148 1.81173 40
    endloop
  endfacet
  facet normal 0.976297 0.216436 0
    outer loop
      vertex 6.76148 1.81173 0
      vertex 6.89365 1.21554 40
      vertex 6.89365 1.21554 0
    endloop
  endfacet
  facet normal 0.537311 -0.843384 0
    outer loop
      vertex 3.5 -6.06218 0
      vertex 4.01503 -5.73406 40
      vertex 3.5 -6.06218 40
    endloop
  endfacet
  facet normal 0.537311 -0.843384 0
    outer loop
      vertex 4.01503 -5.73406 40
      vertex 3.5 -6.06218 0
      vertex 4.01503 -5.73406 0
    endloop
  endfacet
  facet normal 0.461741 -0.887015 0
    outer loop
      vertex 2.95833 -6.34415 0
      vertex 3.5 -6.06218 40
      vertex 2.95833 -6.34415 40
    endloop
  endfacet
  facet normal 0.461741 -0.887015 0
    outer loop
      vertex 3.5 -6.06218 40
      vertex 2.95833 -6.34415 0
      vertex 3.5 -6.06218 0
    endloop
  endfacet
  facet normal 0.216436 -0.976297 0
    outer loop
      vertex 1.21554 -6.89365 0
      vertex 1.81173 -6.76148 40
      vertex 1.21554 -6.89365 40
    endloop
  endfacet
  facet normal 0.216436 -0.976297 0
    outer loop
      vertex 1.81173 -6.76148 40
      vertex 1.21554 -6.89365 0
      vertex 1.81173 -6.76148 0
    endloop
  endfacet
  facet normal -0.130528 0.991445 0
    outer loop
      vertex -0.610089 6.97336 0
      vertex -1.21554 6.89365 40
      vertex -0.610089 6.97336 40
    endloop
  endfacet
  facet normal -0.130528 0.991445 0
    outer loop
      vertex -1.21554 6.89365 40
      vertex -0.610089 6.97336 0
      vertex -1.21554 6.89365 0
    endloop
  endfacet
  facet normal -0.843384 0.537311 0
    outer loop
      vertex -6.06218 3.5 0
      vertex -5.73406 4.01503 40
      vertex -5.73406 4.01503 0
    endloop
  endfacet
  facet normal -0.843384 0.537311 0
    outer loop
      vertex -5.73406 4.01503 40
      vertex -6.06218 3.5 0
      vertex -6.06218 3.5 40
    endloop
  endfacet
  facet normal -0.38269 0.923877 0
    outer loop
      vertex -2.39414 6.57785 0
      vertex -2.95833 6.34415 40
      vertex -2.39414 6.57785 40
    endloop
  endfacet
  facet normal -0.38269 0.923877 0
    outer loop
      vertex -2.95833 6.34415 40
      vertex -2.39414 6.57785 0
      vertex -2.95833 6.34415 0
    endloop
  endfacet
  facet normal 0.608757 0.793357 -0
    outer loop
      vertex 4.49951 5.36231 0
      vertex 4.01503 5.73406 40
      vertex 4.49951 5.36231 40
    endloop
  endfacet
  facet normal 0.608757 0.793357 0
    outer loop
      vertex 4.01503 5.73406 40
      vertex 4.49951 5.36231 0
      vertex 4.01503 5.73406 0
    endloop
  endfacet
  facet normal 0.216436 0.976297 -0
    outer loop
      vertex 1.81173 6.76148 0
      vertex 1.21554 6.89365 40
      vertex 1.81173 6.76148 40
    endloop
  endfacet
  facet normal 0.216436 0.976297 0
    outer loop
      vertex 1.21554 6.89365 40
      vertex 1.81173 6.76148 0
      vertex 1.21554 6.89365 0
    endloop
  endfacet
  facet normal -0.923877 -0.38269 0
    outer loop
      vertex -6.34415 -2.95833 0
      vertex -6.57785 -2.39414 40
      vertex -6.57785 -2.39414 0
    endloop
  endfacet
  facet normal -0.923877 -0.38269 0
    outer loop
      vertex -6.57785 -2.39414 40
      vertex -6.34415 -2.95833 0
      vertex -6.34415 -2.95833 40
    endloop
  endfacet
  facet normal -0.737285 -0.675582 0
    outer loop
      vertex -4.94975 -4.94975 0
      vertex -5.36231 -4.49951 40
      vertex -5.36231 -4.49951 0
    endloop
  endfacet
  facet normal -0.737285 -0.675582 0
    outer loop
      vertex -5.36231 -4.49951 40
      vertex -4.94975 -4.94975 0
      vertex -4.94975 -4.94975 40
    endloop
  endfacet
  facet normal 0.461741 0.887015 -0
    outer loop
      vertex 3.5 6.06218 0
      vertex 2.95833 6.34415 40
      vertex 3.5 6.06218 40
    endloop
  endfacet
  facet normal 0.461741 0.887015 0
    outer loop
      vertex 2.95833 6.34415 40
      vertex 3.5 6.06218 0
      vertex 2.95833 6.34415 0
    endloop
  endfacet
  facet normal 0.537311 0.843384 -0
    outer loop
      vertex 4.01503 5.73406 0
      vertex 3.5 6.06218 40
      vertex 4.01503 5.73406 40
    endloop
  endfacet
  facet normal 0.537311 0.843384 0
    outer loop
      vertex 3.5 6.06218 40
      vertex 4.01503 5.73406 0
      vertex 3.5 6.06218 0
    endloop
  endfacet
  facet normal -0.537311 0.843384 0
    outer loop
      vertex -3.5 6.06218 0
      vertex -4.01503 5.73406 40
      vertex -3.5 6.06218 40
    endloop
  endfacet
  facet normal -0.537311 0.843384 0
    outer loop
      vertex -4.01503 5.73406 40
      vertex -3.5 6.06218 0
      vertex -4.01503 5.73406 0
    endloop
  endfacet
  facet normal 0.953718 -0.300701 0
    outer loop
      vertex 6.57785 -2.39414 40
      vertex 6.76148 -1.81173 0
      vertex 6.76148 -1.81173 40
    endloop
  endfacet
  facet normal 0.953718 -0.300701 0
    outer loop
      vertex 6.76148 -1.81173 0
      vertex 6.57785 -2.39414 40
      vertex 6.57785 -2.39414 0
    endloop
  endfacet
  facet normal -0.675582 0.737285 0
    outer loop
      vertex -4.49951 5.36231 0
      vertex -4.94975 4.94975 40
      vertex -4.49951 5.36231 40
    endloop
  endfacet
  facet normal -0.675582 0.737285 0
    outer loop
      vertex -4.94975 4.94975 40
      vertex -4.49951 5.36231 0
      vertex -4.94975 4.94975 0
    endloop
  endfacet
  facet normal 0.300701 -0.953718 0
    outer loop
      vertex 1.81173 -6.76148 0
      vertex 2.39414 -6.57785 40
      vertex 1.81173 -6.76148 40
    endloop
  endfacet
  facet normal 0.300701 -0.953718 0
    outer loop
      vertex 2.39414 -6.57785 40
      vertex 1.81173 -6.76148 0
      vertex 2.39414 -6.57785 0
    endloop
  endfacet
  facet normal 0.130528 -0.991445 0
    outer loop
      vertex 0.610089 -6.97336 0
      vertex 1.21554 -6.89365 40
      vertex 0.610089 -6.97336 40
    endloop
  endfacet
  facet normal 0.130528 -0.991445 0
    outer loop
      vertex 1.21554 -6.89365 40
      vertex 0.610089 -6.97336 0
      vertex 1.21554 -6.89365 0
    endloop
  endfacet
  facet normal -0.675582 -0.737285 0
    outer loop
      vertex -4.94975 -4.94975 0
      vertex -4.49951 -5.36231 40
      vertex -4.94975 -4.94975 40
    endloop
  endfacet
  facet normal -0.675582 -0.737285 -0
    outer loop
      vertex -4.49951 -5.36231 40
      vertex -4.94975 -4.94975 0
      vertex -4.49951 -5.36231 0
    endloop
  endfacet
  facet normal 0.0436242 -0.999048 0
    outer loop
      vertex 0 -7 0
      vertex 0.610089 -6.97336 40
      vertex 0 -7 40
    endloop
  endfacet
  facet normal 0.0436242 -0.999048 0
    outer loop
      vertex 0.610089 -6.97336 40
      vertex 0 -7 0
      vertex 0.610089 -6.97336 0
    endloop
  endfacet
  facet normal -0.976297 0.216436 0
    outer loop
      vertex -6.89365 1.21554 0
      vertex -6.76148 1.81173 40
      vertex -6.76148 1.81173 0
    endloop
  endfacet
  facet normal -0.976297 0.216436 0
    outer loop
      vertex -6.76148 1.81173 40
      vertex -6.89365 1.21554 0
      vertex -6.89365 1.21554 40
    endloop
  endfacet
  facet normal -0.461741 0.887015 0
    outer loop
      vertex -2.95833 6.34415 0
      vertex -3.5 6.06218 40
      vertex -2.95833 6.34415 40
    endloop
  endfacet
  facet normal -0.461741 0.887015 0
    outer loop
      vertex -3.5 6.06218 40
      vertex -2.95833 6.34415 0
      vertex -3.5 6.06218 0
    endloop
  endfacet
  facet normal 0.843384 0.537311 0
    outer loop
      vertex 6.06218 3.5 40
      vertex 5.73406 4.01503 0
      vertex 5.73406 4.01503 40
    endloop
  endfacet
  facet normal 0.843384 0.537311 0
    outer loop
      vertex 5.73406 4.01503 0
      vertex 6.06218 3.5 40
      vertex 6.06218 3.5 0
    endloop
  endfacet
  facet normal 0.0436242 0.999048 -0
    outer loop
      vertex 0.610089 6.97336 0
      vertex 0 7 40
      vertex 0.610089 6.97336 40
    endloop
  endfacet
  facet normal 0.0436242 0.999048 0
    outer loop
      vertex 0 7 40
      vertex 0.610089 6.97336 0
      vertex 0 7 0
    endloop
  endfacet
  facet normal -0.216436 0.976297 0
    outer loop
      vertex -1.21554 6.89365 0
      vertex -1.81173 6.76148 40
      vertex -1.21554 6.89365 40
    endloop
  endfacet
  facet normal -0.216436 0.976297 0
    outer loop
      vertex -1.81173 6.76148 40
      vertex -1.21554 6.89365 0
      vertex -1.81173 6.76148 0
    endloop
  endfacet
  facet normal 0.976297 -0.216436 0
    outer loop
      vertex 6.76148 -1.81173 40
      vertex 6.89365 -1.21554 0
      vertex 6.89365 -1.21554 40
    endloop
  endfacet
  facet normal 0.976297 -0.216436 0
    outer loop
      vertex 6.89365 -1.21554 0
      vertex 6.76148 -1.81173 40
      vertex 6.76148 -1.81173 0
    endloop
  endfacet
  facet normal 0.793357 -0.608757 0
    outer loop
      vertex 5.36231 -4.49951 40
      vertex 5.73406 -4.01503 0
      vertex 5.73406 -4.01503 40
    endloop
  endfacet
  facet normal 0.793357 -0.608757 0
    outer loop
      vertex 5.73406 -4.01503 0
      vertex 5.36231 -4.49951 40
      vertex 5.36231 -4.49951 0
    endloop
  endfacet
  facet normal 0.675582 0.737285 -0
    outer loop
      vertex 4.94975 4.94975 0
      vertex 4.49951 5.36231 40
      vertex 4.94975 4.94975 40
    endloop
  endfacet
  facet normal 0.675582 0.737285 0
    outer loop
      vertex 4.49951 5.36231 40
      vertex 4.94975 4.94975 0
      vertex 4.49951 5.36231 0
    endloop
  endfacet
  facet normal 0.887015 -0.461741 0
    outer loop
      vertex 6.06218 -3.5 40
      vertex 6.34415 -2.95833 0
      vertex 6.34415 -2.95833 40
    endloop
  endfacet
  facet normal 0.887015 -0.461741 0
    outer loop
      vertex 6.34415 -2.95833 0
      vertex 6.06218 -3.5 40
      vertex 6.06218 -3.5 0
    endloop
  endfacet
  facet normal -0.537311 -0.843384 0
    outer loop
      vertex -4.01503 -5.73406 0
      vertex -3.5 -6.06218 40
      vertex -4.01503 -5.73406 40
    endloop
  endfacet
  facet normal -0.537311 -0.843384 -0
    outer loop
      vertex -3.5 -6.06218 40
      vertex -4.01503 -5.73406 0
      vertex -3.5 -6.06218 0
    endloop
  endfacet
  facet normal -0.737285 0.675582 0
    outer loop
      vertex -5.36231 4.49951 0
      vertex -4.94975 4.94975 40
      vertex -4.94975 4.94975 0
    endloop
  endfacet
  facet normal -0.737285 0.675582 0
    outer loop
      vertex -4.94975 4.94975 40
      vertex -5.36231 4.49951 0
      vertex -5.36231 4.49951 40
    endloop
  endfacet
  facet normal 0.953718 0.300701 0
    outer loop
      vertex 6.76148 1.81173 40
      vertex 6.57785 2.39414 0
      vertex 6.57785 2.39414 40
    endloop
  endfacet
  facet normal 0.953718 0.300701 0
    outer loop
      vertex 6.57785 2.39414 0
      vertex 6.76148 1.81173 40
      vertex 6.76148 1.81173 0
    endloop
  endfacet
  facet normal 0.843384 -0.537311 0
    outer loop
      vertex 5.73406 -4.01503 40
      vertex 6.06218 -3.5 0
      vertex 6.06218 -3.5 40
    endloop
  endfacet
  facet normal 0.843384 -0.537311 0
    outer loop
      vertex 6.06218 -3.5 0
      vertex 5.73406 -4.01503 40
      vertex 5.73406 -4.01503 0
    endloop
  endfacet
  facet normal -0.991445 -0.130528 0
    outer loop
      vertex -6.89365 -1.21554 0
      vertex -6.97336 -0.610089 40
      vertex -6.97336 -0.610089 0
    endloop
  endfacet
  facet normal -0.991445 -0.130528 0
    outer loop
      vertex -6.97336 -0.610089 40
      vertex -6.89365 -1.21554 0
      vertex -6.89365 -1.21554 40
    endloop
  endfacet
  facet normal -0.953718 0.300701 0
    outer loop
      vertex -6.76148 1.81173 0
      vertex -6.57785 2.39414 40
      vertex -6.57785 2.39414 0
    endloop
  endfacet
  facet normal -0.953718 0.300701 0
    outer loop
      vertex -6.57785 2.39414 40
      vertex -6.76148 1.81173 0
      vertex -6.76148 1.81173 40
    endloop
  endfacet
  facet normal -0.608757 0.793357 0
    outer loop
      vertex -4.01503 5.73406 0
      vertex -4.49951 5.36231 40
      vertex -4.01503 5.73406 40
    endloop
  endfacet
  facet normal -0.608757 0.793357 0
    outer loop
      vertex -4.49951 5.36231 40
      vertex -4.01503 5.73406 0
      vertex -4.49951 5.36231 0
    endloop
  endfacet
  facet normal 0.991445 -0.130528 0
    outer loop
      vertex 6.89365 -1.21554 40
      vertex 6.97336 -0.610089 0
      vertex 6.97336 -0.610089 40
    endloop
  endfacet
  facet normal 0.991445 -0.130528 0
    outer loop
      vertex 6.97336 -0.610089 0
      vertex 6.89365 -1.21554 40
      vertex 6.89365 -1.21554 0
    endloop
  endfacet
  facet normal 0.999048 -0.0436242 0
    outer loop
      vertex 6.97336 -0.610089 40
      vertex 7 0 0
      vertex 7 0 40
    endloop
  endfacet
  facet normal 0.999048 -0.0436242 0
    outer loop
      vertex 7 0 0
      vertex 6.97336 -0.610089 40
      vertex 6.97336 -0.610089 0
    endloop
  endfacet
  facet normal -0.991445 0.130528 0
    outer loop
      vertex -6.97336 0.610089 0
      vertex -6.89365 1.21554 40
      vertex -6.89365 1.21554 0
    endloop
  endfacet
  facet normal -0.991445 0.130528 0
    outer loop
      vertex -6.89365 1.21554 40
      vertex -6.97336 0.610089 0
      vertex -6.97336 0.610089 40
    endloop
  endfacet
  facet normal 0.923877 0.38269 0
    outer loop
      vertex 6.57785 2.39414 40
      vertex 6.34415 2.95833 0
      vertex 6.34415 2.95833 40
    endloop
  endfacet
  facet normal 0.923877 0.38269 0
    outer loop
      vertex 6.34415 2.95833 0
      vertex 6.57785 2.39414 40
      vertex 6.57785 2.39414 0
    endloop
  endfacet
  facet normal -0.976297 -0.216436 0
    outer loop
      vertex -6.76148 -1.81173 0
      vertex -6.89365 -1.21554 40
      vertex -6.89365 -1.21554 0
    endloop
  endfacet
  facet normal -0.976297 -0.216436 0
    outer loop
      vertex -6.89365 -1.21554 40
      vertex -6.76148 -1.81173 0
      vertex -6.76148 -1.81173 40
    endloop
  endfacet
  facet normal 0.887015 0.461741 0
    outer loop
      vertex 6.34415 2.95833 40
      vertex 6.06218 3.5 0
      vertex 6.06218 3.5 40
    endloop
  endfacet
  facet normal 0.887015 0.461741 0
    outer loop
      vertex 6.06218 3.5 0
      vertex 6.34415 2.95833 40
      vertex 6.34415 2.95833 0
    endloop
  endfacet
  facet normal -0.793357 0.608757 0
    outer loop
      vertex -5.73406 4.01503 0
      vertex -5.36231 4.49951 40
      vertex -5.36231 4.49951 0
    endloop
  endfacet
  facet normal -0.793357 0.608757 0
    outer loop
      vertex -5.36231 4.49951 40
      vertex -5.73406 4.01503 0
      vertex -5.73406 4.01503 40
    endloop
  endfacet
  facet normal -0.887015 -0.461741 0
    outer loop
      vertex -6.06218 -3.5 0
      vertex -6.34415 -2.95833 40
      vertex -6.34415 -2.95833 0
    endloop
  endfacet
  facet normal -0.887015 -0.461741 0
    outer loop
      vertex -6.34415 -2.95833 40
      vertex -6.06218 -3.5 0
      vertex -6.06218 -3.5 40
    endloop
  endfacet
  facet normal 0 0 -1
    outer loop
      vertex 2.6 0 0
      vertex 7 0 0
      vertex 6.97336 -0.610089 0
    endloop
  endfacet
  facet normal 0 0 -1
    outer loop
      vertex 2.59011 -0.226604 0
      vertex 6.97336 -0.610089 0
      vertex 6.89365 -1.21554 0
    endloop
  endfacet
  facet normal 0 0 -1
    outer loop
      vertex 7 0 0
      vertex 2.6 0 0
      vertex 6.97336 0.610089 0
    endloop
  endfacet
  facet normal 0 0 -1
    outer loop
      vertex 2.5605 -0.451485 0
      vertex 6.89365 -1.21554 0
      vertex 6.76148 -1.81173 0
    endloop
  endfacet
  facet normal 0 0 -1
    outer loop
      vertex 2.59011 0.226604 0
      vertex 6.97336 0.610089 0
      vertex 2.6 0 0
    endloop
  endfacet
  facet normal 0 0 -1
    outer loop
      vertex 2.51141 -0.672929 0
      vertex 6.76148 -1.81173 0
      vertex 6.57785 -2.39414 0
    endloop
  endfacet
  facet normal -0 0 -1
    outer loop
      vertex 6.97336 0.610089 0
      vertex 2.59011 0.226604 0
      vertex 6.89365 1.21554 0
    endloop
  endfacet
  facet normal 0 0 -1
    outer loop
      vertex 2.4432 -0.889252 0
      vertex 6.57785 -2.39414 0
      vertex 6.34415 -2.95833 0
    endloop
  endfacet
  facet normal 0 0 -1
    outer loop
      vertex 2.5605 0.451485 0
      vertex 6.89365 1.21554 0
      vertex 2.59011 0.226604 0
    endloop
  endfacet
  facet normal 0 0 -1
    outer loop
      vertex 2.3564 -1.09881 0
      vertex 6.34415 -2.95833 0
      vertex 6.06218 -3.5 0
    endloop
  endfacet
  facet normal -0 0 -1
    outer loop
      vertex 6.89365 1.21554 0
      vertex 2.5605 0.451485 0
      vertex 6.76148 1.81173 0
    endloop
  endfacet
  facet normal 0 0 -1
    outer loop
      vertex 2.25167 -1.3 0
      vertex 6.06218 -3.5 0
      vertex 5.73406 -4.01503 0
    endloop
  endfacet
  facet normal 0 0 -1
    outer loop
      vertex 2.51141 0.672929 0
      vertex 6.76148 1.81173 0
      vertex 2.5605 0.451485 0
    endloop
  endfacet
  facet normal 0 0 -1
    outer loop
      vertex 2.1298 -1.4913 0
      vertex 5.73406 -4.01503 0
      vertex 5.36231 -4.49951 0
    endloop
  endfacet
  facet normal -0 0 -1
    outer loop
      vertex 6.76148 1.81173 0
      vertex 2.51141 0.672929 0
      vertex 6.57785 2.39414 0
    endloop
  endfacet
  facet normal 0 0 -1
    outer loop
      vertex 1.99172 -1.67125 0
      vertex 5.36231 -4.49951 0
      vertex 4.94975 -4.94975 0
    endloop
  endfacet
  facet normal 0 0 -1
    outer loop
      vertex 2.4432 0.889252 0
      vertex 6.57785 2.39414 0
      vertex 2.51141 0.672929 0
    endloop
  endfacet
  facet normal 0 0 -1
    outer loop
      vertex 1.83848 -1.83848 0
      vertex 4.94975 -4.94975 0
      vertex 4.49951 -5.36231 0
    endloop
  endfacet
  facet normal -0 0 -1
    outer loop
      vertex 6.57785 2.39414 0
      vertex 2.4432 0.889252 0
      vertex 6.34415 2.95833 0
    endloop
  endfacet
  facet normal 0 0 -1
    outer loop
      vertex 1.67125 -1.99172 0
      vertex 4.49951 -5.36231 0
      vertex 4.01503 -5.73406 0
    endloop
  endfacet
  facet normal 0 0 -1
    outer loop
      vertex 2.3564 1.09881 0
      vertex 6.34415 2.95833 0
      vertex 2.4432 0.889252 0
    endloop
  endfacet
  facet normal 0 0 -1
    outer loop
      vertex 1.4913 -2.1298 0
      vertex 4.01503 -5.73406 0
      vertex 3.5 -6.06218 0
    endloop
  endfacet
  facet normal -0 0 -1
    outer loop
      vertex 6.34415 2.95833 0
      vertex 2.3564 1.09881 0
      vertex 6.06218 3.5 0
    endloop
  endfacet
  facet normal 0 0 -1
    outer loop
      vertex 1.3 -2.25167 0
      vertex 3.5 -6.06218 0
      vertex 2.95833 -6.34415 0
    endloop
  endfacet
  facet normal 0 0 -1
    outer loop
      vertex 2.25167 1.3 0
      vertex 6.06218 3.5 0
      vertex 2.3564 1.09881 0
    endloop
  endfacet
  facet normal -0 0 -1
    outer loop
      vertex 6.06218 3.5 0
      vertex 2.25167 1.3 0
      vertex 5.73406 4.01503 0
    endloop
  endfacet
  facet normal 0 0 -1
    outer loop
      vertex 6.97336 -0.610089 0
      vertex 2.59011 -0.226604 0
      vertex 2.6 0 0
    endloop
  endfacet
  facet normal 0 0 -1
    outer loop
      vertex 6.89365 -1.21554 0
      vertex 2.5605 -0.451485 0
      vertex 2.59011 -0.226604 0
    endloop
  endfacet
  facet normal 0 0 -1
    outer loop
      vertex 6.76148 -1.81173 0
      vertex 2.51141 -0.672929 0
      vertex 2.5605 -0.451485 0
    endloop
  endfacet
  facet normal 0 0 -1
    outer loop
      vertex 6.57785 -2.39414 0
      vertex 2.4432 -0.889252 0
      vertex 2.51141 -0.672929 0
    endloop
  endfacet
  facet normal 0 0 -1
    outer loop
      vertex 1.09881 -2.3564 0
      vertex 2.95833 -6.34415 0
      vertex 2.39414 -6.57785 0
    endloop
  endfacet
  facet normal 0 0 -1
    outer loop
      vertex 6.34415 -2.95833 0
      vertex 2.3564 -1.09881 0
      vertex 2.4432 -0.889252 0
    endloop
  endfacet
  facet normal 0 0 -1
    outer loop
      vertex 6.06218 -3.5 0
      vertex 2.25167 -1.3 0
      vertex 2.3564 -1.09881 0
    endloop
  endfacet
  facet normal 0 0 -1
    outer loop
      vertex 5.73406 -4.01503 0
      vertex 2.1298 -1.4913 0
      vertex 2.25167 -1.3 0
    endloop
  endfacet
  facet normal 0 0 -1
    outer loop
      vertex 5.36231 -4.49951 0
      vertex 1.99172 -1.67125 0
      vertex 2.1298 -1.4913 0
    endloop
  endfacet
  facet normal 0 0 -1
    outer loop
      vertex 4.94975 -4.94975 0
      vertex 1.83848 -1.83848 0
      vertex 1.99172 -1.67125 0
    endloop
  endfacet
  facet normal 0 0 -1
    outer loop
      vertex 0.889252 -2.4432 0
      vertex 2.39414 -6.57785 0
      vertex 1.81173 -6.76148 0
    endloop
  endfacet
  facet normal 0 0 -1
    outer loop
      vertex 4.49951 -5.36231 0
      vertex 1.67125 -1.99172 0
      vertex 1.83848 -1.83848 0
    endloop
  endfacet
  facet normal 0 0 -1
    outer loop
      vertex 4.01503 -5.73406 0
      vertex 1.4913 -2.1298 0
      vertex 1.67125 -1.99172 0
    endloop
  endfacet
  facet normal 0 0 -1
    outer loop
      vertex 3.5 -6.06218 0
      vertex 1.3 -2.25167 0
      vertex 1.4913 -2.1298 0
    endloop
  endfacet
  facet normal 0 0 -1
    outer loop
      vertex 0.672929 -2.51141 0
      vertex 1.81173 -6.76148 0
      vertex 1.21554 -6.89365 0
    endloop
  endfacet
  facet normal 0 0 -1
    outer loop
      vertex 2.95833 -6.34415 0
      vertex 1.09881 -2.3564 0
      vertex 1.3 -2.25167 0
    endloop
  endfacet
  facet normal 0 0 -1
    outer loop
      vertex 2.39414 -6.57785 0
      vertex 0.889252 -2.4432 0
      vertex 1.09881 -2.3564 0
    endloop
  endfacet
  facet normal 0 0 -1
    outer loop
      vertex 1.81173 -6.76148 0
      vertex 0.672929 -2.51141 0
      vertex 0.889252 -2.4432 0
    endloop
  endfacet
  facet normal 0 0 -1
    outer loop
      vertex 0.451485 -2.5605 0
      vertex 1.21554 -6.89365 0
      vertex 0.610089 -6.97336 0
    endloop
  endfacet
  facet normal 0 0 -1
    outer loop
      vertex 1.21554 -6.89365 0
      vertex 0.451485 -2.5605 0
      vertex 0.672929 -2.51141 0
    endloop
  endfacet
  facet normal 0 0 -1
    outer loop
      vertex 0.610089 -6.97336 0
      vertex 0.226604 -2.59011 0
      vertex 0.451485 -2.5605 0
    endloop
  endfacet
  facet normal 0 0 -1
    outer loop
      vertex 0 -7 0
      vertex 0.226604 -2.59011 0
      vertex 0.610089 -6.97336 0
    endloop
  endfacet
  facet normal 0 0 -1
    outer loop
      vertex 0 -7 0
      vertex 0 -2.6 0
      vertex 0.226604 -2.59011 0
    endloop
  endfacet
  facet normal 0 0 -1
    outer loop
      vertex 0 -7 0
      vertex -0.226604 -2.59011 0
      vertex 0 -2.6 0
    endloop
  endfacet
  facet normal 0 0 -1
    outer loop
      vertex -0.610089 -6.97336 0
      vertex -0.226604 -2.59011 0
      vertex 0 -7 0
    endloop
  endfacet
  facet normal -0 0 -1
    outer loop
      vertex -0.226604 -2.59011 0
      vertex -0.610089 -6.97336 0
      vertex -0.451485 -2.5605 0
    endloop
  endfacet
  facet normal 0 0 -1
    outer loop
      vertex -1.21554 -6.89365 0
      vertex -0.451485 -2.5605 0
      vertex -0.610089 -6.97336 0
    endloop
  endfacet
  facet normal -0 0 -1
    outer loop
      vertex -0.451485 -2.5605 0
      vertex -1.21554 -6.89365 0
      vertex -0.672929 -2.51141 0
    endloop
  endfacet
  facet normal 0 0 -1
    outer loop
      vertex -1.81173 -6.76148 0
      vertex -0.672929 -2.51141 0
      vertex -1.21554 -6.89365 0
    endloop
  endfacet
  facet normal -0 0 -1
    outer loop
      vertex -0.672929 -2.51141 0
      vertex -1.81173 -6.76148 0
      vertex -0.889252 -2.4432 0
    endloop
  endfacet
  facet normal 0 0 -1
    outer loop
      vertex -2.39414 -6.57785 0
      vertex -0.889252 -2.4432 0
      vertex -1.81173 -6.76148 0
    endloop
  endfacet
  facet normal -0 0 -1
    outer loop
      vertex -0.889252 -2.4432 0
      vertex -2.39414 -6.57785 0
      vertex -1.09881 -2.3564 0
    endloop
  endfacet
  facet normal 0 0 -1
    outer loop
      vertex -2.95833 -6.34415 0
      vertex -1.09881 -2.3564 0
      vertex -2.39414 -6.57785 0
    endloop
  endfacet
  facet normal -0 0 -1
    outer loop
      vertex -1.09881 -2.3564 0
      vertex -2.95833 -6.34415 0
      vertex -1.3 -2.25167 0
    endloop
  endfacet
  facet normal 0 0 -1
    outer loop
      vertex -3.5 -6.06218 0
      vertex -1.3 -2.25167 0
      vertex -2.95833 -6.34415 0
    endloop
  endfacet
  facet normal -0 0 -1
    outer loop
      vertex -1.3 -2.25167 0
      vertex -3.5 -6.06218 0
      vertex -1.4913 -2.1298 0
    endloop
  endfacet
  facet normal 0 0 -1
    outer loop
      vertex -4.01503 -5.73406 0
      vertex -1.4913 -2.1298 0
      vertex -3.5 -6.06218 0
    endloop
  endfacet
  facet normal -0 0 -1
    outer loop
      vertex -1.4913 -2.1298 0
      vertex -4.01503 -5.73406 0
      vertex -1.67125 -1.99172 0
    endloop
  endfacet
  facet normal 0 0 -1
    outer loop
      vertex -4.49951 -5.36231 0
      vertex -1.67125 -1.99172 0
      vertex -4.01503 -5.73406 0
    endloop
  endfacet
  facet normal -0 0 -1
    outer loop
      vertex -1.67125 -1.99172 0
      vertex -4.49951 -5.36231 0
      vertex -1.83848 -1.83848 0
    endloop
  endfacet
  facet normal 0 0 -1
    outer loop
      vertex -4.94975 -4.94975 0
      vertex -1.83848 -1.83848 0
      vertex -4.49951 -5.36231 0
    endloop
  endfacet
  facet normal -0 0 -1
    outer loop
      vertex -1.83848 -1.83848 0
      vertex -4.94975 -4.94975 0
      vertex -1.99172 -1.67125 0
    endloop
  endfacet
  facet normal 0 0 -1
    outer loop
      vertex -5.36231 -4.49951 0
      vertex -1.99172 -1.67125 0
      vertex -4.94975 -4.94975 0
    endloop
  endfacet
  facet normal -0 0 -1
    outer loop
      vertex -1.99172 -1.67125 0
      vertex -5.36231 -4.49951 0
      vertex -2.1298 -1.4913 0
    endloop
  endfacet
  facet normal 0 0 -1
    outer loop
      vertex -5.73406 -4.01503 0
      vertex -2.1298 -1.4913 0
      vertex -5.36231 -4.49951 0
    endloop
  endfacet
  facet normal -0 0 -1
    outer loop
      vertex -2.1298 -1.4913 0
      vertex -5.73406 -4.01503 0
      vertex -2.25167 -1.3 0
    endloop
  endfacet
  facet normal 0 0 -1
    outer loop
      vertex 2.1298 1.4913 0
      vertex 5.73406 4.01503 0
      vertex 2.25167 1.3 0
    endloop
  endfacet
  facet normal -0 0 -1
    outer loop
      vertex 5.73406 4.01503 0
      vertex 2.1298 1.4913 0
      vertex 5.36231 4.49951 0
    endloop
  endfacet
  facet normal 0 0 -1
    outer loop
      vertex 1.99172 1.67125 0
      vertex 5.36231 4.49951 0
      vertex 2.1298 1.4913 0
    endloop
  endfacet
  facet normal -0 0 -1
    outer loop
      vertex 5.36231 4.49951 0
      vertex 1.99172 1.67125 0
      vertex 4.94975 4.94975 0
    endloop
  endfacet
  facet normal 0 0 -1
    outer loop
      vertex 1.83848 1.83848 0
      vertex 4.94975 4.94975 0
      vertex 1.99172 1.67125 0
    endloop
  endfacet
  facet normal -0 0 -1
    outer loop
      vertex 4.94975 4.94975 0
      vertex 1.83848 1.83848 0
      vertex 4.49951 5.36231 0
    endloop
  endfacet
  facet normal 0 0 -1
    outer loop
      vertex 1.67125 1.99172 0
      vertex 4.49951 5.36231 0
      vertex 1.83848 1.83848 0
    endloop
  endfacet
  facet normal -0 0 -1
    outer loop
      vertex 4.49951 5.36231 0
      vertex 1.67125 1.99172 0
      vertex 4.01503 5.73406 0
    endloop
  endfacet
  facet normal 0 0 -1
    outer loop
      vertex 1.4913 2.1298 0
      vertex 4.01503 5.73406 0
      vertex 1.67125 1.99172 0
    endloop
  endfacet
  facet normal -0 0 -1
    outer loop
      vertex 4.01503 5.73406 0
      vertex 1.4913 2.1298 0
      vertex 3.5 6.06218 0
    endloop
  endfacet
  facet normal 0 0 -1
    outer loop
      vertex 1.3 2.25167 0
      vertex 3.5 6.06218 0
      vertex 1.4913 2.1298 0
    endloop
  endfacet
  facet normal -0 0 -1
    outer loop
      vertex 3.5 6.06218 0
      vertex 1.3 2.25167 0
      vertex 2.95833 6.34415 0
    endloop
  endfacet
  facet normal 0 0 -1
    outer loop
      vertex 1.09881 2.3564 0
      vertex 2.95833 6.34415 0
      vertex 1.3 2.25167 0
    endloop
  endfacet
  facet normal -0 0 -1
    outer loop
      vertex 2.95833 6.34415 0
      vertex 1.09881 2.3564 0
      vertex 2.39414 6.57785 0
    endloop
  endfacet
  facet normal 0 0 -1
    outer loop
      vertex 0.889252 2.4432 0
      vertex 2.39414 6.57785 0
      vertex 1.09881 2.3564 0
    endloop
  endfacet
  facet normal -0 0 -1
    outer loop
      vertex 2.39414 6.57785 0
      vertex 0.889252 2.4432 0
      vertex 1.81173 6.76148 0
    endloop
  endfacet
  facet normal 0 0 -1
    outer loop
      vertex 0.672929 2.51141 0
      vertex 1.81173 6.76148 0
      vertex 0.889252 2.4432 0
    endloop
  endfacet
  facet normal -0 0 -1
    outer loop
      vertex 1.81173 6.76148 0
      vertex 0.672929 2.51141 0
      vertex 1.21554 6.89365 0
    endloop
  endfacet
  facet normal 0 0 -1
    outer loop
      vertex 0.451485 2.5605 0
      vertex 1.21554 6.89365 0
      vertex 0.672929 2.51141 0
    endloop
  endfacet
  facet normal -0 0 -1
    outer loop
      vertex 1.21554 6.89365 0
      vertex 0.451485 2.5605 0
      vertex 0.610089 6.97336 0
    endloop
  endfacet
  facet normal 0 0 -1
    outer loop
      vertex 0.226604 2.59011 0
      vertex 0.610089 6.97336 0
      vertex 0.451485 2.5605 0
    endloop
  endfacet
  facet normal 0 0 -1
    outer loop
      vertex 0 2.6 0
      vertex 0.610089 6.97336 0
      vertex 0.226604 2.59011 0
    endloop
  endfacet
  facet normal 0 0 -1
    outer loop
      vertex 0 2.6 0
      vertex 0 7 0
      vertex 0.610089 6.97336 0
    endloop
  endfacet
  facet normal 0 0 -1
    outer loop
      vertex -0.226604 2.59011 0
      vertex 0 7 0
      vertex 0 2.6 0
    endloop
  endfacet
  facet normal 0 0 -1
    outer loop
      vertex -0.610089 6.97336 0
      vertex -0.226604 2.59011 0
      vertex -0.451485 2.5605 0
    endloop
  endfacet
  facet normal 0 0 -1
    outer loop
      vertex -0.226604 2.59011 0
      vertex -0.610089 6.97336 0
      vertex 0 7 0
    endloop
  endfacet
  facet normal 0 0 -1
    outer loop
      vertex -1.21554 6.89365 0
      vertex -0.451485 2.5605 0
      vertex -0.672929 2.51141 0
    endloop
  endfacet
  facet normal 0 0 -1
    outer loop
      vertex -1.81173 6.76148 0
      vertex -0.672929 2.51141 0
      vertex -0.889252 2.4432 0
    endloop
  endfacet
  facet normal 0 0 -1
    outer loop
      vertex -2.39414 6.57785 0
      vertex -0.889252 2.4432 0
      vertex -1.09881 2.3564 0
    endloop
  endfacet
  facet normal 0 0 -1
    outer loop
      vertex -0.451485 2.5605 0
      vertex -1.21554 6.89365 0
      vertex -0.610089 6.97336 0
    endloop
  endfacet
  facet normal 0 0 -1
    outer loop
      vertex -2.95833 6.34415 0
      vertex -1.09881 2.3564 0
      vertex -1.3 2.25167 0
    endloop
  endfacet
  facet normal 0 0 -1
    outer loop
      vertex -3.5 6.06218 0
      vertex -1.3 2.25167 0
      vertex -1.4913 2.1298 0
    endloop
  endfacet
  facet normal 0 0 -1
    outer loop
      vertex -4.01503 5.73406 0
      vertex -1.4913 2.1298 0
      vertex -1.67125 1.99172 0
    endloop
  endfacet
  facet normal 0 0 -1
    outer loop
      vertex -0.672929 2.51141 0
      vertex -1.81173 6.76148 0
      vertex -1.21554 6.89365 0
    endloop
  endfacet
  facet normal 0 0 -1
    outer loop
      vertex -4.49951 5.36231 0
      vertex -1.67125 1.99172 0
      vertex -1.83848 1.83848 0
    endloop
  endfacet
  facet normal 0 0 -1
    outer loop
      vertex -4.94975 4.94975 0
      vertex -1.83848 1.83848 0
      vertex -1.99172 1.67125 0
    endloop
  endfacet
  facet normal 0 0 -1
    outer loop
      vertex -5.36231 4.49951 0
      vertex -1.99172 1.67125 0
      vertex -2.1298 1.4913 0
    endloop
  endfacet
  facet normal 0 0 -1
    outer loop
      vertex -5.73406 4.01503 0
      vertex -2.1298 1.4913 0
      vertex -2.25167 1.3 0
    endloop
  endfacet
  facet normal 0 0 -1
    outer loop
      vertex -6.06218 3.5 0
      vertex -2.25167 1.3 0
      vertex -2.3564 1.09881 0
    endloop
  endfacet
  facet normal 0 0 -1
    outer loop
      vertex -0.889252 2.4432 0
      vertex -2.39414 6.57785 0
      vertex -1.81173 6.76148 0
    endloop
  endfacet
  facet normal 0 0 -1
    outer loop
      vertex -6.34415 2.95833 0
      vertex -2.3564 1.09881 0
      vertex -2.4432 0.889252 0
    endloop
  endfacet
  facet normal 0 0 -1
    outer loop
      vertex -6.57785 2.39414 0
      vertex -2.4432 0.889252 0
      vertex -2.51141 0.672929 0
    endloop
  endfacet
  facet normal 0 0 -1
    outer loop
      vertex -6.76148 1.81173 0
      vertex -2.51141 0.672929 0
      vertex -2.5605 0.451485 0
    endloop
  endfacet
  facet normal 0 0 -1
    outer loop
      vertex -6.89365 1.21554 0
      vertex -2.5605 0.451485 0
      vertex -2.59011 0.226604 0
    endloop
  endfacet
  facet normal 0 0 -1
    outer loop
      vertex -6.97336 0.610089 0
      vertex -2.59011 0.226604 0
      vertex -2.6 0 0
    endloop
  endfacet
  facet normal 0 0 -1
    outer loop
      vertex -6.06218 -3.5 0
      vertex -2.25167 -1.3 0
      vertex -5.73406 -4.01503 0
    endloop
  endfacet
  facet normal 0 0 -1
    outer loop
      vertex -1.09881 2.3564 0
      vertex -2.95833 6.34415 0
      vertex -2.39414 6.57785 0
    endloop
  endfacet
  facet normal -0 0 -1
    outer loop
      vertex -2.25167 -1.3 0
      vertex -6.06218 -3.5 0
      vertex -2.3564 -1.09881 0
    endloop
  endfacet
  facet normal 0 0 -1
    outer loop
      vertex -1.3 2.25167 0
      vertex -3.5 6.06218 0
      vertex -2.95833 6.34415 0
    endloop
  endfacet
  facet normal 0 0 -1
    outer loop
      vertex -6.34415 -2.95833 0
      vertex -2.3564 -1.09881 0
      vertex -6.06218 -3.5 0
    endloop
  endfacet
  facet normal 0 0 -1
    outer loop
      vertex -1.4913 2.1298 0
      vertex -4.01503 5.73406 0
      vertex -3.5 6.06218 0
    endloop
  endfacet
  facet normal -0 0 -1
    outer loop
      vertex -2.3564 -1.09881 0
      vertex -6.34415 -2.95833 0
      vertex -2.4432 -0.889252 0
    endloop
  endfacet
  facet normal 0 0 -1
    outer loop
      vertex -1.67125 1.99172 0
      vertex -4.49951 5.36231 0
      vertex -4.01503 5.73406 0
    endloop
  endfacet
  facet normal 0 0 -1
    outer loop
      vertex -6.57785 -2.39414 0
      vertex -2.4432 -0.889252 0
      vertex -6.34415 -2.95833 0
    endloop
  endfacet
  facet normal 0 0 -1
    outer loop
      vertex -1.83848 1.83848 0
      vertex -4.94975 4.94975 0
      vertex -4.49951 5.36231 0
    endloop
  endfacet
  facet normal -0 0 -1
    outer loop
      vertex -2.4432 -0.889252 0
      vertex -6.57785 -2.39414 0
      vertex -2.51141 -0.672929 0
    endloop
  endfacet
  facet normal 0 0 -1
    outer loop
      vertex -1.99172 1.67125 0
      vertex -5.36231 4.49951 0
      vertex -4.94975 4.94975 0
    endloop
  endfacet
  facet normal 0 0 -1
    outer loop
      vertex -6.76148 -1.81173 0
      vertex -2.51141 -0.672929 0
      vertex -6.57785 -2.39414 0
    endloop
  endfacet
  facet normal 0 0 -1
    outer loop
      vertex -2.1298 1.4913 0
      vertex -5.73406 4.01503 0
      vertex -5.36231 4.49951 0
    endloop
  endfacet
  facet normal -0 0 -1
    outer loop
      vertex -2.51141 -0.672929 0
      vertex -6.76148 -1.81173 0
      vertex -2.5605 -0.451485 0
    endloop
  endfacet
  facet normal 0 0 -1
    outer loop
      vertex -2.25167 1.3 0
      vertex -6.06218 3.5 0
      vertex -5.73406 4.01503 0
    endloop
  endfacet
  facet normal 0 0 -1
    outer loop
      vertex -6.89365 -1.21554 0
      vertex -2.5605 -0.451485 0
      vertex -6.76148 -1.81173 0
    endloop
  endfacet
  facet normal 0 0 -1
    outer loop
      vertex -2.3564 1.09881 0
      vertex -6.34415 2.95833 0
      vertex -6.06218 3.5 0
    endloop
  endfacet
  facet normal -0 0 -1
    outer loop
      vertex -2.5605 -0.451485 0
      vertex -6.89365 -1.21554 0
      vertex -2.59011 -0.226604 0
    endloop
  endfacet
  facet normal 0 0 -1
    outer loop
      vertex -2.4432 0.889252 0
      vertex -6.57785 2.39414 0
      vertex -6.34415 2.95833 0
    endloop
  endfacet
  facet normal 0 0 -1
    outer loop
      vertex -6.97336 -0.610089 0
      vertex -2.59011 -0.226604 0
      vertex -6.89365 -1.21554 0
    endloop
  endfacet
  facet normal 0 0 -1
    outer loop
      vertex -2.51141 0.672929 0
      vertex -6.76148 1.81173 0
      vertex -6.57785 2.39414 0
    endloop
  endfacet
  facet normal -0 0 -1
    outer loop
      vertex -2.59011 -0.226604 0
      vertex -6.97336 -0.610089 0
      vertex -2.6 0 0
    endloop
  endfacet
  facet normal 0 0 -1
    outer loop
      vertex -2.5605 0.451485 0
      vertex -6.89365 1.21554 0
      vertex -6.76148 1.81173 0
    endloop
  endfacet
  facet normal 0 0 -1
    outer loop
      vertex -7 0 0
      vertex -2.6 0 0
      vertex -6.97336 -0.610089 0
    endloop
  endfacet
  facet normal 0 0 -1
    outer loop
      vertex -2.59011 0.226604 0
      vertex -6.97336 0.610089 0
      vertex -6.89365 1.21554 0
    endloop
  endfacet
  facet normal 0 0 -1
    outer loop
      vertex -2.6 0 0
      vertex -7 0 0
      vertex -6.97336 0.610089 0
    endloop
  endfacet
  facet normal -0.300701 0.953718 0
    outer loop
      vertex -1.81173 6.76148 0
      vertex -2.39414 6.57785 40
      vertex -1.81173 6.76148 40
    endloop
  endfacet
  facet normal -0.300701 0.953718 0
    outer loop
      vertex -2.39414 6.57785 40
      vertex -1.81173 6.76148 0
      vertex -2.39414 6.57785 0
    endloop
  endfacet
  facet normal 0.737285 0.675582 0
    outer loop
      vertex 5.36231 4.49951 40
      vertex 4.94975 4.94975 0
      vertex 4.94975 4.94975 40
    endloop
  endfacet
  facet normal 0.737285 0.675582 0
    outer loop
      vertex 4.94975 4.94975 0
      vertex 5.36231 4.49951 40
      vertex 5.36231 4.49951 0
    endloop
  endfacet
  facet normal -0.953718 -0.300701 0
    outer loop
      vertex -6.57785 -2.39414 0
      vertex -6.76148 -1.81173 40
      vertex -6.76148 -1.81173 0
    endloop
  endfacet
  facet normal -0.953718 -0.300701 0
    outer loop
      vertex -6.76148 -1.81173 40
      vertex -6.57785 -2.39414 0
      vertex -6.57785 -2.39414 40
    endloop
  endfacet
  facet normal -0.793357 -0.608757 0
    outer loop
      vertex -5.36231 -4.49951 0
      vertex -5.73406 -4.01503 40
      vertex -5.73406 -4.01503 0
    endloop
  endfacet
  facet normal -0.793357 -0.608757 0
    outer loop
      vertex -5.73406 -4.01503 40
      vertex -5.36231 -4.49951 0
      vertex -5.36231 -4.49951 40
    endloop
  endfacet
  facet normal -0.0436242 -0.999048 0
    outer loop
      vertex -0.610089 -6.97336 0
      vertex 0 -7 40
      vertex -0.610089 -6.97336 40
    endloop
  endfacet
  facet normal -0.0436242 -0.999048 -0
    outer loop
      vertex 0 -7 40
      vertex -0.610089 -6.97336 0
      vertex 0 -7 0
    endloop
  endfacet
  facet normal -0.461741 -0.887015 0
    outer loop
      vertex -3.5 -6.06218 0
      vertex -2.95833 -6.34415 40
      vertex -3.5 -6.06218 40
    endloop
  endfacet
  facet normal -0.461741 -0.887015 -0
    outer loop
      vertex -2.95833 -6.34415 40
      vertex -3.5 -6.06218 0
      vertex -2.95833 -6.34415 0
    endloop
  endfacet
  facet normal -0.608757 -0.793357 0
    outer loop
      vertex -4.49951 -5.36231 0
      vertex -4.01503 -5.73406 40
      vertex -4.49951 -5.36231 40
    endloop
  endfacet
  facet normal -0.608757 -0.793357 -0
    outer loop
      vertex -4.01503 -5.73406 40
      vertex -4.49951 -5.36231 0
      vertex -4.01503 -5.73406 0
    endloop
  endfacet
  facet normal -0.130528 -0.991445 0
    outer loop
      vertex -1.21554 -6.89365 0
      vertex -0.610089 -6.97336 40
      vertex -1.21554 -6.89365 40
    endloop
  endfacet
  facet normal -0.130528 -0.991445 -0
    outer loop
      vertex -0.610089 -6.97336 40
      vertex -1.21554 -6.89365 0
      vertex -0.610089 -6.97336 0
    endloop
  endfacet
  facet normal 0.38269 -0.923877 0
    outer loop
      vertex 2.39414 -6.57785 0
      vertex 2.95833 -6.34415 40
      vertex 2.39414 -6.57785 40
    endloop
  endfacet
  facet normal 0.38269 -0.923877 0
    outer loop
      vertex 2.95833 -6.34415 40
      vertex 2.39414 -6.57785 0
      vertex 2.95833 -6.34415 0
    endloop
  endfacet
  facet normal 0.923877 -0.38269 0
    outer loop
      vertex 6.34415 -2.95833 40
      vertex 6.57785 -2.39414 0
      vertex 6.57785 -2.39414 40
    endloop
  endfacet
  facet normal 0.923877 -0.38269 0
    outer loop
      vertex 6.57785 -2.39414 0
      vertex 6.34415 -2.95833 40
      vertex 6.34415 -2.95833 0
    endloop
  endfacet
  facet normal -0.923877 0.38269 0
    outer loop
      vertex -6.57785 2.39414 0
      vertex -6.34415 2.95833 40
      vertex -6.34415 2.95833 0
    endloop
  endfacet
  facet normal -0.923877 0.38269 0
    outer loop
      vertex -6.34415 2.95833 40
      vertex -6.57785 2.39414 0
      vertex -6.57785 2.39414 40
    endloop
  endfacet
  facet normal 0.300701 0.953718 -0
    outer loop
      vertex 2.39414 6.57785 0
      vertex 1.81173 6.76148 40
      vertex 2.39414 6.57785 40
    endloop
  endfacet
  facet normal 0.300701 0.953718 0
    outer loop
      vertex 1.81173 6.76148 40
      vertex 2.39414 6.57785 0
      vertex 1.81173 6.76148 0
    endloop
  endfacet
  facet normal -0.0436242 0.999048 0
    outer loop
      vertex 0 7 0
      vertex -0.610089 6.97336 40
      vertex 0 7 40
    endloop
  endfacet
  facet normal -0.0436242 0.999048 0
    outer loop
      vertex -0.610089 6.97336 40
      vertex 0 7 0
      vertex -0.610089 6.97336 0
    endloop
  endfacet
  facet normal 0.793357 0.608757 0
    outer loop
      vertex 5.73406 4.01503 40
      vertex 5.36231 4.49951 0
      vertex 5.36231 4.49951 40
    endloop
  endfacet
  facet normal 0.793357 0.608757 0
    outer loop
      vertex 5.36231 4.49951 0
      vertex 5.73406 4.01503 40
      vertex 5.73406 4.01503 0
    endloop
  endfacet
  facet normal 0 0 1
    outer loop
      vertex 6.97336 0.610089 40
      vertex 6.97336 -0.610089 40
      vertex 7 0 40
    endloop
  endfacet
  facet normal 0 0 1
    outer loop
      vertex 6.89365 1.21554 40
      vertex 6.97336 -0.610089 40
      vertex 6.97336 0.610089 40
    endloop
  endfacet
  facet normal 0 0 1
    outer loop
      vertex 6.89365 1.21554 40
      vertex 6.89365 -1.21554 40
      vertex 6.97336 -0.610089 40
    endloop
  endfacet
  facet normal 0 0 1
    outer loop
      vertex 6.76148 1.81173 40
      vertex 6.89365 -1.21554 40
      vertex 6.89365 1.21554 40
    endloop
  endfacet
  facet normal 0 0 1
    outer loop
      vertex 6.76148 1.81173 40
      vertex 6.76148 -1.81173 40
      vertex 6.89365 -1.21554 40
    endloop
  endfacet
  facet normal 0 0 1
    outer loop
      vertex 6.57785 2.39414 40
      vertex 6.76148 -1.81173 40
      vertex 6.76148 1.81173 40
    endloop
  endfacet
  facet normal 0 0 1
    outer loop
      vertex 6.57785 2.39414 40
      vertex 6.57785 -2.39414 40
      vertex 6.76148 -1.81173 40
    endloop
  endfacet
  facet normal 0 0 1
    outer loop
      vertex 6.34415 2.95833 40
      vertex 6.57785 -2.39414 40
      vertex 6.57785 2.39414 40
    endloop
  endfacet
  facet normal 0 0 1
    outer loop
      vertex 6.34415 2.95833 40
      vertex 6.34415 -2.95833 40
      vertex 6.57785 -2.39414 40
    endloop
  endfacet
  facet normal 0 0 1
    outer loop
      vertex 6.06218 3.5 40
      vertex 6.34415 -2.95833 40
      vertex 6.34415 2.95833 40
    endloop
  endfacet
  facet normal 0 0 1
    outer loop
      vertex 6.06218 3.5 40
      vertex 6.06218 -3.5 40
      vertex 6.34415 -2.95833 40
    endloop
  endfacet
  facet normal 0 0 1
    outer loop
      vertex 5.73406 4.01503 40
      vertex 6.06218 -3.5 40
      vertex 6.06218 3.5 40
    endloop
  endfacet
  facet normal 0 0 1
    outer loop
      vertex 5.73406 4.01503 40
      vertex 5.73406 -4.01503 40
      vertex 6.06218 -3.5 40
    endloop
  endfacet
  facet normal 0 0 1
    outer loop
      vertex 5.36231 4.49951 40
      vertex 5.73406 -4.01503 40
      vertex 5.73406 4.01503 40
    endloop
  endfacet
  facet normal 0 0 1
    outer loop
      vertex 5.36231 4.49951 40
      vertex 5.36231 -4.49951 40
      vertex 5.73406 -4.01503 40
    endloop
  endfacet
  facet normal 0 0 1
    outer loop
      vertex 4.94975 4.94975 40
      vertex 5.36231 -4.49951 40
      vertex 5.36231 4.49951 40
    endloop
  endfacet
  facet normal 0 0 1
    outer loop
      vertex 4.94975 4.94975 40
      vertex 4.94975 -4.94975 40
      vertex 5.36231 -4.49951 40
    endloop
  endfacet
  facet normal 0 0 1
    outer loop
      vertex 4.49951 5.36231 40
      vertex 4.94975 -4.94975 40
      vertex 4.94975 4.94975 40
    endloop
  endfacet
  facet normal 0 0 1
    outer loop
      vertex 4.49951 5.36231 40
      vertex 4.49951 -5.36231 40
      vertex 4.94975 -4.94975 40
    endloop
  endfacet
  facet normal 0 0 1
    outer loop
      vertex 4.01503 5.73406 40
      vertex 4.49951 -5.36231 40
      vertex 4.49951 5.36231 40
    endloop
  endfacet
  facet normal 0 0 1
    outer loop
      vertex 4.01503 5.73406 40
      vertex 4.01503 -5.73406 40
      vertex 4.49951 -5.36231 40
    endloop
  endfacet
  facet normal 0 0 1
    outer loop
      vertex 3.5 6.06218 40
      vertex 4.01503 -5.73406 40
      vertex 4.01503 5.73406 40
    endloop
  endfacet
  facet normal 0 0 1
    outer loop
      vertex 3.5 6.06218 40
      vertex 3.5 -6.06218 40
      vertex 4.01503 -5.73406 40
    endloop
  endfacet
  facet normal 0 0 1
    outer loop
      vertex 2.95833 6.34415 40
      vertex 3.5 -6.06218 40
      vertex 3.5 6.06218 40
    endloop
  endfacet
  facet normal 0 0 1
    outer loop
      vertex 2.95833 6.34415 40
      vertex 2.95833 -6.34415 40
      vertex 3.5 -6.06218 40
    endloop
  endfacet
  facet normal 0 0 1
    outer loop
      vertex 2.39414 6.57785 40
      vertex 2.95833 -6.34415 40
      vertex 2.95833 6.34415 40
    endloop
  endfacet
  facet normal 0 0 1
    outer loop
      vertex 2.39414 6.57785 40
      vertex 2.39414 -6.57785 40
      vertex 2.95833 -6.34415 40
    endloop
  endfacet
  facet normal 0 0 1
    outer loop
      vertex 1.81173 6.76148 40
      vertex 2.39414 -6.57785 40
      vertex 2.39414 6.57785 40
    endloop
  endfacet
  facet normal 0 0 1
    outer loop
      vertex 1.81173 6.76148 40
      vertex 1.81173 -6.76148 40
      vertex 2.39414 -6.57785 40
    endloop
  endfacet
  facet normal 0 0 1
    outer loop
      vertex 1.21554 6.89365 40
      vertex 1.81173 -6.76148 40
      vertex 1.81173 6.76148 40
    endloop
  endfacet
  facet normal 0 0 1
    outer loop
      vertex 1.21554 6.89365 40
      vertex 1.21554 -6.89365 40
      vertex 1.81173 -6.76148 40
    endloop
  endfacet
  facet normal 0 0 1
    outer loop
      vertex 0.610089 6.97336 40
      vertex 1.21554 -6.89365 40
      vertex 1.21554 6.89365 40
    endloop
  endfacet
  facet normal 0 0 1
    outer loop
      vertex 0.610089 6.97336 40
      vertex 0.610089 -6.97336 40
      vertex 1.21554 -6.89365 40
    endloop
  endfacet
  facet normal 0 0 1
    outer loop
      vertex 0 7 40
      vertex 0.610089 -6.97336 40
      vertex 0.610089 6.97336 40
    endloop
  endfacet
  facet normal 0 0 1
    outer loop
      vertex 0 7 40
      vertex 0 -7 40
      vertex 0.610089 -6.97336 40
    endloop
  endfacet
  facet normal -0 0 1
    outer loop
      vertex -0.610089 6.97336 40
      vertex 0 -7 40
      vertex 0 7 40
    endloop
  endfacet
  facet normal 0 0 1
    outer loop
      vertex -0.610089 6.97336 40
      vertex -0.610089 -6.97336 40
      vertex 0 -7 40
    endloop
  endfacet
  facet normal -0 0 1
    outer loop
      vertex -1.21554 6.89365 40
      vertex -0.610089 -6.97336 40
      vertex -0.610089 6.97336 40
    endloop
  endfacet
  facet normal 0 0 1
    outer loop
      vertex -1.21554 6.89365 40
      vertex -1.21554 -6.89365 40
      vertex -0.610089 -6.97336 40
    endloop
  endfacet
  facet normal -0 0 1
    outer loop
      vertex -1.81173 6.76148 40
      vertex -1.21554 -6.89365 40
      vertex -1.21554 6.89365 40
    endloop
  endfacet
  facet normal 0 0 1
    outer loop
      vertex -1.81173 6.76148 40
      vertex -1.81173 -6.76148 40
      vertex -1.21554 -6.89365 40
    endloop
  endfacet
  facet normal -0 0 1
    outer loop
      vertex -2.39414 6.57785 40
      vertex -1.81173 -6.76148 40
      vertex -1.81173 6.76148 40
    endloop
  endfacet
  facet normal 0 0 1
    outer loop
      vertex -2.39414 6.57785 40
      vertex -2.39414 -6.57785 40
      vertex -1.81173 -6.76148 40
    endloop
  endfacet
  facet normal -0 0 1
    outer loop
      vertex -2.95833 6.34415 40
      vertex -2.39414 -6.57785 40
      vertex -2.39414 6.57785 40
    endloop
  endfacet
  facet normal 0 0 1
    outer loop
      vertex -2.95833 6.34415 40
      vertex -2.95833 -6.34415 40
      vertex -2.39414 -6.57785 40
    endloop
  endfacet
  facet normal -0 0 1
    outer loop
      vertex -3.5 6.06218 40
      vertex -2.95833 -6.34415 40
      vertex -2.95833 6.34415 40
    endloop
  endfacet
  facet normal 0 0 1
    outer loop
      vertex -3.5 6.06218 40
      vertex -3.5 -6.06218 40
      vertex -2.95833 -6.34415 40
    endloop
  endfacet
  facet normal -0 0 1
    outer loop
      vertex -4.01503 5.73406 40
      vertex -3.5 -6.06218 40
      vertex -3.5 6.06218 40
    endloop
  endfacet
  facet normal 0 0 1
    outer loop
      vertex -4.01503 5.73406 40
      vertex -4.01503 -5.73406 40
      vertex -3.5 -6.06218 40
    endloop
  endfacet
  facet normal -0 0 1
    outer loop
      vertex -4.49951 5.36231 40
      vertex -4.01503 -5.73406 40
      vertex -4.01503 5.73406 40
    endloop
  endfacet
  facet normal 0 0 1
    outer loop
      vertex -4.49951 5.36231 40
      vertex -4.49951 -5.36231 40
      vertex -4.01503 -5.73406 40
    endloop
  endfacet
  facet normal -0 0 1
    outer loop
      vertex -4.94975 4.94975 40
      vertex -4.49951 -5.36231 40
      vertex -4.49951 5.36231 40
    endloop
  endfacet
  facet normal 0 0 1
    outer loop
      vertex -4.94975 4.94975 40
      vertex -4.94975 -4.94975 40
      vertex -4.49951 -5.36231 40
    endloop
  endfacet
  facet normal -0 0 1
    outer loop
      vertex -5.36231 4.49951 40
      vertex -4.94975 -4.94975 40
      vertex -4.94975 4.94975 40
    endloop
  endfacet
  facet normal 0 0 1
    outer loop
      vertex -5.36231 4.49951 40
      vertex -5.36231 -4.49951 40
      vertex -4.94975 -4.94975 40
    endloop
  endfacet
  facet normal -0 0 1
    outer loop
      vertex -5.73406 4.01503 40
      vertex -5.36231 -4.49951 40
      vertex -5.36231 4.49951 40
    endloop
  endfacet
  facet normal 0 0 1
    outer loop
      vertex -5.73406 4.01503 40
      vertex -5.73406 -4.01503 40
      vertex -5.36231 -4.49951 40
    endloop
  endfacet
  facet normal -0 0 1
    outer loop
      vertex -6.06218 3.5 40
      vertex -5.73406 -4.01503 40
      vertex -5.73406 4.01503 40
    endloop
  endfacet
  facet normal 0 0 1
    outer loop
      vertex -6.06218 3.5 40
      vertex -6.06218 -3.5 40
      vertex -5.73406 -4.01503 40
    endloop
  endfacet
  facet normal -0 0 1
    outer loop
      vertex -6.34415 2.95833 40
      vertex -6.06218 -3.5 40
      vertex -6.06218 3.5 40
    endloop
  endfacet
  facet normal 0 0 1
    outer loop
      vertex -6.34415 2.95833 40
      vertex -6.34415 -2.95833 40
      vertex -6.06218 -3.5 40
    endloop
  endfacet
  facet normal -0 0 1
    outer loop
      vertex -6.57785 2.39414 40
      vertex -6.34415 -2.95833 40
      vertex -6.34415 2.95833 40
    endloop
  endfacet
  facet normal 0 0 1
    outer loop
      vertex -6.57785 2.39414 40
      vertex -6.57785 -2.39414 40
      vertex -6.34415 -2.95833 40
    endloop
  endfacet
  facet normal -0 0 1
    outer loop
      vertex -6.76148 1.81173 40
      vertex -6.57785 -2.39414 40
      vertex -6.57785 2.39414 40
    endloop
  endfacet
  facet normal 0 0 1
    outer loop
      vertex -6.76148 1.81173 40
      vertex -6.76148 -1.81173 40
      vertex -6.57785 -2.39414 40
    endloop
  endfacet
  facet normal -0 0 1
    outer loop
      vertex -6.89365 1.21554 40
      vertex -6.76148 -1.81173 40
      vertex -6.76148 1.81173 40
    endloop
  endfacet
  facet normal 0 0 1
    outer loop
      vertex -6.89365 1.21554 40
      vertex -6.89365 -1.21554 40
      vertex -6.76148 -1.81173 40
    endloop
  endfacet
  facet normal -0 0 1
    outer loop
      vertex -6.97336 0.610089 40
      vertex -6.89365 -1.21554 40
      vertex -6.89365 1.21554 40
    endloop
  endfacet
  facet normal 0 0 1
    outer loop
      vertex -6.97336 0.610089 40
      vertex -6.97336 -0.610089 40
      vertex -6.89365 -1.21554 40
    endloop
  endfacet
  facet normal 0 -0 1
    outer loop
      vertex -6.97336 -0.610089 40
      vertex -6.97336 0.610089 40
      vertex -7 0 40
    endloop
  endfacet
  facet normal -0.843384 -0.537311 0
    outer loop
      vertex -5.73406 -4.01503 0
      vertex -6.06218 -3.5 40
      vertex -6.06218 -3.5 0
    endloop
  endfacet
  facet normal -0.843384 -0.537311 0
    outer loop
      vertex -6.06218 -3.5 40
      vertex -5.73406 -4.01503 0
      vertex -5.73406 -4.01503 40
    endloop
  endfacet
  facet normal -0.999048 -0.0436242 0
    outer loop
      vertex -6.97336 -0.610089 0
      vertex -7 0 40
      vertex -7 0 0
    endloop
  endfacet
  facet normal -0.999048 -0.0436242 0
    outer loop
      vertex -7 0 40
      vertex -6.97336 -0.610089 0
      vertex -6.97336 -0.610089 40
    endloop
  endfacet
  facet normal -0.999048 0.0436242 0
    outer loop
      vertex -7 0 0
      vertex -6.97336 0.610089 40
      vertex -6.97336 0.610089 0
    endloop
  endfacet
  facet normal -0.999048 0.0436242 0
    outer loop
      vertex -6.97336 0.610089 40
      vertex -7 0 0
      vertex -7 0 40
    endloop
  endfacet
  facet normal -0.38269 -0.923877 0
    outer loop
      vertex -2.95833 -6.34415 0
      vertex -2.39414 -6.57785 40
      vertex -2.95833 -6.34415 40
    endloop
  endfacet
  facet normal -0.38269 -0.923877 -0
    outer loop
      vertex -2.39414 -6.57785 40
      vertex -2.95833 -6.34415 0
      vertex -2.39414 -6.57785 0
    endloop
  endfacet
  facet normal -0.300701 -0.953718 0
    outer loop
      vertex -2.39414 -6.57785 0
      vertex -1.81173 -6.76148 40
      vertex -2.39414 -6.57785 40
    endloop
  endfacet
  facet normal -0.300701 -0.953718 -0
    outer loop
      vertex -1.81173 -6.76148 40
      vertex -2.39414 -6.57785 0
      vertex -1.81173 -6.76148 0
    endloop
  endfacet
  facet normal 0.38269 0.923877 -0
    outer loop
      vertex 2.95833 6.34415 0
      vertex 2.39414 6.57785 40
      vertex 2.95833 6.34415 40
    endloop
  endfacet
  facet normal 0.38269 0.923877 0
    outer loop
      vertex 2.39414 6.57785 40
      vertex 2.95833 6.34415 0
      vertex 2.39414 6.57785 0
    endloop
  endfacet
  facet normal -0.216436 -0.976297 0
    outer loop
      vertex -1.81173 -6.76148 0
      vertex -1.21554 -6.89365 40
      vertex -1.81173 -6.76148 40
    endloop
  endfacet
  facet normal -0.216436 -0.976297 -0
    outer loop
      vertex -1.21554 -6.89365 40
      vertex -1.81173 -6.76148 0
      vertex -1.21554 -6.89365 0
    endloop
  endfacet
  facet normal 0.675582 -0.737285 0
    outer loop
      vertex 4.49951 -5.36231 0
      vertex 4.94975 -4.94975 40
      vertex 4.49951 -5.36231 40
    endloop
  endfacet
  facet normal 0.675582 -0.737285 0
    outer loop
      vertex 4.94975 -4.94975 40
      vertex 4.49951 -5.36231 0
      vertex 4.94975 -4.94975 0
    endloop
  endfacet
  facet normal 0.608757 -0.793357 0
    outer loop
      vertex 4.01503 -5.73406 0
      vertex 4.49951 -5.36231 40
      vertex 4.01503 -5.73406 40
    endloop
  endfacet
  facet normal 0.608757 -0.793357 0
    outer loop
      vertex 4.49951 -5.36231 40
      vertex 4.01503 -5.73406 0
      vertex 4.49951 -5.36231 0
    endloop
  endfacet
  facet normal 0.130528 0.991445 -0
    outer loop
      vertex 1.21554 6.89365 0
      vertex 0.610089 6.97336 40
      vertex 1.21554 6.89365 40
    endloop
  endfacet
  facet normal 0.130528 0.991445 0
    outer loop
      vertex 0.610089 6.97336 40
      vertex 1.21554 6.89365 0
      vertex 0.610089 6.97336 0
    endloop
  endfacet
  facet normal -0.887015 0.461741 0
    outer loop
      vertex -6.34415 2.95833 0
      vertex -6.06218 3.5 40
      vertex -6.06218 3.5 0
    endloop
  endfacet
  facet normal -0.887015 0.461741 0
    outer loop
      vertex -6.06218 3.5 40
      vertex -6.34415 2.95833 0
      vertex -6.34415 2.95833 40
    endloop
  endfacet
  facet normal -0.991443 -0.130543 0
    outer loop
      vertex 2.59011 0.226604 0
      vertex 2.5605 0.451485 11.9
      vertex 2.5605 0.451485 0
    endloop
  endfacet
  facet normal -0.991443 -0.130543 0
    outer loop
      vertex 2.5605 0.451485 11.9
      vertex 2.59011 0.226604 0
      vertex 2.59011 0.226604 11.9
    endloop
  endfacet
  facet normal -0.999049 -0.0436029 0
    outer loop
      vertex 2.6 0 0
      vertex 2.59011 0.226604 11.9
      vertex 2.59011 0.226604 0
    endloop
  endfacet
  facet normal -0.999049 -0.0436029 0
    outer loop
      vertex 2.59011 0.226604 11.9
      vertex 2.6 0 0
      vertex 2.6 0 11.9
    endloop
  endfacet
  facet normal -0.976299 -0.216427 0
    outer loop
      vertex 2.5605 0.451485 0
      vertex 2.51141 0.672929 11.9
      vertex 2.51141 0.672929 0
    endloop
  endfacet
  facet normal -0.976299 -0.216427 0
    outer loop
      vertex 2.51141 0.672929 11.9
      vertex 2.5605 0.451485 0
      vertex 2.5605 0.451485 11.9
    endloop
  endfacet
  facet normal -0.999049 0.0436029 0
    outer loop
      vertex 2.59011 -0.226604 0
      vertex 2.6 0 11.9
      vertex 2.6 0 0
    endloop
  endfacet
  facet normal -0.999049 0.0436029 0
    outer loop
      vertex 2.6 0 11.9
      vertex 2.59011 -0.226604 0
      vertex 2.59011 -0.226604 11.9
    endloop
  endfacet
  facet normal -0.130543 -0.991443 0
    outer loop
      vertex 0.226604 2.59011 0
      vertex 0.451485 2.5605 11.9
      vertex 0.226604 2.59011 11.9
    endloop
  endfacet
  facet normal -0.130543 -0.991443 -0
    outer loop
      vertex 0.451485 2.5605 11.9
      vertex 0.226604 2.59011 0
      vertex 0.451485 2.5605 0
    endloop
  endfacet
  facet normal 0.976299 -0.216427 0
    outer loop
      vertex -2.5605 0.451485 11.9
      vertex -2.51141 0.672929 0
      vertex -2.51141 0.672929 11.9
    endloop
  endfacet
  facet normal 0.976299 -0.216427 0
    outer loop
      vertex -2.51141 0.672929 0
      vertex -2.5605 0.451485 11.9
      vertex -2.5605 0.451485 0
    endloop
  endfacet
  facet normal -0.737273 -0.675595 0
    outer loop
      vertex 1.99172 1.67125 0
      vertex 1.83848 1.83848 11.9
      vertex 1.83848 1.83848 0
    endloop
  endfacet
  facet normal -0.737273 -0.675595 0
    outer loop
      vertex 1.83848 1.83848 11.9
      vertex 1.99172 1.67125 0
      vertex 1.99172 1.67125 11.9
    endloop
  endfacet
  facet normal 0.887016 0.461739 0
    outer loop
      vertex -2.25167 -1.3 11.9
      vertex -2.3564 -1.09881 0
      vertex -2.3564 -1.09881 11.9
    endloop
  endfacet
  facet normal 0.887016 0.461739 0
    outer loop
      vertex -2.3564 -1.09881 0
      vertex -2.25167 -1.3 11.9
      vertex -2.25167 -1.3 0
    endloop
  endfacet
  facet normal 0.737273 0.675595 0
    outer loop
      vertex -1.83848 -1.83848 11.9
      vertex -1.99172 -1.67125 0
      vertex -1.99172 -1.67125 11.9
    endloop
  endfacet
  facet normal 0.737273 0.675595 0
    outer loop
      vertex -1.99172 -1.67125 0
      vertex -1.83848 -1.83848 11.9
      vertex -1.83848 -1.83848 0
    endloop
  endfacet
  facet normal 0.216427 0.976299 -0
    outer loop
      vertex -0.451485 -2.5605 0
      vertex -0.672929 -2.51141 11.9
      vertex -0.451485 -2.5605 11.9
    endloop
  endfacet
  facet normal 0.216427 0.976299 0
    outer loop
      vertex -0.672929 -2.51141 11.9
      vertex -0.451485 -2.5605 0
      vertex -0.672929 -2.51141 0
    endloop
  endfacet
  facet normal -0.887016 0.461739 0
    outer loop
      vertex 2.25167 -1.3 0
      vertex 2.3564 -1.09881 11.9
      vertex 2.3564 -1.09881 0
    endloop
  endfacet
  facet normal -0.887016 0.461739 0
    outer loop
      vertex 2.3564 -1.09881 11.9
      vertex 2.25167 -1.3 0
      vertex 2.25167 -1.3 11.9
    endloop
  endfacet
  facet normal -0.991443 0.130543 0
    outer loop
      vertex 2.5605 -0.451485 0
      vertex 2.59011 -0.226604 11.9
      vertex 2.59011 -0.226604 0
    endloop
  endfacet
  facet normal -0.991443 0.130543 0
    outer loop
      vertex 2.59011 -0.226604 11.9
      vertex 2.5605 -0.451485 0
      vertex 2.5605 -0.451485 11.9
    endloop
  endfacet
  facet normal 0.737273 -0.675595 0
    outer loop
      vertex -1.99172 1.67125 11.9
      vertex -1.83848 1.83848 0
      vertex -1.83848 1.83848 11.9
    endloop
  endfacet
  facet normal 0.737273 -0.675595 0
    outer loop
      vertex -1.83848 1.83848 0
      vertex -1.99172 1.67125 11.9
      vertex -1.99172 1.67125 0
    endloop
  endfacet
  facet normal -0.216427 -0.976299 0
    outer loop
      vertex 0.451485 2.5605 0
      vertex 0.672929 2.51141 11.9
      vertex 0.451485 2.5605 11.9
    endloop
  endfacet
  facet normal -0.216427 -0.976299 -0
    outer loop
      vertex 0.672929 2.51141 11.9
      vertex 0.451485 2.5605 0
      vertex 0.672929 2.51141 0
    endloop
  endfacet
  facet normal -0.461739 0.887016 0
    outer loop
      vertex 1.3 -2.25167 0
      vertex 1.09881 -2.3564 11.9
      vertex 1.3 -2.25167 11.9
    endloop
  endfacet
  facet normal -0.461739 0.887016 0
    outer loop
      vertex 1.09881 -2.3564 11.9
      vertex 1.3 -2.25167 0
      vertex 1.09881 -2.3564 0
    endloop
  endfacet
  facet normal 0.675595 0.737273 -0
    outer loop
      vertex -1.67125 -1.99172 0
      vertex -1.83848 -1.83848 11.9
      vertex -1.67125 -1.99172 11.9
    endloop
  endfacet
  facet normal 0.675595 0.737273 0
    outer loop
      vertex -1.83848 -1.83848 11.9
      vertex -1.67125 -1.99172 0
      vertex -1.83848 -1.83848 0
    endloop
  endfacet
  facet normal 0.30072 -0.953712 0
    outer loop
      vertex -0.889252 2.4432 0
      vertex -0.672929 2.51141 11.9
      vertex -0.889252 2.4432 11.9
    endloop
  endfacet
  facet normal 0.30072 -0.953712 0
    outer loop
      vertex -0.672929 2.51141 11.9
      vertex -0.889252 2.4432 0
      vertex -0.672929 2.51141 0
    endloop
  endfacet
  facet normal -0.953712 -0.30072 0
    outer loop
      vertex 2.51141 0.672929 0
      vertex 2.4432 0.889252 11.9
      vertex 2.4432 0.889252 0
    endloop
  endfacet
  facet normal -0.953712 -0.30072 0
    outer loop
      vertex 2.4432 0.889252 11.9
      vertex 2.51141 0.672929 0
      vertex 2.51141 0.672929 11.9
    endloop
  endfacet
  facet normal 0.843395 -0.537295 0
    outer loop
      vertex -2.25167 1.3 11.9
      vertex -2.1298 1.4913 0
      vertex -2.1298 1.4913 11.9
    endloop
  endfacet
  facet normal 0.843395 -0.537295 0
    outer loop
      vertex -2.1298 1.4913 0
      vertex -2.25167 1.3 11.9
      vertex -2.25167 1.3 0
    endloop
  endfacet
  facet normal 0.537295 -0.843395 0
    outer loop
      vertex -1.4913 2.1298 0
      vertex -1.3 2.25167 11.9
      vertex -1.4913 2.1298 11.9
    endloop
  endfacet
  facet normal 0.537295 -0.843395 0
    outer loop
      vertex -1.3 2.25167 11.9
      vertex -1.4913 2.1298 0
      vertex -1.3 2.25167 0
    endloop
  endfacet
  facet normal -0.976299 0.216427 0
    outer loop
      vertex 2.51141 -0.672929 0
      vertex 2.5605 -0.451485 11.9
      vertex 2.5605 -0.451485 0
    endloop
  endfacet
  facet normal -0.976299 0.216427 0
    outer loop
      vertex 2.5605 -0.451485 11.9
      vertex 2.51141 -0.672929 0
      vertex 2.51141 -0.672929 11.9
    endloop
  endfacet
  facet normal -0.382677 0.923882 0
    outer loop
      vertex 1.09881 -2.3564 0
      vertex 0.889252 -2.4432 11.9
      vertex 1.09881 -2.3564 11.9
    endloop
  endfacet
  facet normal -0.382677 0.923882 0
    outer loop
      vertex 0.889252 -2.4432 11.9
      vertex 1.09881 -2.3564 0
      vertex 0.889252 -2.4432 0
    endloop
  endfacet
  facet normal -0.537295 0.843395 0
    outer loop
      vertex 1.4913 -2.1298 0
      vertex 1.3 -2.25167 11.9
      vertex 1.4913 -2.1298 11.9
    endloop
  endfacet
  facet normal -0.537295 0.843395 0
    outer loop
      vertex 1.3 -2.25167 11.9
      vertex 1.4913 -2.1298 0
      vertex 1.3 -2.25167 0
    endloop
  endfacet
  facet normal -0.923882 -0.382677 0
    outer loop
      vertex 2.4432 0.889252 0
      vertex 2.3564 1.09881 11.9
      vertex 2.3564 1.09881 0
    endloop
  endfacet
  facet normal -0.923882 -0.382677 0
    outer loop
      vertex 2.3564 1.09881 11.9
      vertex 2.4432 0.889252 0
      vertex 2.4432 0.889252 11.9
    endloop
  endfacet
  facet normal -0.382677 -0.923882 0
    outer loop
      vertex 0.889252 2.4432 0
      vertex 1.09881 2.3564 11.9
      vertex 0.889252 2.4432 11.9
    endloop
  endfacet
  facet normal -0.382677 -0.923882 -0
    outer loop
      vertex 1.09881 2.3564 11.9
      vertex 0.889252 2.4432 0
      vertex 1.09881 2.3564 0
    endloop
  endfacet
  facet normal -0.0436029 0.999049 0
    outer loop
      vertex 0.226604 -2.59011 0
      vertex 0 -2.6 11.9
      vertex 0.226604 -2.59011 11.9
    endloop
  endfacet
  facet normal -0.0436029 0.999049 0
    outer loop
      vertex 0 -2.6 11.9
      vertex 0.226604 -2.59011 0
      vertex 0 -2.6 0
    endloop
  endfacet
  facet normal 0.675595 -0.737273 0
    outer loop
      vertex -1.83848 1.83848 0
      vertex -1.67125 1.99172 11.9
      vertex -1.83848 1.83848 11.9
    endloop
  endfacet
  facet normal 0.675595 -0.737273 0
    outer loop
      vertex -1.67125 1.99172 11.9
      vertex -1.83848 1.83848 0
      vertex -1.67125 1.99172 0
    endloop
  endfacet
  facet normal -0.130543 0.991443 0
    outer loop
      vertex 0.451485 -2.5605 0
      vertex 0.226604 -2.59011 11.9
      vertex 0.451485 -2.5605 11.9
    endloop
  endfacet
  facet normal -0.130543 0.991443 0
    outer loop
      vertex 0.226604 -2.59011 11.9
      vertex 0.451485 -2.5605 0
      vertex 0.226604 -2.59011 0
    endloop
  endfacet
  facet normal 0.793354 -0.60876 0
    outer loop
      vertex -2.1298 1.4913 11.9
      vertex -1.99172 1.67125 0
      vertex -1.99172 1.67125 11.9
    endloop
  endfacet
  facet normal 0.793354 -0.60876 0
    outer loop
      vertex -1.99172 1.67125 0
      vertex -2.1298 1.4913 11.9
      vertex -2.1298 1.4913 0
    endloop
  endfacet
  facet normal 0.60876 -0.793354 0
    outer loop
      vertex -1.67125 1.99172 0
      vertex -1.4913 2.1298 11.9
      vertex -1.67125 1.99172 11.9
    endloop
  endfacet
  facet normal 0.60876 -0.793354 0
    outer loop
      vertex -1.4913 2.1298 11.9
      vertex -1.67125 1.99172 0
      vertex -1.4913 2.1298 0
    endloop
  endfacet
  facet normal 0.382677 -0.923882 0
    outer loop
      vertex -1.09881 2.3564 0
      vertex -0.889252 2.4432 11.9
      vertex -1.09881 2.3564 11.9
    endloop
  endfacet
  facet normal 0.382677 -0.923882 0
    outer loop
      vertex -0.889252 2.4432 11.9
      vertex -1.09881 2.3564 0
      vertex -0.889252 2.4432 0
    endloop
  endfacet
  facet normal -0.923882 0.382677 0
    outer loop
      vertex 2.3564 -1.09881 0
      vertex 2.4432 -0.889252 11.9
      vertex 2.4432 -0.889252 0
    endloop
  endfacet
  facet normal -0.923882 0.382677 0
    outer loop
      vertex 2.4432 -0.889252 11.9
      vertex 2.3564 -1.09881 0
      vertex 2.3564 -1.09881 11.9
    endloop
  endfacet
  facet normal -0.793354 0.60876 0
    outer loop
      vertex 1.99172 -1.67125 0
      vertex 2.1298 -1.4913 11.9
      vertex 2.1298 -1.4913 0
    endloop
  endfacet
  facet normal -0.793354 0.60876 0
    outer loop
      vertex 2.1298 -1.4913 11.9
      vertex 1.99172 -1.67125 0
      vertex 1.99172 -1.67125 11.9
    endloop
  endfacet
  facet normal -0.60876 -0.793354 0
    outer loop
      vertex 1.4913 2.1298 0
      vertex 1.67125 1.99172 11.9
      vertex 1.4913 2.1298 11.9
    endloop
  endfacet
  facet normal -0.60876 -0.793354 -0
    outer loop
      vertex 1.67125 1.99172 11.9
      vertex 1.4913 2.1298 0
      vertex 1.67125 1.99172 0
    endloop
  endfacet
  facet normal 0.461739 -0.887016 0
    outer loop
      vertex -1.3 2.25167 0
      vertex -1.09881 2.3564 11.9
      vertex -1.3 2.25167 11.9
    endloop
  endfacet
  facet normal 0.461739 -0.887016 0
    outer loop
      vertex -1.09881 2.3564 11.9
      vertex -1.3 2.25167 0
      vertex -1.09881 2.3564 0
    endloop
  endfacet
  facet normal -0.30072 0.953712 0
    outer loop
      vertex 0.889252 -2.4432 0
      vertex 0.672929 -2.51141 11.9
      vertex 0.889252 -2.4432 11.9
    endloop
  endfacet
  facet normal -0.30072 0.953712 0
    outer loop
      vertex 0.672929 -2.51141 11.9
      vertex 0.889252 -2.4432 0
      vertex 0.672929 -2.51141 0
    endloop
  endfacet
  facet normal -0.843395 -0.537295 0
    outer loop
      vertex 2.25167 1.3 0
      vertex 2.1298 1.4913 11.9
      vertex 2.1298 1.4913 0
    endloop
  endfacet
  facet normal -0.843395 -0.537295 0
    outer loop
      vertex 2.1298 1.4913 11.9
      vertex 2.25167 1.3 0
      vertex 2.25167 1.3 11.9
    endloop
  endfacet
  facet normal -0.30072 -0.953712 0
    outer loop
      vertex 0.672929 2.51141 0
      vertex 0.889252 2.4432 11.9
      vertex 0.672929 2.51141 11.9
    endloop
  endfacet
  facet normal -0.30072 -0.953712 -0
    outer loop
      vertex 0.889252 2.4432 11.9
      vertex 0.672929 2.51141 0
      vertex 0.889252 2.4432 0
    endloop
  endfacet
  facet normal -0.216427 0.976299 0
    outer loop
      vertex 0.672929 -2.51141 0
      vertex 0.451485 -2.5605 11.9
      vertex 0.672929 -2.51141 11.9
    endloop
  endfacet
  facet normal -0.216427 0.976299 0
    outer loop
      vertex 0.451485 -2.5605 11.9
      vertex 0.672929 -2.51141 0
      vertex 0.451485 -2.5605 0
    endloop
  endfacet
  facet normal 0.843395 0.537295 0
    outer loop
      vertex -2.1298 -1.4913 11.9
      vertex -2.25167 -1.3 0
      vertex -2.25167 -1.3 11.9
    endloop
  endfacet
  facet normal 0.843395 0.537295 0
    outer loop
      vertex -2.25167 -1.3 0
      vertex -2.1298 -1.4913 11.9
      vertex -2.1298 -1.4913 0
    endloop
  endfacet
  facet normal 0.793354 0.60876 0
    outer loop
      vertex -1.99172 -1.67125 11.9
      vertex -2.1298 -1.4913 0
      vertex -2.1298 -1.4913 11.9
    endloop
  endfacet
  facet normal 0.793354 0.60876 0
    outer loop
      vertex -2.1298 -1.4913 0
      vertex -1.99172 -1.67125 11.9
      vertex -1.99172 -1.67125 0
    endloop
  endfacet
  facet normal -0.887016 -0.461739 0
    outer loop
      vertex 2.3564 1.09881 0
      vertex 2.25167 1.3 11.9
      vertex 2.25167 1.3 0
    endloop
  endfacet
  facet normal -0.887016 -0.461739 0
    outer loop
      vertex 2.25167 1.3 11.9
      vertex 2.3564 1.09881 0
      vertex 2.3564 1.09881 11.9
    endloop
  endfacet
  facet normal 0.216427 -0.976299 0
    outer loop
      vertex -0.672929 2.51141 0
      vertex -0.451485 2.5605 11.9
      vertex -0.672929 2.51141 11.9
    endloop
  endfacet
  facet normal 0.216427 -0.976299 0
    outer loop
      vertex -0.451485 2.5605 11.9
      vertex -0.672929 2.51141 0
      vertex -0.451485 2.5605 0
    endloop
  endfacet
  facet normal 0.130543 -0.991443 0
    outer loop
      vertex -0.451485 2.5605 0
      vertex -0.226604 2.59011 11.9
      vertex -0.451485 2.5605 11.9
    endloop
  endfacet
  facet normal 0.130543 -0.991443 0
    outer loop
      vertex -0.226604 2.59011 11.9
      vertex -0.451485 2.5605 0
      vertex -0.226604 2.59011 0
    endloop
  endfacet
  facet normal -0.793354 -0.60876 0
    outer loop
      vertex 2.1298 1.4913 0
      vertex 1.99172 1.67125 11.9
      vertex 1.99172 1.67125 0
    endloop
  endfacet
  facet normal -0.793354 -0.60876 0
    outer loop
      vertex 1.99172 1.67125 11.9
      vertex 2.1298 1.4913 0
      vertex 2.1298 1.4913 11.9
    endloop
  endfacet
  facet normal -0.953712 0.30072 0
    outer loop
      vertex 2.4432 -0.889252 0
      vertex 2.51141 -0.672929 11.9
      vertex 2.51141 -0.672929 0
    endloop
  endfacet
  facet normal -0.953712 0.30072 0
    outer loop
      vertex 2.51141 -0.672929 11.9
      vertex 2.4432 -0.889252 0
      vertex 2.4432 -0.889252 11.9
    endloop
  endfacet
  facet normal 0.999049 -0.0436029 0
    outer loop
      vertex -2.6 0 11.9
      vertex -2.59011 0.226604 0
      vertex -2.59011 0.226604 11.9
    endloop
  endfacet
  facet normal 0.999049 -0.0436029 0
    outer loop
      vertex -2.59011 0.226604 0
      vertex -2.6 0 11.9
      vertex -2.6 0 0
    endloop
  endfacet
  facet normal 0.999049 0.0436029 0
    outer loop
      vertex -2.59011 -0.226604 11.9
      vertex -2.6 0 0
      vertex -2.6 0 11.9
    endloop
  endfacet
  facet normal 0.999049 0.0436029 0
    outer loop
      vertex -2.6 0 0
      vertex -2.59011 -0.226604 11.9
      vertex -2.59011 -0.226604 0
    endloop
  endfacet
  facet normal -0.461739 -0.887016 0
    outer loop
      vertex 1.09881 2.3564 0
      vertex 1.3 2.25167 11.9
      vertex 1.09881 2.3564 11.9
    endloop
  endfacet
  facet normal -0.461739 -0.887016 -0
    outer loop
      vertex 1.3 2.25167 11.9
      vertex 1.09881 2.3564 0
      vertex 1.3 2.25167 0
    endloop
  endfacet
  facet normal -0.537295 -0.843395 0
    outer loop
      vertex 1.3 2.25167 0
      vertex 1.4913 2.1298 11.9
      vertex 1.3 2.25167 11.9
    endloop
  endfacet
  facet normal -0.537295 -0.843395 -0
    outer loop
      vertex 1.4913 2.1298 11.9
      vertex 1.3 2.25167 0
      vertex 1.4913 2.1298 0
    endloop
  endfacet
  facet normal 0.0436029 -0.999049 0
    outer loop
      vertex -0.226604 2.59011 0
      vertex 0 2.6 11.9
      vertex -0.226604 2.59011 11.9
    endloop
  endfacet
  facet normal 0.0436029 -0.999049 0
    outer loop
      vertex 0 2.6 11.9
      vertex -0.226604 2.59011 0
      vertex 0 2.6 0
    endloop
  endfacet
  facet normal -0.0436029 -0.999049 0
    outer loop
      vertex 0 2.6 0
      vertex 0.226604 2.59011 11.9
      vertex 0 2.6 11.9
    endloop
  endfacet
  facet normal -0.0436029 -0.999049 -0
    outer loop
      vertex 0.226604 2.59011 11.9
      vertex 0 2.6 0
      vertex 0.226604 2.59011 0
    endloop
  endfacet
  facet normal 0.382677 0.923882 -0
    outer loop
      vertex -0.889252 -2.4432 0
      vertex -1.09881 -2.3564 11.9
      vertex -0.889252 -2.4432 11.9
    endloop
  endfacet
  facet normal 0.382677 0.923882 0
    outer loop
      vertex -1.09881 -2.3564 11.9
      vertex -0.889252 -2.4432 0
      vertex -1.09881 -2.3564 0
    endloop
  endfacet
  facet normal 0 0 -1
    outer loop
      vertex 2.59011 -0.226604 11.9
      vertex 2.59011 0.226604 11.9
      vertex 2.6 0 11.9
    endloop
  endfacet
  facet normal 0 0 -1
    outer loop
      vertex 2.5605 -0.451485 11.9
      vertex 2.59011 0.226604 11.9
      vertex 2.59011 -0.226604 11.9
    endloop
  endfacet
  facet normal 0 0 -1
    outer loop
      vertex 2.5605 -0.451485 11.9
      vertex 2.5605 0.451485 11.9
      vertex 2.59011 0.226604 11.9
    endloop
  endfacet
  facet normal 0 0 -1
    outer loop
      vertex 2.51141 -0.672929 11.9
      vertex 2.5605 0.451485 11.9
      vertex 2.5605 -0.451485 11.9
    endloop
  endfacet
  facet normal 0 0 -1
    outer loop
      vertex 2.51141 -0.672929 11.9
      vertex 2.51141 0.672929 11.9
      vertex 2.5605 0.451485 11.9
    endloop
  endfacet
  facet normal 0 0 -1
    outer loop
      vertex 2.4432 -0.889252 11.9
      vertex 2.51141 0.672929 11.9
      vertex 2.51141 -0.672929 11.9
    endloop
  endfacet
  facet normal 0 0 -1
    outer loop
      vertex 2.4432 -0.889252 11.9
      vertex 2.4432 0.889252 11.9
      vertex 2.51141 0.672929 11.9
    endloop
  endfacet
  facet normal 0 0 -1
    outer loop
      vertex 2.3564 -1.09881 11.9
      vertex 2.4432 0.889252 11.9
      vertex 2.4432 -0.889252 11.9
    endloop
  endfacet
  facet normal 0 0 -1
    outer loop
      vertex 2.3564 -1.09881 11.9
      vertex 2.3564 1.09881 11.9
      vertex 2.4432 0.889252 11.9
    endloop
  endfacet
  facet normal 0 0 -1
    outer loop
      vertex 2.25167 -1.3 11.9
      vertex 2.3564 1.09881 11.9
      vertex 2.3564 -1.09881 11.9
    endloop
  endfacet
  facet normal 0 0 -1
    outer loop
      vertex 2.25167 -1.3 11.9
      vertex 2.25167 1.3 11.9
      vertex 2.3564 1.09881 11.9
    endloop
  endfacet
  facet normal 0 0 -1
    outer loop
      vertex 2.1298 -1.4913 11.9
      vertex 2.25167 1.3 11.9
      vertex 2.25167 -1.3 11.9
    endloop
  endfacet
  facet normal 0 0 -1
    outer loop
      vertex 2.1298 -1.4913 11.9
      vertex 2.1298 1.4913 11.9
      vertex 2.25167 1.3 11.9
    endloop
  endfacet
  facet normal 0 0 -1
    outer loop
      vertex 1.99172 -1.67125 11.9
      vertex 2.1298 1.4913 11.9
      vertex 2.1298 -1.4913 11.9
    endloop
  endfacet
  facet normal 0 0 -1
    outer loop
      vertex 1.99172 -1.67125 11.9
      vertex 1.99172 1.67125 11.9
      vertex 2.1298 1.4913 11.9
    endloop
  endfacet
  facet normal 0 0 -1
    outer loop
      vertex 1.83848 -1.83848 11.9
      vertex 1.99172 1.67125 11.9
      vertex 1.99172 -1.67125 11.9
    endloop
  endfacet
  facet normal 0 0 -1
    outer loop
      vertex 1.83848 -1.83848 11.9
      vertex 1.83848 1.83848 11.9
      vertex 1.99172 1.67125 11.9
    endloop
  endfacet
  facet normal 0 0 -1
    outer loop
      vertex 1.67125 -1.99172 11.9
      vertex 1.83848 1.83848 11.9
      vertex 1.83848 -1.83848 11.9
    endloop
  endfacet
  facet normal 0 0 -1
    outer loop
      vertex 1.67125 -1.99172 11.9
      vertex 1.67125 1.99172 11.9
      vertex 1.83848 1.83848 11.9
    endloop
  endfacet
  facet normal 0 0 -1
    outer loop
      vertex 1.4913 -2.1298 11.9
      vertex 1.67125 1.99172 11.9
      vertex 1.67125 -1.99172 11.9
    endloop
  endfacet
  facet normal 0 0 -1
    outer loop
      vertex 1.4913 -2.1298 11.9
      vertex 1.4913 2.1298 11.9
      vertex 1.67125 1.99172 11.9
    endloop
  endfacet
  facet normal 0 0 -1
    outer loop
      vertex 1.3 -2.25167 11.9
      vertex 1.4913 2.1298 11.9
      vertex 1.4913 -2.1298 11.9
    endloop
  endfacet
  facet normal 0 0 -1
    outer loop
      vertex 1.3 -2.25167 11.9
      vertex 1.3 2.25167 11.9
      vertex 1.4913 2.1298 11.9
    endloop
  endfacet
  facet normal 0 0 -1
    outer loop
      vertex 1.09881 -2.3564 11.9
      vertex 1.3 2.25167 11.9
      vertex 1.3 -2.25167 11.9
    endloop
  endfacet
  facet normal 0 0 -1
    outer loop
      vertex 1.09881 -2.3564 11.9
      vertex 1.09881 2.3564 11.9
      vertex 1.3 2.25167 11.9
    endloop
  endfacet
  facet normal 0 0 -1
    outer loop
      vertex 0.889252 -2.4432 11.9
      vertex 1.09881 2.3564 11.9
      vertex 1.09881 -2.3564 11.9
    endloop
  endfacet
  facet normal 0 0 -1
    outer loop
      vertex 0.889252 -2.4432 11.9
      vertex 0.889252 2.4432 11.9
      vertex 1.09881 2.3564 11.9
    endloop
  endfacet
  facet normal 0 0 -1
    outer loop
      vertex 0.672929 -2.51141 11.9
      vertex 0.889252 2.4432 11.9
      vertex 0.889252 -2.4432 11.9
    endloop
  endfacet
  facet normal 0 0 -1
    outer loop
      vertex 0.672929 -2.51141 11.9
      vertex 0.672929 2.51141 11.9
      vertex 0.889252 2.4432 11.9
    endloop
  endfacet
  facet normal 0 0 -1
    outer loop
      vertex 0.451485 -2.5605 11.9
      vertex 0.672929 2.51141 11.9
      vertex 0.672929 -2.51141 11.9
    endloop
  endfacet
  facet normal 0 0 -1
    outer loop
      vertex 0.451485 -2.5605 11.9
      vertex 0.451485 2.5605 11.9
      vertex 0.672929 2.51141 11.9
    endloop
  endfacet
  facet normal 0 0 -1
    outer loop
      vertex 0.226604 -2.59011 11.9
      vertex 0.451485 2.5605 11.9
      vertex 0.451485 -2.5605 11.9
    endloop
  endfacet
  facet normal 0 0 -1
    outer loop
      vertex 0.226604 -2.59011 11.9
      vertex 0.226604 2.59011 11.9
      vertex 0.451485 2.5605 11.9
    endloop
  endfacet
  facet normal 0 0 -1
    outer loop
      vertex 0 -2.6 11.9
      vertex 0.226604 2.59011 11.9
      vertex 0.226604 -2.59011 11.9
    endloop
  endfacet
  facet normal 0 0 -1
    outer loop
      vertex 0 -2.6 11.9
      vertex 0 2.6 11.9
      vertex 0.226604 2.59011 11.9
    endloop
  endfacet
  facet normal 0 0 -1
    outer loop
      vertex -0.226604 -2.59011 11.9
      vertex 0 2.6 11.9
      vertex 0 -2.6 11.9
    endloop
  endfacet
  facet normal 0 0 -1
    outer loop
      vertex -0.226604 -2.59011 11.9
      vertex -0.226604 2.59011 11.9
      vertex 0 2.6 11.9
    endloop
  endfacet
  facet normal 0 0 -1
    outer loop
      vertex -0.451485 -2.5605 11.9
      vertex -0.226604 2.59011 11.9
      vertex -0.226604 -2.59011 11.9
    endloop
  endfacet
  facet normal 0 0 -1
    outer loop
      vertex -0.451485 -2.5605 11.9
      vertex -0.451485 2.5605 11.9
      vertex -0.226604 2.59011 11.9
    endloop
  endfacet
  facet normal 0 0 -1
    outer loop
      vertex -0.672929 -2.51141 11.9
      vertex -0.451485 2.5605 11.9
      vertex -0.451485 -2.5605 11.9
    endloop
  endfacet
  facet normal 0 0 -1
    outer loop
      vertex -0.672929 -2.51141 11.9
      vertex -0.672929 2.51141 11.9
      vertex -0.451485 2.5605 11.9
    endloop
  endfacet
  facet normal 0 0 -1
    outer loop
      vertex -0.889252 -2.4432 11.9
      vertex -0.672929 2.51141 11.9
      vertex -0.672929 -2.51141 11.9
    endloop
  endfacet
  facet normal 0 0 -1
    outer loop
      vertex -0.889252 -2.4432 11.9
      vertex -0.889252 2.4432 11.9
      vertex -0.672929 2.51141 11.9
    endloop
  endfacet
  facet normal 0 0 -1
    outer loop
      vertex -1.09881 -2.3564 11.9
      vertex -0.889252 2.4432 11.9
      vertex -0.889252 -2.4432 11.9
    endloop
  endfacet
  facet normal 0 0 -1
    outer loop
      vertex -1.09881 -2.3564 11.9
      vertex -1.09881 2.3564 11.9
      vertex -0.889252 2.4432 11.9
    endloop
  endfacet
  facet normal 0 0 -1
    outer loop
      vertex -1.3 -2.25167 11.9
      vertex -1.09881 2.3564 11.9
      vertex -1.09881 -2.3564 11.9
    endloop
  endfacet
  facet normal 0 0 -1
    outer loop
      vertex -1.3 -2.25167 11.9
      vertex -1.3 2.25167 11.9
      vertex -1.09881 2.3564 11.9
    endloop
  endfacet
  facet normal 0 0 -1
    outer loop
      vertex -1.4913 -2.1298 11.9
      vertex -1.3 2.25167 11.9
      vertex -1.3 -2.25167 11.9
    endloop
  endfacet
  facet normal 0 0 -1
    outer loop
      vertex -1.4913 -2.1298 11.9
      vertex -1.4913 2.1298 11.9
      vertex -1.3 2.25167 11.9
    endloop
  endfacet
  facet normal 0 0 -1
    outer loop
      vertex -1.67125 -1.99172 11.9
      vertex -1.4913 2.1298 11.9
      vertex -1.4913 -2.1298 11.9
    endloop
  endfacet
  facet normal 0 0 -1
    outer loop
      vertex -1.67125 -1.99172 11.9
      vertex -1.67125 1.99172 11.9
      vertex -1.4913 2.1298 11.9
    endloop
  endfacet
  facet normal 0 0 -1
    outer loop
      vertex -1.83848 -1.83848 11.9
      vertex -1.67125 1.99172 11.9
      vertex -1.67125 -1.99172 11.9
    endloop
  endfacet
  facet normal 0 0 -1
    outer loop
      vertex -1.83848 -1.83848 11.9
      vertex -1.83848 1.83848 11.9
      vertex -1.67125 1.99172 11.9
    endloop
  endfacet
  facet normal 0 0 -1
    outer loop
      vertex -1.99172 -1.67125 11.9
      vertex -1.83848 1.83848 11.9
      vertex -1.83848 -1.83848 11.9
    endloop
  endfacet
  facet normal 0 0 -1
    outer loop
      vertex -1.99172 -1.67125 11.9
      vertex -1.99172 1.67125 11.9
      vertex -1.83848 1.83848 11.9
    endloop
  endfacet
  facet normal 0 0 -1
    outer loop
      vertex -2.1298 -1.4913 11.9
      vertex -1.99172 1.67125 11.9
      vertex -1.99172 -1.67125 11.9
    endloop
  endfacet
  facet normal 0 0 -1
    outer loop
      vertex -2.1298 -1.4913 11.9
      vertex -2.1298 1.4913 11.9
      vertex -1.99172 1.67125 11.9
    endloop
  endfacet
  facet normal 0 0 -1
    outer loop
      vertex -2.25167 -1.3 11.9
      vertex -2.1298 1.4913 11.9
      vertex -2.1298 -1.4913 11.9
    endloop
  endfacet
  facet normal 0 0 -1
    outer loop
      vertex -2.25167 -1.3 11.9
      vertex -2.25167 1.3 11.9
      vertex -2.1298 1.4913 11.9
    endloop
  endfacet
  facet normal 0 0 -1
    outer loop
      vertex -2.3564 -1.09881 11.9
      vertex -2.25167 1.3 11.9
      vertex -2.25167 -1.3 11.9
    endloop
  endfacet
  facet normal 0 0 -1
    outer loop
      vertex -2.3564 -1.09881 11.9
      vertex -2.3564 1.09881 11.9
      vertex -2.25167 1.3 11.9
    endloop
  endfacet
  facet normal 0 0 -1
    outer loop
      vertex -2.4432 -0.889252 11.9
      vertex -2.3564 1.09881 11.9
      vertex -2.3564 -1.09881 11.9
    endloop
  endfacet
  facet normal 0 0 -1
    outer loop
      vertex -2.4432 -0.889252 11.9
      vertex -2.4432 0.889252 11.9
      vertex -2.3564 1.09881 11.9
    endloop
  endfacet
  facet normal 0 0 -1
    outer loop
      vertex -2.51141 -0.672929 11.9
      vertex -2.4432 0.889252 11.9
      vertex -2.4432 -0.889252 11.9
    endloop
  endfacet
  facet normal 0 0 -1
    outer loop
      vertex -2.51141 -0.672929 11.9
      vertex -2.51141 0.672929 11.9
      vertex -2.4432 0.889252 11.9
    endloop
  endfacet
  facet normal 0 0 -1
    outer loop
      vertex -2.5605 -0.451485 11.9
      vertex -2.51141 0.672929 11.9
      vertex -2.51141 -0.672929 11.9
    endloop
  endfacet
  facet normal 0 0 -1
    outer loop
      vertex -2.5605 -0.451485 11.9
      vertex -2.5605 0.451485 11.9
      vertex -2.51141 0.672929 11.9
    endloop
  endfacet
  facet normal 0 0 -1
    outer loop
      vertex -2.59011 -0.226604 11.9
      vertex -2.5605 0.451485 11.9
      vertex -2.5605 -0.451485 11.9
    endloop
  endfacet
  facet normal 0 0 -1
    outer loop
      vertex -2.59011 -0.226604 11.9
      vertex -2.59011 0.226604 11.9
      vertex -2.5605 0.451485 11.9
    endloop
  endfacet
  facet normal 0 -0 -1
    outer loop
      vertex -2.59011 0.226604 11.9
      vertex -2.59011 -0.226604 11.9
      vertex -2.6 0 11.9
    endloop
  endfacet
  facet normal -0.675595 -0.737273 0
    outer loop
      vertex 1.67125 1.99172 0
      vertex 1.83848 1.83848 11.9
      vertex 1.67125 1.99172 11.9
    endloop
  endfacet
  facet normal -0.675595 -0.737273 -0
    outer loop
      vertex 1.83848 1.83848 11.9
      vertex 1.67125 1.99172 0
      vertex 1.83848 1.83848 0
    endloop
  endfacet
  facet normal 0.953712 -0.30072 0
    outer loop
      vertex -2.51141 0.672929 11.9
      vertex -2.4432 0.889252 0
      vertex -2.4432 0.889252 11.9
    endloop
  endfacet
  facet normal 0.953712 -0.30072 0
    outer loop
      vertex -2.4432 0.889252 0
      vertex -2.51141 0.672929 11.9
      vertex -2.51141 0.672929 0
    endloop
  endfacet
  facet normal 0.991443 0.130543 0
    outer loop
      vertex -2.5605 -0.451485 11.9
      vertex -2.59011 -0.226604 0
      vertex -2.59011 -0.226604 11.9
    endloop
  endfacet
  facet normal 0.991443 0.130543 0
    outer loop
      vertex -2.59011 -0.226604 0
      vertex -2.5605 -0.451485 11.9
      vertex -2.5605 -0.451485 0
    endloop
  endfacet
  facet normal 0.461739 0.887016 -0
    outer loop
      vertex -1.09881 -2.3564 0
      vertex -1.3 -2.25167 11.9
      vertex -1.09881 -2.3564 11.9
    endloop
  endfacet
  facet normal 0.461739 0.887016 0
    outer loop
      vertex -1.3 -2.25167 11.9
      vertex -1.09881 -2.3564 0
      vertex -1.3 -2.25167 0
    endloop
  endfacet
  facet normal 0.887016 -0.461739 0
    outer loop
      vertex -2.3564 1.09881 11.9
      vertex -2.25167 1.3 0
      vertex -2.25167 1.3 11.9
    endloop
  endfacet
  facet normal 0.887016 -0.461739 0
    outer loop
      vertex -2.25167 1.3 0
      vertex -2.3564 1.09881 11.9
      vertex -2.3564 1.09881 0
    endloop
  endfacet
  facet normal 0.537295 0.843395 -0
    outer loop
      vertex -1.3 -2.25167 0
      vertex -1.4913 -2.1298 11.9
      vertex -1.3 -2.25167 11.9
    endloop
  endfacet
  facet normal 0.537295 0.843395 0
    outer loop
      vertex -1.4913 -2.1298 11.9
      vertex -1.3 -2.25167 0
      vertex -1.4913 -2.1298 0
    endloop
  endfacet
  facet normal -0.843395 0.537295 0
    outer loop
      vertex 2.1298 -1.4913 0
      vertex 2.25167 -1.3 11.9
      vertex 2.25167 -1.3 0
    endloop
  endfacet
  facet normal -0.843395 0.537295 0
    outer loop
      vertex 2.25167 -1.3 11.9
      vertex 2.1298 -1.4913 0
      vertex 2.1298 -1.4913 11.9
    endloop
  endfacet
  facet normal 0.976299 0.216427 0
    outer loop
      vertex -2.51141 -0.672929 11.9
      vertex -2.5605 -0.451485 0
      vertex -2.5605 -0.451485 11.9
    endloop
  endfacet
  facet normal 0.976299 0.216427 0
    outer loop
      vertex -2.5605 -0.451485 0
      vertex -2.51141 -0.672929 11.9
      vertex -2.51141 -0.672929 0
    endloop
  endfacet
  facet normal 0.991443 -0.130543 0
    outer loop
      vertex -2.59011 0.226604 11.9
      vertex -2.5605 0.451485 0
      vertex -2.5605 0.451485 11.9
    endloop
  endfacet
  facet normal 0.991443 -0.130543 0
    outer loop
      vertex -2.5605 0.451485 0
      vertex -2.59011 0.226604 11.9
      vertex -2.59011 0.226604 0
    endloop
  endfacet
  facet normal 0.130543 0.991443 -0
    outer loop
      vertex -0.226604 -2.59011 0
      vertex -0.451485 -2.5605 11.9
      vertex -0.226604 -2.59011 11.9
    endloop
  endfacet
  facet normal 0.130543 0.991443 0
    outer loop
      vertex -0.451485 -2.5605 11.9
      vertex -0.226604 -2.59011 0
      vertex -0.451485 -2.5605 0
    endloop
  endfacet
  facet normal 0.0436029 0.999049 -0
    outer loop
      vertex 0 -2.6 0
      vertex -0.226604 -2.59011 11.9
      vertex 0 -2.6 11.9
    endloop
  endfacet
  facet normal 0.0436029 0.999049 0
    outer loop
      vertex -0.226604 -2.59011 11.9
      vertex 0 -2.6 0
      vertex -0.226604 -2.59011 0
    endloop
  endfacet
  facet normal -0.737273 0.675595 0
    outer loop
      vertex 1.83848 -1.83848 0
      vertex 1.99172 -1.67125 11.9
      vertex 1.99172 -1.67125 0
    endloop
  endfacet
  facet normal -0.737273 0.675595 0
    outer loop
      vertex 1.99172 -1.67125 11.9
      vertex 1.83848 -1.83848 0
      vertex 1.83848 -1.83848 11.9
    endloop
  endfacet
  facet normal 0.923882 0.382677 0
    outer loop
      vertex -2.3564 -1.09881 11.9
      vertex -2.4432 -0.889252 0
      vertex -2.4432 -0.889252 11.9
    endloop
  endfacet
  facet normal 0.923882 0.382677 0
    outer loop
      vertex -2.4432 -0.889252 0
      vertex -2.3564 -1.09881 11.9
      vertex -2.3564 -1.09881 0
    endloop
  endfacet
  facet normal 0.30072 0.953712 -0
    outer loop
      vertex -0.672929 -2.51141 0
      vertex -0.889252 -2.4432 11.9
      vertex -0.672929 -2.51141 11.9
    endloop
  endfacet
  facet normal 0.30072 0.953712 0
    outer loop
      vertex -0.889252 -2.4432 11.9
      vertex -0.672929 -2.51141 0
      vertex -0.889252 -2.4432 0
    endloop
  endfacet
  facet normal -0.60876 0.793354 0
    outer loop
      vertex 1.67125 -1.99172 0
      vertex 1.4913 -2.1298 11.9
      vertex 1.67125 -1.99172 11.9
    endloop
  endfacet
  facet normal -0.60876 0.793354 0
    outer loop
      vertex 1.4913 -2.1298 11.9
      vertex 1.67125 -1.99172 0
      vertex 1.4913 -2.1298 0
    endloop
  endfacet
  facet normal -0.675595 0.737273 0
    outer loop
      vertex 1.83848 -1.83848 0
      vertex 1.67125 -1.99172 11.9
      vertex 1.83848 -1.83848 11.9
    endloop
  endfacet
  facet normal -0.675595 0.737273 0
    outer loop
      vertex 1.67125 -1.99172 11.9
      vertex 1.83848 -1.83848 0
      vertex 1.67125 -1.99172 0
    endloop
  endfacet
  facet normal 0.923882 -0.382677 0
    outer loop
      vertex -2.4432 0.889252 11.9
      vertex -2.3564 1.09881 0
      vertex -2.3564 1.09881 11.9
    endloop
  endfacet
  facet normal 0.923882 -0.382677 0
    outer loop
      vertex -2.3564 1.09881 0
      vertex -2.4432 0.889252 11.9
      vertex -2.4432 0.889252 0
    endloop
  endfacet
  facet normal 0.60876 0.793354 -0
    outer loop
      vertex -1.4913 -2.1298 0
      vertex -1.67125 -1.99172 11.9
      vertex -1.4913 -2.1298 11.9
    endloop
  endfacet
  facet normal 0.60876 0.793354 0
    outer loop
      vertex -1.67125 -1.99172 11.9
      vertex -1.4913 -2.1298 0
      vertex -1.67125 -1.99172 0
    endloop
  endfacet
  facet normal 0.953712 0.30072 0
    outer loop
      vertex -2.4432 -0.889252 11.9
      vertex -2.51141 -0.672929 0
      vertex -2.51141 -0.672929 11.9
    endloop
  endfacet
  facet normal 0.953712 0.30072 0
    outer loop
      vertex -2.51141 -0.672929 0
      vertex -2.4432 -0.889252 11.9
      vertex -2.4432 -0.889252 0
    endloop
  endfacet
endsolid OpenSCAD_Model
