solid OpenSCAD_Model
  facet normal 1 -0 0
    outer loop
      vertex 70 0 12
      vertex 70 50 0
      vertex 70 50 12
    endloop
  endfacet
  facet normal 1 0 0
    outer loop
      vertex 70 50 0
      vertex 70 0 12
      vertex 70 0 0
    endloop
  endfacet
  facet normal 0 0 1
    outer loop
      vertex 2 22 12
      vertex 0 22 12
      vertex 2 2 12
    endloop
  endfacet
  facet normal 0 0 1
    outer loop
      vertex 70 50 12
      vertex 68 48 12
      vertex 70 0 12
    endloop
  endfacet
  facet normal 0 0 1
    outer loop
      vertex 70 50 12
      vertex 2 48 12
      vertex 68 48 12
    endloop
  endfacet
  facet normal -0 0 1
    outer loop
      vertex 0 50 12
      vertex 2 48 12
      vertex 70 50 12
    endloop
  endfacet
  facet normal 0 0 1
    outer loop
      vertex 0 28 12
      vertex 2 48 12
      vertex 0 50 12
    endloop
  endfacet
  facet normal 0 0 1
    outer loop
      vertex 2 48 12
      vertex 0 28 12
      vertex 2 28 12
    endloop
  endfacet
  facet normal -0 0 1
    outer loop
      vertex 68 2 12
      vertex 70 0 12
      vertex 68 48 12
    endloop
  endfacet
  facet normal -0 0 1
    outer loop
      vertex 2 2 12
      vertex 70 0 12
      vertex 68 2 12
    endloop
  endfacet
  facet normal 0 0 1
    outer loop
      vertex 2 2 12
      vertex 0 0 12
      vertex 70 0 12
    endloop
  endfacet
  facet normal 0 0 1
    outer loop
      vertex 0 0 12
      vertex 2 2 12
      vertex 0 22 12
    endloop
  endfacet
  facet normal 0 0 -1
    outer loop
      vertex 53.8278 16.1611 0
      vertex 70 0 0
      vertex 53.9231 15.7804 0
    endloop
  endfacet
  facet normal 0 0 -1
    outer loop
      vertex 70 50 0
      vertex 53.9807 34.6079 0
      vertex 54 35 0
    endloop
  endfacet
  facet normal 0 0 -1
    outer loop
      vertex 70 0 0
      vertex 53.8278 16.1611 0
      vertex 70 50 0
    endloop
  endfacet
  facet normal 0 0 -1
    outer loop
      vertex 70 50 0
      vertex 53.9231 34.2196 0
      vertex 53.9807 34.6079 0
    endloop
  endfacet
  facet normal 0 0 -1
    outer loop
      vertex 53.8278 33.8389 0
      vertex 70 50 0
      vertex 53.8278 16.1611 0
    endloop
  endfacet
  facet normal 0 0 -1
    outer loop
      vertex 70 50 0
      vertex 53.8278 33.8389 0
      vertex 53.9231 34.2196 0
    endloop
  endfacet
  facet normal 0 0 -1
    outer loop
      vertex 53.6955 16.5307 0
      vertex 53.8278 33.8389 0
      vertex 53.8278 16.1611 0
    endloop
  endfacet
  facet normal 0 0 -1
    outer loop
      vertex 53.6955 16.5307 0
      vertex 53.6955 33.4693 0
      vertex 53.8278 33.8389 0
    endloop
  endfacet
  facet normal 0 0 -1
    outer loop
      vertex 53.5277 16.8856 0
      vertex 53.6955 33.4693 0
      vertex 53.6955 16.5307 0
    endloop
  endfacet
  facet normal 0 0 -1
    outer loop
      vertex 53.5277 16.8856 0
      vertex 53.5277 33.1144 0
      vertex 53.6955 33.4693 0
    endloop
  endfacet
  facet normal 0 0 -1
    outer loop
      vertex 53.3259 17.2223 0
      vertex 53.5277 33.1144 0
      vertex 53.5277 16.8856 0
    endloop
  endfacet
  facet normal 0 0 -1
    outer loop
      vertex 53.3259 17.2223 0
      vertex 53.3259 32.7777 0
      vertex 53.5277 33.1144 0
    endloop
  endfacet
  facet normal 0 0 -1
    outer loop
      vertex 53.092 17.5376 0
      vertex 53.3259 32.7777 0
      vertex 53.3259 17.2223 0
    endloop
  endfacet
  facet normal 0 0 -1
    outer loop
      vertex 53.092 17.5376 0
      vertex 53.092 32.4624 0
      vertex 53.3259 32.7777 0
    endloop
  endfacet
  facet normal 0 0 -1
    outer loop
      vertex 52.8284 17.8284 0
      vertex 53.092 32.4624 0
      vertex 53.092 17.5376 0
    endloop
  endfacet
  facet normal 0 0 -1
    outer loop
      vertex 52.8284 17.8284 0
      vertex 52.8284 32.1716 0
      vertex 53.092 32.4624 0
    endloop
  endfacet
  facet normal 0 0 -1
    outer loop
      vertex 52.5376 18.092 0
      vertex 52.8284 32.1716 0
      vertex 52.8284 17.8284 0
    endloop
  endfacet
  facet normal 0 0 -1
    outer loop
      vertex 52.5376 18.092 0
      vertex 52.5376 31.908 0
      vertex 52.8284 32.1716 0
    endloop
  endfacet
  facet normal 0 0 -1
    outer loop
      vertex 52.2223 18.3259 0
      vertex 52.5376 31.908 0
      vertex 52.5376 18.092 0
    endloop
  endfacet
  facet normal 0 0 -1
    outer loop
      vertex 52.2223 18.3259 0
      vertex 52.2223 31.6741 0
      vertex 52.5376 31.908 0
    endloop
  endfacet
  facet normal 0 0 -1
    outer loop
      vertex 51.8856 18.5277 0
      vertex 52.2223 31.6741 0
      vertex 52.2223 18.3259 0
    endloop
  endfacet
  facet normal 0 0 -1
    outer loop
      vertex 51.8856 18.5277 0
      vertex 51.8856 31.4723 0
      vertex 52.2223 31.6741 0
    endloop
  endfacet
  facet normal 0 0 -1
    outer loop
      vertex 51.5307 18.6955 0
      vertex 51.8856 31.4723 0
      vertex 51.8856 18.5277 0
    endloop
  endfacet
  facet normal 0 0 -1
    outer loop
      vertex 51.5307 18.6955 0
      vertex 51.5307 31.3045 0
      vertex 51.8856 31.4723 0
    endloop
  endfacet
  facet normal 0 0 -1
    outer loop
      vertex 51.1611 18.8278 0
      vertex 51.5307 31.3045 0
      vertex 51.5307 18.6955 0
    endloop
  endfacet
  facet normal 0 0 -1
    outer loop
      vertex 51.1611 18.8278 0
      vertex 51.1611 31.1722 0
      vertex 51.5307 31.3045 0
    endloop
  endfacet
  facet normal 0 0 -1
    outer loop
      vertex 50.7804 18.9231 0
      vertex 51.1611 31.1722 0
      vertex 51.1611 18.8278 0
    endloop
  endfacet
  facet normal 0 0 -1
    outer loop
      vertex 50.7804 18.9231 0
      vertex 50.7804 31.0769 0
      vertex 51.1611 31.1722 0
    endloop
  endfacet
  facet normal 0 0 -1
    outer loop
      vertex 50.3921 18.9807 0
      vertex 50.7804 31.0769 0
      vertex 50.7804 18.9231 0
    endloop
  endfacet
  facet normal 0 0 -1
    outer loop
      vertex 50.3921 18.9807 0
      vertex 50.3921 31.0193 0
      vertex 50.7804 31.0769 0
    endloop
  endfacet
  facet normal 0 0 -1
    outer loop
      vertex 50 19 0
      vertex 50.3921 31.0193 0
      vertex 50.3921 18.9807 0
    endloop
  endfacet
  facet normal 0 0 -1
    outer loop
      vertex 50 19 0
      vertex 50 31 0
      vertex 50.3921 31.0193 0
    endloop
  endfacet
  facet normal 0 0 -1
    outer loop
      vertex 49.6079 18.9807 0
      vertex 50 31 0
      vertex 50 19 0
    endloop
  endfacet
  facet normal 0 0 -1
    outer loop
      vertex 49.6079 18.9807 0
      vertex 49.6079 31.0193 0
      vertex 50 31 0
    endloop
  endfacet
  facet normal 0 0 -1
    outer loop
      vertex 49.2196 18.9231 0
      vertex 49.6079 31.0193 0
      vertex 49.6079 18.9807 0
    endloop
  endfacet
  facet normal 0 0 -1
    outer loop
      vertex 49.2196 18.9231 0
      vertex 49.2196 31.0769 0
      vertex 49.6079 31.0193 0
    endloop
  endfacet
  facet normal 0 0 -1
    outer loop
      vertex 48.8389 18.8278 0
      vertex 49.2196 31.0769 0
      vertex 49.2196 18.9231 0
    endloop
  endfacet
  facet normal 0 0 -1
    outer loop
      vertex 48.8389 18.8278 0
      vertex 48.8389 31.1722 0
      vertex 49.2196 31.0769 0
    endloop
  endfacet
  facet normal 0 0 -1
    outer loop
      vertex 48.4693 18.6955 0
      vertex 48.8389 31.1722 0
      vertex 48.8389 18.8278 0
    endloop
  endfacet
  facet normal 0 0 -1
    outer loop
      vertex 48.4693 18.6955 0
      vertex 48.4693 31.3045 0
      vertex 48.8389 31.1722 0
    endloop
  endfacet
  facet normal 0 0 -1
    outer loop
      vertex 48.1144 18.5277 0
      vertex 48.4693 31.3045 0
      vertex 48.4693 18.6955 0
    endloop
  endfacet
  facet normal 0 0 -1
    outer loop
      vertex 48.1144 18.5277 0
      vertex 48.1144 31.4723 0
      vertex 48.4693 31.3045 0
    endloop
  endfacet
  facet normal 0 0 -1
    outer loop
      vertex 47.7777 18.3259 0
      vertex 48.1144 31.4723 0
      vertex 48.1144 18.5277 0
    endloop
  endfacet
  facet normal 0 0 -1
    outer loop
      vertex 47.7777 18.3259 0
      vertex 47.7777 31.6741 0
      vertex 48.1144 31.4723 0
    endloop
  endfacet
  facet normal 0 0 -1
    outer loop
      vertex 47.4624 18.092 0
      vertex 47.7777 31.6741 0
      vertex 47.7777 18.3259 0
    endloop
  endfacet
  facet normal 0 0 -1
    outer loop
      vertex 47.4624 18.092 0
      vertex 47.4624 31.908 0
      vertex 47.7777 31.6741 0
    endloop
  endfacet
  facet normal 0 0 -1
    outer loop
      vertex 47.1716 17.8284 0
      vertex 47.4624 31.908 0
      vertex 47.4624 18.092 0
    endloop
  endfacet
  facet normal 0 0 -1
    outer loop
      vertex 47.1716 17.8284 0
      vertex 47.1716 32.1716 0
      vertex 47.4624 31.908 0
    endloop
  endfacet
  facet normal 0 0 -1
    outer loop
      vertex 46.908 17.5376 0
      vertex 47.1716 32.1716 0
      vertex 47.1716 17.8284 0
    endloop
  endfacet
  facet normal 0 0 -1
    outer loop
      vertex 46.908 17.5376 0
      vertex 46.908 32.4624 0
      vertex 47.1716 32.1716 0
    endloop
  endfacet
  facet normal 0 0 -1
    outer loop
      vertex 46.6741 17.2223 0
      vertex 46.908 32.4624 0
      vertex 46.908 17.5376 0
    endloop
  endfacet
  facet normal 0 0 -1
    outer loop
      vertex 46.6741 17.2223 0
      vertex 46.6741 32.7777 0
      vertex 46.908 32.4624 0
    endloop
  endfacet
  facet normal 0 0 -1
    outer loop
      vertex 46.4723 16.8856 0
      vertex 46.6741 32.7777 0
      vertex 46.6741 17.2223 0
    endloop
  endfacet
  facet normal 0 0 -1
    outer loop
      vertex 46.4723 16.8856 0
      vertex 46.4723 33.1144 0
      vertex 46.6741 32.7777 0
    endloop
  endfacet
  facet normal 0 0 -1
    outer loop
      vertex 46.3045 16.5307 0
      vertex 46.4723 33.1144 0
      vertex 46.4723 16.8856 0
    endloop
  endfacet
  facet normal 0 0 -1
    outer loop
      vertex 46.3045 16.5307 0
      vertex 46.3045 33.4693 0
      vertex 46.4723 33.1144 0
    endloop
  endfacet
  facet normal 0 0 -1
    outer loop
      vertex 46.1722 16.1611 0
      vertex 46.3045 33.4693 0
      vertex 46.3045 16.5307 0
    endloop
  endfacet
  facet normal 0 0 -1
    outer loop
      vertex 46.1722 16.1611 0
      vertex 46.1722 33.8389 0
      vertex 46.3045 33.4693 0
    endloop
  endfacet
  facet normal 0 0 -1
    outer loop
      vertex 0 0 0
      vertex 46.1722 16.1611 0
      vertex 46.0769 15.7804 0
    endloop
  endfacet
  facet normal -0 0 -1
    outer loop
      vertex 46.1722 16.1611 0
      vertex 0 0 0
      vertex 46.1722 33.8389 0
    endloop
  endfacet
  facet normal 0 0 -1
    outer loop
      vertex 0 0 0
      vertex 46.0769 15.7804 0
      vertex 46.0193 15.3921 0
    endloop
  endfacet
  facet normal 0 0 -1
    outer loop
      vertex 0 50 0
      vertex 46.1722 33.8389 0
      vertex 0 0 0
    endloop
  endfacet
  facet normal 0 0 -1
    outer loop
      vertex 0 0 0
      vertex 46.0193 15.3921 0
      vertex 46 15 0
    endloop
  endfacet
  facet normal 0 0 -1
    outer loop
      vertex 46.1722 33.8389 0
      vertex 0 50 0
      vertex 46.0769 34.2196 0
    endloop
  endfacet
  facet normal 0 0 -1
    outer loop
      vertex 53.9807 15.3921 0
      vertex 70 0 0
      vertex 54 15 0
    endloop
  endfacet
  facet normal 0 0 -1
    outer loop
      vertex 70 0 0
      vertex 53.9807 14.6079 0
      vertex 54 15 0
    endloop
  endfacet
  facet normal 0 0 -1
    outer loop
      vertex 70 0 0
      vertex 53.9231 14.2196 0
      vertex 53.9807 14.6079 0
    endloop
  endfacet
  facet normal 0 0 -1
    outer loop
      vertex 70 0 0
      vertex 53.8278 13.8389 0
      vertex 53.9231 14.2196 0
    endloop
  endfacet
  facet normal 0 0 -1
    outer loop
      vertex 70 0 0
      vertex 53.6955 13.4693 0
      vertex 53.8278 13.8389 0
    endloop
  endfacet
  facet normal 0 0 -1
    outer loop
      vertex 70 0 0
      vertex 53.5277 13.1144 0
      vertex 53.6955 13.4693 0
    endloop
  endfacet
  facet normal 0 0 -1
    outer loop
      vertex 70 0 0
      vertex 53.3259 12.7777 0
      vertex 53.5277 13.1144 0
    endloop
  endfacet
  facet normal 0 0 -1
    outer loop
      vertex 70 0 0
      vertex 53.092 12.4624 0
      vertex 53.3259 12.7777 0
    endloop
  endfacet
  facet normal 0 0 -1
    outer loop
      vertex 70 0 0
      vertex 52.8284 12.1716 0
      vertex 53.092 12.4624 0
    endloop
  endfacet
  facet normal 0 0 -1
    outer loop
      vertex 70 0 0
      vertex 52.5376 11.908 0
      vertex 52.8284 12.1716 0
    endloop
  endfacet
  facet normal 0 0 -1
    outer loop
      vertex 70 0 0
      vertex 52.2223 11.6741 0
      vertex 52.5376 11.908 0
    endloop
  endfacet
  facet normal 0 0 -1
    outer loop
      vertex 70 0 0
      vertex 51.8856 11.4723 0
      vertex 52.2223 11.6741 0
    endloop
  endfacet
  facet normal 0 0 -1
    outer loop
      vertex 70 0 0
      vertex 51.5307 11.3045 0
      vertex 51.8856 11.4723 0
    endloop
  endfacet
  facet normal 0 0 -1
    outer loop
      vertex 70 0 0
      vertex 51.1611 11.1722 0
      vertex 51.5307 11.3045 0
    endloop
  endfacet
  facet normal 0 0 -1
    outer loop
      vertex 70 0 0
      vertex 50.7804 11.0769 0
      vertex 51.1611 11.1722 0
    endloop
  endfacet
  facet normal 0 0 -1
    outer loop
      vertex 70 0 0
      vertex 50.3921 11.0193 0
      vertex 50.7804 11.0769 0
    endloop
  endfacet
  facet normal 0 0 -1
    outer loop
      vertex 70 0 0
      vertex 50 11 0
      vertex 50.3921 11.0193 0
    endloop
  endfacet
  facet normal 0 0 -1
    outer loop
      vertex 70 0 0
      vertex 49.6079 11.0193 0
      vertex 50 11 0
    endloop
  endfacet
  facet normal 0 0 -1
    outer loop
      vertex 70 0 0
      vertex 49.2196 11.0769 0
      vertex 49.6079 11.0193 0
    endloop
  endfacet
  facet normal 0 0 -1
    outer loop
      vertex 70 0 0
      vertex 48.8389 11.1722 0
      vertex 49.2196 11.0769 0
    endloop
  endfacet
  facet normal 0 0 -1
    outer loop
      vertex 0 0 0
      vertex 48.8389 11.1722 0
      vertex 70 0 0
    endloop
  endfacet
  facet normal -0 0 -1
    outer loop
      vertex 48.8389 11.1722 0
      vertex 0 0 0
      vertex 48.4693 11.3045 0
    endloop
  endfacet
  facet normal 0 0 -1
    outer loop
      vertex 46.0769 34.2196 0
      vertex 0 50 0
      vertex 46.0193 34.6079 0
    endloop
  endfacet
  facet normal -0 0 -1
    outer loop
      vertex 46.0193 14.6079 0
      vertex 0 0 0
      vertex 46 15 0
    endloop
  endfacet
  facet normal -0 0 -1
    outer loop
      vertex 46.0769 14.2196 0
      vertex 0 0 0
      vertex 46.0193 14.6079 0
    endloop
  endfacet
  facet normal -0 0 -1
    outer loop
      vertex 46.1722 13.8389 0
      vertex 0 0 0
      vertex 46.0769 14.2196 0
    endloop
  endfacet
  facet normal -0 0 -1
    outer loop
      vertex 46.3045 13.4693 0
      vertex 0 0 0
      vertex 46.1722 13.8389 0
    endloop
  endfacet
  facet normal -0 0 -1
    outer loop
      vertex 46.4723 13.1144 0
      vertex 0 0 0
      vertex 46.3045 13.4693 0
    endloop
  endfacet
  facet normal -0 0 -1
    outer loop
      vertex 46.6741 12.7777 0
      vertex 0 0 0
      vertex 46.4723 13.1144 0
    endloop
  endfacet
  facet normal -0 0 -1
    outer loop
      vertex 46.908 12.4624 0
      vertex 0 0 0
      vertex 46.6741 12.7777 0
    endloop
  endfacet
  facet normal -0 0 -1
    outer loop
      vertex 47.1716 12.1716 0
      vertex 0 0 0
      vertex 46.908 12.4624 0
    endloop
  endfacet
  facet normal -0 0 -1
    outer loop
      vertex 47.4624 11.908 0
      vertex 0 0 0
      vertex 47.1716 12.1716 0
    endloop
  endfacet
  facet normal -0 0 -1
    outer loop
      vertex 47.7777 11.6741 0
      vertex 0 0 0
      vertex 47.4624 11.908 0
    endloop
  endfacet
  facet normal -0 0 -1
    outer loop
      vertex 48.1144 11.4723 0
      vertex 0 0 0
      vertex 47.7777 11.6741 0
    endloop
  endfacet
  facet normal -0 0 -1
    outer loop
      vertex 48.4693 11.3045 0
      vertex 0 0 0
      vertex 48.1144 11.4723 0
    endloop
  endfacet
  facet normal 0 0 -1
    outer loop
      vertex 53.9231 15.7804 0
      vertex 70 0 0
      vertex 53.9807 15.3921 0
    endloop
  endfacet
  facet normal 0 0 -1
    outer loop
      vertex 53.9807 35.3921 0
      vertex 70 50 0
      vertex 54 35 0
    endloop
  endfacet
  facet normal 0 0 -1
    outer loop
      vertex 53.9231 35.7804 0
      vertex 70 50 0
      vertex 53.9807 35.3921 0
    endloop
  endfacet
  facet normal 0 0 -1
    outer loop
      vertex 53.8278 36.1611 0
      vertex 70 50 0
      vertex 53.9231 35.7804 0
    endloop
  endfacet
  facet normal 0 0 -1
    outer loop
      vertex 53.6955 36.5307 0
      vertex 70 50 0
      vertex 53.8278 36.1611 0
    endloop
  endfacet
  facet normal 0 0 -1
    outer loop
      vertex 53.5277 36.8856 0
      vertex 70 50 0
      vertex 53.6955 36.5307 0
    endloop
  endfacet
  facet normal 0 0 -1
    outer loop
      vertex 53.3259 37.2223 0
      vertex 70 50 0
      vertex 53.5277 36.8856 0
    endloop
  endfacet
  facet normal 0 0 -1
    outer loop
      vertex 53.092 37.5376 0
      vertex 70 50 0
      vertex 53.3259 37.2223 0
    endloop
  endfacet
  facet normal 0 0 -1
    outer loop
      vertex 52.8284 37.8284 0
      vertex 70 50 0
      vertex 53.092 37.5376 0
    endloop
  endfacet
  facet normal 0 0 -1
    outer loop
      vertex 52.5376 38.092 0
      vertex 70 50 0
      vertex 52.8284 37.8284 0
    endloop
  endfacet
  facet normal 0 0 -1
    outer loop
      vertex 52.2223 38.3259 0
      vertex 70 50 0
      vertex 52.5376 38.092 0
    endloop
  endfacet
  facet normal 0 0 -1
    outer loop
      vertex 51.8856 38.5277 0
      vertex 70 50 0
      vertex 52.2223 38.3259 0
    endloop
  endfacet
  facet normal 0 0 -1
    outer loop
      vertex 51.5307 38.6955 0
      vertex 70 50 0
      vertex 51.8856 38.5277 0
    endloop
  endfacet
  facet normal 0 0 -1
    outer loop
      vertex 51.1611 38.8278 0
      vertex 70 50 0
      vertex 51.5307 38.6955 0
    endloop
  endfacet
  facet normal 0 0 -1
    outer loop
      vertex 50.7804 38.9231 0
      vertex 70 50 0
      vertex 51.1611 38.8278 0
    endloop
  endfacet
  facet normal 0 0 -1
    outer loop
      vertex 50.3921 38.9807 0
      vertex 70 50 0
      vertex 50.7804 38.9231 0
    endloop
  endfacet
  facet normal 0 0 -1
    outer loop
      vertex 50 39 0
      vertex 70 50 0
      vertex 50.3921 38.9807 0
    endloop
  endfacet
  facet normal 0 0 -1
    outer loop
      vertex 49.6079 38.9807 0
      vertex 70 50 0
      vertex 50 39 0
    endloop
  endfacet
  facet normal 0 0 -1
    outer loop
      vertex 49.2196 38.9231 0
      vertex 70 50 0
      vertex 49.6079 38.9807 0
    endloop
  endfacet
  facet normal 0 0 -1
    outer loop
      vertex 48.8389 38.8278 0
      vertex 70 50 0
      vertex 49.2196 38.9231 0
    endloop
  endfacet
  facet normal 0 0 -1
    outer loop
      vertex 0 50 0
      vertex 48.8389 38.8278 0
      vertex 48.4693 38.6955 0
    endloop
  endfacet
  facet normal 0 0 -1
    outer loop
      vertex 0 50 0
      vertex 48.4693 38.6955 0
      vertex 48.1144 38.5277 0
    endloop
  endfacet
  facet normal 0 0 -1
    outer loop
      vertex 46.0193 34.6079 0
      vertex 0 50 0
      vertex 46 35 0
    endloop
  endfacet
  facet normal 0 0 -1
    outer loop
      vertex 46 35 0
      vertex 0 50 0
      vertex 46.0193 35.3921 0
    endloop
  endfacet
  facet normal 0 0 -1
    outer loop
      vertex 46.0193 35.3921 0
      vertex 0 50 0
      vertex 46.0769 35.7804 0
    endloop
  endfacet
  facet normal 0 0 -1
    outer loop
      vertex 46.0769 35.7804 0
      vertex 0 50 0
      vertex 46.1722 36.1611 0
    endloop
  endfacet
  facet normal 0 0 -1
    outer loop
      vertex 46.1722 36.1611 0
      vertex 0 50 0
      vertex 46.3045 36.5307 0
    endloop
  endfacet
  facet normal 0 0 -1
    outer loop
      vertex 46.3045 36.5307 0
      vertex 0 50 0
      vertex 46.4723 36.8856 0
    endloop
  endfacet
  facet normal 0 0 -1
    outer loop
      vertex 46.4723 36.8856 0
      vertex 0 50 0
      vertex 46.6741 37.2223 0
    endloop
  endfacet
  facet normal 0 0 -1
    outer loop
      vertex 46.6741 37.2223 0
      vertex 0 50 0
      vertex 46.908 37.5376 0
    endloop
  endfacet
  facet normal 0 0 -1
    outer loop
      vertex 46.908 37.5376 0
      vertex 0 50 0
      vertex 47.1716 37.8284 0
    endloop
  endfacet
  facet normal 0 0 -1
    outer loop
      vertex 48.8389 38.8278 0
      vertex 0 50 0
      vertex 70 50 0
    endloop
  endfacet
  facet normal 0 0 -1
    outer loop
      vertex 47.7777 38.3259 0
      vertex 0 50 0
      vertex 48.1144 38.5277 0
    endloop
  endfacet
  facet normal 0 0 -1
    outer loop
      vertex 47.4624 38.092 0
      vertex 0 50 0
      vertex 47.7777 38.3259 0
    endloop
  endfacet
  facet normal 0 0 -1
    outer loop
      vertex 47.1716 37.8284 0
      vertex 0 50 0
      vertex 47.4624 38.092 0
    endloop
  endfacet
  facet normal -1 0 0
    outer loop
      vertex 0 50 0
      vertex 0 28 8
      vertex 0 50 12
    endloop
  endfacet
  facet normal -1 0 0
    outer loop
      vertex 0 50 0
      vertex 0 22 8
      vertex 0 28 8
    endloop
  endfacet
  facet normal -1 0 0
    outer loop
      vertex 0 0 0
      vertex 0 22 8
      vertex 0 50 0
    endloop
  endfacet
  facet normal -1 0 0
    outer loop
      vertex 0 0 12
      vertex 0 22 8
      vertex 0 0 0
    endloop
  endfacet
  facet normal -1 0 0
    outer loop
      vertex 0 22 8
      vertex 0 0 12
      vertex 0 22 12
    endloop
  endfacet
  facet normal -1 -0 0
    outer loop
      vertex 0 50 12
      vertex 0 28 8
      vertex 0 28 12
    endloop
  endfacet
  facet normal 0 1 -0
    outer loop
      vertex 70 50 0
      vertex 0 50 12
      vertex 70 50 12
    endloop
  endfacet
  facet normal 0 1 0
    outer loop
      vertex 0 50 12
      vertex 70 50 0
      vertex 0 50 0
    endloop
  endfacet
  facet normal 0 -1 0
    outer loop
      vertex 0 0 0
      vertex 70 0 12
      vertex 0 0 12
    endloop
  endfacet
  facet normal 0 -1 -0
    outer loop
      vertex 70 0 12
      vertex 0 0 0
      vertex 70 0 0
    endloop
  endfacet
  facet normal -1 0 0
    outer loop
      vertex 68 2 2
      vertex 68 48 12
      vertex 68 48 2
    endloop
  endfacet
  facet normal -1 -0 0
    outer loop
      vertex 68 48 12
      vertex 68 2 2
      vertex 68 2 12
    endloop
  endfacet
  facet normal 0 0 1
    outer loop
      vertex 53.8278 33.8389 2
      vertex 68 48 2
      vertex 53.9231 34.2196 2
    endloop
  endfacet
  facet normal 0 0 1
    outer loop
      vertex 68 2 2
      vertex 53.9807 15.3921 2
      vertex 54 15 2
    endloop
  endfacet
  facet normal 0 0 1
    outer loop
      vertex 53.6955 33.4693 2
      vertex 68 48 2
      vertex 53.8278 33.8389 2
    endloop
  endfacet
  facet normal 0 0 1
    outer loop
      vertex 68 2 2
      vertex 53.9231 15.7804 2
      vertex 53.9807 15.3921 2
    endloop
  endfacet
  facet normal 0 0 1
    outer loop
      vertex 68 48 2
      vertex 53.6955 33.4693 2
      vertex 68 2 2
    endloop
  endfacet
  facet normal 0 0 1
    outer loop
      vertex 68 2 2
      vertex 53.8278 16.1611 2
      vertex 53.9231 15.7804 2
    endloop
  endfacet
  facet normal -0 0 1
    outer loop
      vertex 53.6955 16.5307 2
      vertex 68 2 2
      vertex 53.6955 33.4693 2
    endloop
  endfacet
  facet normal 0 0 1
    outer loop
      vertex 68 2 2
      vertex 53.6955 16.5307 2
      vertex 53.8278 16.1611 2
    endloop
  endfacet
  facet normal -0 0 1
    outer loop
      vertex 53.5277 33.1144 2
      vertex 53.6955 16.5307 2
      vertex 53.6955 33.4693 2
    endloop
  endfacet
  facet normal 0 0 1
    outer loop
      vertex 53.5277 33.1144 2
      vertex 53.5277 16.8856 2
      vertex 53.6955 16.5307 2
    endloop
  endfacet
  facet normal -0 0 1
    outer loop
      vertex 53.3259 32.7777 2
      vertex 53.5277 16.8856 2
      vertex 53.5277 33.1144 2
    endloop
  endfacet
  facet normal 0 0 1
    outer loop
      vertex 53.3259 32.7777 2
      vertex 53.3259 17.2223 2
      vertex 53.5277 16.8856 2
    endloop
  endfacet
  facet normal -0 0 1
    outer loop
      vertex 53.092 32.4624 2
      vertex 53.3259 17.2223 2
      vertex 53.3259 32.7777 2
    endloop
  endfacet
  facet normal 0 0 1
    outer loop
      vertex 53.092 32.4624 2
      vertex 53.092 17.5376 2
      vertex 53.3259 17.2223 2
    endloop
  endfacet
  facet normal -0 0 1
    outer loop
      vertex 52.8284 32.1716 2
      vertex 53.092 17.5376 2
      vertex 53.092 32.4624 2
    endloop
  endfacet
  facet normal 0 0 1
    outer loop
      vertex 52.8284 32.1716 2
      vertex 52.8284 17.8284 2
      vertex 53.092 17.5376 2
    endloop
  endfacet
  facet normal -0 0 1
    outer loop
      vertex 52.5376 31.908 2
      vertex 52.8284 17.8284 2
      vertex 52.8284 32.1716 2
    endloop
  endfacet
  facet normal 0 0 1
    outer loop
      vertex 52.5376 31.908 2
      vertex 52.5376 18.092 2
      vertex 52.8284 17.8284 2
    endloop
  endfacet
  facet normal -0 0 1
    outer loop
      vertex 52.2223 31.6741 2
      vertex 52.5376 18.092 2
      vertex 52.5376 31.908 2
    endloop
  endfacet
  facet normal 0 0 1
    outer loop
      vertex 52.2223 31.6741 2
      vertex 52.2223 18.3259 2
      vertex 52.5376 18.092 2
    endloop
  endfacet
  facet normal -0 0 1
    outer loop
      vertex 51.8856 31.4723 2
      vertex 52.2223 18.3259 2
      vertex 52.2223 31.6741 2
    endloop
  endfacet
  facet normal 0 0 1
    outer loop
      vertex 51.8856 31.4723 2
      vertex 51.8856 18.5277 2
      vertex 52.2223 18.3259 2
    endloop
  endfacet
  facet normal -0 0 1
    outer loop
      vertex 51.5307 31.3045 2
      vertex 51.8856 18.5277 2
      vertex 51.8856 31.4723 2
    endloop
  endfacet
  facet normal 0 0 1
    outer loop
      vertex 51.5307 31.3045 2
      vertex 51.5307 18.6955 2
      vertex 51.8856 18.5277 2
    endloop
  endfacet
  facet normal -0 0 1
    outer loop
      vertex 51.1611 31.1722 2
      vertex 51.5307 18.6955 2
      vertex 51.5307 31.3045 2
    endloop
  endfacet
  facet normal 0 0 1
    outer loop
      vertex 51.1611 31.1722 2
      vertex 51.1611 18.8278 2
      vertex 51.5307 18.6955 2
    endloop
  endfacet
  facet normal -0 0 1
    outer loop
      vertex 50.7804 31.0769 2
      vertex 51.1611 18.8278 2
      vertex 51.1611 31.1722 2
    endloop
  endfacet
  facet normal 0 0 1
    outer loop
      vertex 50.7804 31.0769 2
      vertex 50.7804 18.9231 2
      vertex 51.1611 18.8278 2
    endloop
  endfacet
  facet normal -0 0 1
    outer loop
      vertex 50.3921 31.0193 2
      vertex 50.7804 18.9231 2
      vertex 50.7804 31.0769 2
    endloop
  endfacet
  facet normal 0 0 1
    outer loop
      vertex 50.3921 31.0193 2
      vertex 50.3921 18.9807 2
      vertex 50.7804 18.9231 2
    endloop
  endfacet
  facet normal -0 0 1
    outer loop
      vertex 50 31 2
      vertex 50.3921 18.9807 2
      vertex 50.3921 31.0193 2
    endloop
  endfacet
  facet normal 0 0 1
    outer loop
      vertex 50 31 2
      vertex 50 19 2
      vertex 50.3921 18.9807 2
    endloop
  endfacet
  facet normal 0 0 1
    outer loop
      vertex 49.6079 31.0193 2
      vertex 50 19 2
      vertex 50 31 2
    endloop
  endfacet
  facet normal 0 0 1
    outer loop
      vertex 49.6079 31.0193 2
      vertex 49.6079 18.9807 2
      vertex 50 19 2
    endloop
  endfacet
  facet normal 0 0 1
    outer loop
      vertex 49.2196 31.0769 2
      vertex 49.6079 18.9807 2
      vertex 49.6079 31.0193 2
    endloop
  endfacet
  facet normal 0 0 1
    outer loop
      vertex 49.2196 31.0769 2
      vertex 49.2196 18.9231 2
      vertex 49.6079 18.9807 2
    endloop
  endfacet
  facet normal 0 0 1
    outer loop
      vertex 48.8389 31.1722 2
      vertex 49.2196 18.9231 2
      vertex 49.2196 31.0769 2
    endloop
  endfacet
  facet normal 0 0 1
    outer loop
      vertex 48.8389 31.1722 2
      vertex 48.8389 18.8278 2
      vertex 49.2196 18.9231 2
    endloop
  endfacet
  facet normal 0 0 1
    outer loop
      vertex 48.4693 31.3045 2
      vertex 48.8389 18.8278 2
      vertex 48.8389 31.1722 2
    endloop
  endfacet
  facet normal 0 0 1
    outer loop
      vertex 48.4693 31.3045 2
      vertex 48.4693 18.6955 2
      vertex 48.8389 18.8278 2
    endloop
  endfacet
  facet normal 0 0 1
    outer loop
      vertex 48.1144 31.4723 2
      vertex 48.4693 18.6955 2
      vertex 48.4693 31.3045 2
    endloop
  endfacet
  facet normal 0 0 1
    outer loop
      vertex 48.1144 31.4723 2
      vertex 48.1144 18.5277 2
      vertex 48.4693 18.6955 2
    endloop
  endfacet
  facet normal 0 0 1
    outer loop
      vertex 47.7777 31.6741 2
      vertex 48.1144 18.5277 2
      vertex 48.1144 31.4723 2
    endloop
  endfacet
  facet normal 0 0 1
    outer loop
      vertex 47.7777 31.6741 2
      vertex 47.7777 18.3259 2
      vertex 48.1144 18.5277 2
    endloop
  endfacet
  facet normal 0 0 1
    outer loop
      vertex 47.4624 31.908 2
      vertex 47.7777 18.3259 2
      vertex 47.7777 31.6741 2
    endloop
  endfacet
  facet normal 0 0 1
    outer loop
      vertex 47.4624 31.908 2
      vertex 47.4624 18.092 2
      vertex 47.7777 18.3259 2
    endloop
  endfacet
  facet normal 0 0 1
    outer loop
      vertex 47.1716 32.1716 2
      vertex 47.4624 18.092 2
      vertex 47.4624 31.908 2
    endloop
  endfacet
  facet normal 0 0 1
    outer loop
      vertex 47.1716 32.1716 2
      vertex 47.1716 17.8284 2
      vertex 47.4624 18.092 2
    endloop
  endfacet
  facet normal 0 0 1
    outer loop
      vertex 46.908 32.4624 2
      vertex 47.1716 17.8284 2
      vertex 47.1716 32.1716 2
    endloop
  endfacet
  facet normal 0 0 1
    outer loop
      vertex 46.908 32.4624 2
      vertex 46.908 17.5376 2
      vertex 47.1716 17.8284 2
    endloop
  endfacet
  facet normal 0 0 1
    outer loop
      vertex 28 28 2
      vertex 46.908 32.4624 2
      vertex 46.6741 32.7777 2
    endloop
  endfacet
  facet normal 0 0 1
    outer loop
      vertex 46.908 32.4624 2
      vertex 28 28 2
      vertex 46.908 17.5376 2
    endloop
  endfacet
  facet normal 0 0 1
    outer loop
      vertex 28 28 2
      vertex 46.6741 32.7777 2
      vertex 46.4723 33.1144 2
    endloop
  endfacet
  facet normal 0 0 1
    outer loop
      vertex 46.908 17.5376 2
      vertex 28 28 2
      vertex 46.6741 17.2223 2
    endloop
  endfacet
  facet normal 0 0 1
    outer loop
      vertex 28 28 2
      vertex 46.4723 33.1144 2
      vertex 46.3045 33.4693 2
    endloop
  endfacet
  facet normal 0 0 1
    outer loop
      vertex 46.6741 17.2223 2
      vertex 28 28 2
      vertex 46.4723 16.8856 2
    endloop
  endfacet
  facet normal 0 0 1
    outer loop
      vertex 28 28 2
      vertex 46.3045 33.4693 2
      vertex 46.1722 33.8389 2
    endloop
  endfacet
  facet normal 0 0 1
    outer loop
      vertex 46.4723 16.8856 2
      vertex 28 28 2
      vertex 46.3045 16.5307 2
    endloop
  endfacet
  facet normal 0 0 1
    outer loop
      vertex 28 28 2
      vertex 46.1722 33.8389 2
      vertex 46.0769 34.2196 2
    endloop
  endfacet
  facet normal 0 0 1
    outer loop
      vertex 46.3045 16.5307 2
      vertex 28 28 2
      vertex 46.1722 16.1611 2
    endloop
  endfacet
  facet normal 0 0 1
    outer loop
      vertex 28 28 2
      vertex 46.0769 34.2196 2
      vertex 46.0193 34.6079 2
    endloop
  endfacet
  facet normal 0 0 1
    outer loop
      vertex 46.1722 16.1611 2
      vertex 28 28 2
      vertex 46.0769 15.7804 2
    endloop
  endfacet
  facet normal 0 0 1
    outer loop
      vertex 28 28 2
      vertex 46.0193 34.6079 2
      vertex 46 35 2
    endloop
  endfacet
  facet normal 0 0 1
    outer loop
      vertex 28 8 2
      vertex 46.0769 15.7804 2
      vertex 28 28 2
    endloop
  endfacet
  facet normal 0 0 1
    outer loop
      vertex 53.9807 34.6079 2
      vertex 68 48 2
      vertex 54 35 2
    endloop
  endfacet
  facet normal 0 0 1
    outer loop
      vertex 68 48 2
      vertex 53.9807 35.3921 2
      vertex 54 35 2
    endloop
  endfacet
  facet normal 0 0 1
    outer loop
      vertex 68 48 2
      vertex 53.9231 35.7804 2
      vertex 53.9807 35.3921 2
    endloop
  endfacet
  facet normal 0 0 1
    outer loop
      vertex 68 48 2
      vertex 53.8278 36.1611 2
      vertex 53.9231 35.7804 2
    endloop
  endfacet
  facet normal 0 0 1
    outer loop
      vertex 68 48 2
      vertex 53.6955 36.5307 2
      vertex 53.8278 36.1611 2
    endloop
  endfacet
  facet normal 0 0 1
    outer loop
      vertex 68 48 2
      vertex 53.5277 36.8856 2
      vertex 53.6955 36.5307 2
    endloop
  endfacet
  facet normal 0 0 1
    outer loop
      vertex 68 48 2
      vertex 53.3259 37.2223 2
      vertex 53.5277 36.8856 2
    endloop
  endfacet
  facet normal 0 0 1
    outer loop
      vertex 68 48 2
      vertex 53.092 37.5376 2
      vertex 53.3259 37.2223 2
    endloop
  endfacet
  facet normal 0 0 1
    outer loop
      vertex 68 48 2
      vertex 52.8284 37.8284 2
      vertex 53.092 37.5376 2
    endloop
  endfacet
  facet normal 0 0 1
    outer loop
      vertex 68 48 2
      vertex 52.5376 38.092 2
      vertex 52.8284 37.8284 2
    endloop
  endfacet
  facet normal 0 0 1
    outer loop
      vertex 68 48 2
      vertex 52.2223 38.3259 2
      vertex 52.5376 38.092 2
    endloop
  endfacet
  facet normal 0 0 1
    outer loop
      vertex 68 48 2
      vertex 51.8856 38.5277 2
      vertex 52.2223 38.3259 2
    endloop
  endfacet
  facet normal 0 0 1
    outer loop
      vertex 68 48 2
      vertex 51.5307 38.6955 2
      vertex 51.8856 38.5277 2
    endloop
  endfacet
  facet normal 0 0 1
    outer loop
      vertex 68 48 2
      vertex 51.1611 38.8278 2
      vertex 51.5307 38.6955 2
    endloop
  endfacet
  facet normal 0 0 1
    outer loop
      vertex 68 48 2
      vertex 50.7804 38.9231 2
      vertex 51.1611 38.8278 2
    endloop
  endfacet
  facet normal 0 0 1
    outer loop
      vertex 68 48 2
      vertex 50.3921 38.9807 2
      vertex 50.7804 38.9231 2
    endloop
  endfacet
  facet normal 0 0 1
    outer loop
      vertex 68 48 2
      vertex 50 39 2
      vertex 50.3921 38.9807 2
    endloop
  endfacet
  facet normal 0 0 1
    outer loop
      vertex 68 48 2
      vertex 49.6079 38.9807 2
      vertex 50 39 2
    endloop
  endfacet
  facet normal 0 0 1
    outer loop
      vertex 68 48 2
      vertex 49.2196 38.9231 2
      vertex 49.6079 38.9807 2
    endloop
  endfacet
  facet normal 0 0 1
    outer loop
      vertex 68 48 2
      vertex 48.8389 38.8278 2
      vertex 49.2196 38.9231 2
    endloop
  endfacet
  facet normal -0 0 1
    outer loop
      vertex 2 48 2
      vertex 48.8389 38.8278 2
      vertex 68 48 2
    endloop
  endfacet
  facet normal 0 0 1
    outer loop
      vertex 48.8389 38.8278 2
      vertex 2 48 2
      vertex 48.4693 38.6955 2
    endloop
  endfacet
  facet normal 0 0 1
    outer loop
      vertex 46.0769 15.7804 2
      vertex 28 8 2
      vertex 46.0193 15.3921 2
    endloop
  endfacet
  facet normal 0 0 1
    outer loop
      vertex 46.0193 35.3921 2
      vertex 28 28 2
      vertex 46 35 2
    endloop
  endfacet
  facet normal 0 0 1
    outer loop
      vertex 46.0769 35.7804 2
      vertex 28 28 2
      vertex 46.0193 35.3921 2
    endloop
  endfacet
  facet normal 0 0 1
    outer loop
      vertex 46.1722 36.1611 2
      vertex 28 28 2
      vertex 46.0769 35.7804 2
    endloop
  endfacet
  facet normal 0 0 1
    outer loop
      vertex 46.3045 36.5307 2
      vertex 28 28 2
      vertex 46.1722 36.1611 2
    endloop
  endfacet
  facet normal 0 0 1
    outer loop
      vertex 46.4723 36.8856 2
      vertex 28 28 2
      vertex 46.3045 36.5307 2
    endloop
  endfacet
  facet normal 0 0 1
    outer loop
      vertex 46.6741 37.2223 2
      vertex 28 28 2
      vertex 46.4723 36.8856 2
    endloop
  endfacet
  facet normal 0 0 1
    outer loop
      vertex 46.908 37.5376 2
      vertex 28 28 2
      vertex 46.6741 37.2223 2
    endloop
  endfacet
  facet normal 0 0 1
    outer loop
      vertex 2 48 2
      vertex 46.908 37.5376 2
      vertex 47.1716 37.8284 2
    endloop
  endfacet
  facet normal 0 0 1
    outer loop
      vertex 2 48 2
      vertex 47.1716 37.8284 2
      vertex 47.4624 38.092 2
    endloop
  endfacet
  facet normal 0 0 1
    outer loop
      vertex 2 48 2
      vertex 47.4624 38.092 2
      vertex 47.7777 38.3259 2
    endloop
  endfacet
  facet normal 0 0 1
    outer loop
      vertex 2 48 2
      vertex 47.7777 38.3259 2
      vertex 48.1144 38.5277 2
    endloop
  endfacet
  facet normal 0 0 1
    outer loop
      vertex 46.908 37.5376 2
      vertex 2 48 2
      vertex 28 28 2
    endloop
  endfacet
  facet normal 0 0 1
    outer loop
      vertex 48.4693 38.6955 2
      vertex 2 48 2
      vertex 48.1144 38.5277 2
    endloop
  endfacet
  facet normal 0 0 1
    outer loop
      vertex 2 2 2
      vertex 8 28 2
      vertex 2 48 2
    endloop
  endfacet
  facet normal 0 0 1
    outer loop
      vertex 28 28 2
      vertex 2 48 2
      vertex 8 28 2
    endloop
  endfacet
  facet normal 0 0 1
    outer loop
      vertex 53.9231 34.2196 2
      vertex 68 48 2
      vertex 53.9807 34.6079 2
    endloop
  endfacet
  facet normal -0 0 1
    outer loop
      vertex 53.9807 14.6079 2
      vertex 68 2 2
      vertex 54 15 2
    endloop
  endfacet
  facet normal -0 0 1
    outer loop
      vertex 53.9231 14.2196 2
      vertex 68 2 2
      vertex 53.9807 14.6079 2
    endloop
  endfacet
  facet normal -0 0 1
    outer loop
      vertex 53.8278 13.8389 2
      vertex 68 2 2
      vertex 53.9231 14.2196 2
    endloop
  endfacet
  facet normal -0 0 1
    outer loop
      vertex 53.6955 13.4693 2
      vertex 68 2 2
      vertex 53.8278 13.8389 2
    endloop
  endfacet
  facet normal -0 0 1
    outer loop
      vertex 53.5277 13.1144 2
      vertex 68 2 2
      vertex 53.6955 13.4693 2
    endloop
  endfacet
  facet normal -0 0 1
    outer loop
      vertex 53.3259 12.7777 2
      vertex 68 2 2
      vertex 53.5277 13.1144 2
    endloop
  endfacet
  facet normal -0 0 1
    outer loop
      vertex 53.092 12.4624 2
      vertex 68 2 2
      vertex 53.3259 12.7777 2
    endloop
  endfacet
  facet normal -0 0 1
    outer loop
      vertex 52.8284 12.1716 2
      vertex 68 2 2
      vertex 53.092 12.4624 2
    endloop
  endfacet
  facet normal -0 0 1
    outer loop
      vertex 52.5376 11.908 2
      vertex 68 2 2
      vertex 52.8284 12.1716 2
    endloop
  endfacet
  facet normal -0 0 1
    outer loop
      vertex 52.2223 11.6741 2
      vertex 68 2 2
      vertex 52.5376 11.908 2
    endloop
  endfacet
  facet normal -0 0 1
    outer loop
      vertex 51.8856 11.4723 2
      vertex 68 2 2
      vertex 52.2223 11.6741 2
    endloop
  endfacet
  facet normal -0 0 1
    outer loop
      vertex 51.5307 11.3045 2
      vertex 68 2 2
      vertex 51.8856 11.4723 2
    endloop
  endfacet
  facet normal -0 0 1
    outer loop
      vertex 51.1611 11.1722 2
      vertex 68 2 2
      vertex 51.5307 11.3045 2
    endloop
  endfacet
  facet normal -0 0 1
    outer loop
      vertex 50.7804 11.0769 2
      vertex 68 2 2
      vertex 51.1611 11.1722 2
    endloop
  endfacet
  facet normal -0 0 1
    outer loop
      vertex 50.3921 11.0193 2
      vertex 68 2 2
      vertex 50.7804 11.0769 2
    endloop
  endfacet
  facet normal -0 0 1
    outer loop
      vertex 50 11 2
      vertex 68 2 2
      vertex 50.3921 11.0193 2
    endloop
  endfacet
  facet normal 0 0 1
    outer loop
      vertex 49.6079 11.0193 2
      vertex 68 2 2
      vertex 50 11 2
    endloop
  endfacet
  facet normal 0 0 1
    outer loop
      vertex 49.2196 11.0769 2
      vertex 68 2 2
      vertex 49.6079 11.0193 2
    endloop
  endfacet
  facet normal 0 0 1
    outer loop
      vertex 28 8 2
      vertex 49.2196 11.0769 2
      vertex 48.8389 11.1722 2
    endloop
  endfacet
  facet normal 0 0 1
    outer loop
      vertex 28 8 2
      vertex 48.8389 11.1722 2
      vertex 48.4693 11.3045 2
    endloop
  endfacet
  facet normal 0 0 1
    outer loop
      vertex 28 8 2
      vertex 48.4693 11.3045 2
      vertex 48.1144 11.4723 2
    endloop
  endfacet
  facet normal 0 0 1
    outer loop
      vertex 46.0193 15.3921 2
      vertex 28 8 2
      vertex 46 15 2
    endloop
  endfacet
  facet normal 0 0 1
    outer loop
      vertex 46 15 2
      vertex 28 8 2
      vertex 46.0193 14.6079 2
    endloop
  endfacet
  facet normal 0 0 1
    outer loop
      vertex 46.0193 14.6079 2
      vertex 28 8 2
      vertex 46.0769 14.2196 2
    endloop
  endfacet
  facet normal 0 0 1
    outer loop
      vertex 46.0769 14.2196 2
      vertex 28 8 2
      vertex 46.1722 13.8389 2
    endloop
  endfacet
  facet normal 0 0 1
    outer loop
      vertex 46.1722 13.8389 2
      vertex 28 8 2
      vertex 46.3045 13.4693 2
    endloop
  endfacet
  facet normal 0 0 1
    outer loop
      vertex 46.3045 13.4693 2
      vertex 28 8 2
      vertex 46.4723 13.1144 2
    endloop
  endfacet
  facet normal 0 0 1
    outer loop
      vertex 46.4723 13.1144 2
      vertex 28 8 2
      vertex 46.6741 12.7777 2
    endloop
  endfacet
  facet normal 0 0 1
    outer loop
      vertex 46.6741 12.7777 2
      vertex 28 8 2
      vertex 46.908 12.4624 2
    endloop
  endfacet
  facet normal 0 0 1
    outer loop
      vertex 46.908 12.4624 2
      vertex 28 8 2
      vertex 47.1716 12.1716 2
    endloop
  endfacet
  facet normal 0 0 1
    outer loop
      vertex 47.1716 12.1716 2
      vertex 28 8 2
      vertex 47.4624 11.908 2
    endloop
  endfacet
  facet normal 0 0 1
    outer loop
      vertex 28 8 2
      vertex 47.7777 11.6741 2
      vertex 47.4624 11.908 2
    endloop
  endfacet
  facet normal 0 0 1
    outer loop
      vertex 28 8 2
      vertex 48.1144 11.4723 2
      vertex 47.7777 11.6741 2
    endloop
  endfacet
  facet normal 0 0 1
    outer loop
      vertex 49.2196 11.0769 2
      vertex 28 8 2
      vertex 68 2 2
    endloop
  endfacet
  facet normal 0 0 1
    outer loop
      vertex 2 2 2
      vertex 28 8 2
      vertex 8 8 2
    endloop
  endfacet
  facet normal 0 0 1
    outer loop
      vertex 28 8 2
      vertex 2 2 2
      vertex 68 2 2
    endloop
  endfacet
  facet normal 0 0 1
    outer loop
      vertex 8 28 2
      vertex 2 2 2
      vertex 8 8 2
    endloop
  endfacet
  facet normal 1 0 0
    outer loop
      vertex 2 22 12
      vertex 2 2 12
      vertex 2 22 8
    endloop
  endfacet
  facet normal 1 0 0
    outer loop
      vertex 2 28 8
      vertex 2 48 12
      vertex 2 28 12
    endloop
  endfacet
  facet normal 1 0 0
    outer loop
      vertex 2 48 12
      vertex 2 28 8
      vertex 2 48 2
    endloop
  endfacet
  facet normal 1 -0 0
    outer loop
      vertex 2 22 8
      vertex 2 48 2
      vertex 2 28 8
    endloop
  endfacet
  facet normal 1 0 0
    outer loop
      vertex 2 2 2
      vertex 2 22 8
      vertex 2 2 12
    endloop
  endfacet
  facet normal 1 0 0
    outer loop
      vertex 2 22 8
      vertex 2 2 2
      vertex 2 48 2
    endloop
  endfacet
  facet normal 0 -1 0
    outer loop
      vertex 2 48 2
      vertex 68 48 12
      vertex 2 48 12
    endloop
  endfacet
  facet normal 0 -1 -0
    outer loop
      vertex 68 48 12
      vertex 2 48 2
      vertex 68 48 2
    endloop
  endfacet
  facet normal 0 1 -0
    outer loop
      vertex 68 2 2
      vertex 2 2 12
      vertex 68 2 12
    endloop
  endfacet
  facet normal 0 1 0
    outer loop
      vertex 2 2 12
      vertex 68 2 2
      vertex 2 2 2
    endloop
  endfacet
  facet normal -1 0 0
    outer loop
      vertex 28 8 1
      vertex 28 28 2
      vertex 28 28 1
    endloop
  endfacet
  facet normal -1 -0 0
    outer loop
      vertex 28 28 2
      vertex 28 8 1
      vertex 28 8 2
    endloop
  endfacet
  facet normal -0 0 1
    outer loop
      vertex 8 28 1
      vertex 28 8 1
      vertex 28 28 1
    endloop
  endfacet
  facet normal 0 0 1
    outer loop
      vertex 28 8 1
      vertex 8 28 1
      vertex 8 8 1
    endloop
  endfacet
  facet normal 1 -0 0
    outer loop
      vertex 8 8 2
      vertex 8 28 1
      vertex 8 28 2
    endloop
  endfacet
  facet normal 1 0 0
    outer loop
      vertex 8 28 1
      vertex 8 8 2
      vertex 8 8 1
    endloop
  endfacet
  facet normal 0 -1 0
    outer loop
      vertex 8 28 1
      vertex 28 28 2
      vertex 8 28 2
    endloop
  endfacet
  facet normal 0 -1 -0
    outer loop
      vertex 28 28 2
      vertex 8 28 1
      vertex 28 28 1
    endloop
  endfacet
  facet normal 0 1 -0
    outer loop
      vertex 28 8 1
      vertex 8 8 2
      vertex 28 8 2
    endloop
  endfacet
  facet normal 0 1 0
    outer loop
      vertex 8 8 2
      vertex 28 8 1
      vertex 8 8 1
    endloop
  endfacet
  facet normal -0.989176 -0.146733 0
    outer loop
      vertex 53.9807 15.3921 0
      vertex 53.9231 15.7804 2
      vertex 53.9231 15.7804 0
    endloop
  endfacet
  facet normal -0.989176 -0.146733 0
    outer loop
      vertex 53.9231 15.7804 2
      vertex 53.9807 15.3921 0
      vertex 53.9807 15.3921 2
    endloop
  endfacet
  facet normal -0.998791 -0.0491626 0
    outer loop
      vertex 54 15 0
      vertex 53.9807 15.3921 2
      vertex 53.9807 15.3921 0
    endloop
  endfacet
  facet normal -0.998791 -0.0491626 0
    outer loop
      vertex 53.9807 15.3921 2
      vertex 54 15 0
      vertex 54 15 2
    endloop
  endfacet
  facet normal -0.970068 -0.242835 0
    outer loop
      vertex 53.9231 15.7804 0
      vertex 53.8278 16.1611 2
      vertex 53.8278 16.1611 0
    endloop
  endfacet
  facet normal -0.970068 -0.242835 0
    outer loop
      vertex 53.8278 16.1611 2
      vertex 53.9231 15.7804 0
      vertex 53.9231 15.7804 2
    endloop
  endfacet
  facet normal 0.671607 0.740908 -0
    outer loop
      vertex 47.4624 11.908 0
      vertex 47.1716 12.1716 2
      vertex 47.4624 11.908 2
    endloop
  endfacet
  facet normal 0.671607 0.740908 0
    outer loop
      vertex 47.1716 12.1716 2
      vertex 47.4624 11.908 0
      vertex 47.1716 12.1716 0
    endloop
  endfacet
  facet normal -0.9415 -0.337014 0
    outer loop
      vertex 53.8278 16.1611 0
      vertex 53.6955 16.5307 2
      vertex 53.6955 16.5307 0
    endloop
  endfacet
  facet normal -0.9415 -0.337014 0
    outer loop
      vertex 53.6955 16.5307 2
      vertex 53.8278 16.1611 0
      vertex 53.8278 16.1611 2
    endloop
  endfacet
  facet normal -0.337014 -0.9415 0
    outer loop
      vertex 51.1611 18.8278 0
      vertex 51.5307 18.6955 2
      vertex 51.1611 18.8278 2
    endloop
  endfacet
  facet normal -0.337014 -0.9415 -0
    outer loop
      vertex 51.5307 18.6955 2
      vertex 51.1611 18.8278 0
      vertex 51.5307 18.6955 0
    endloop
  endfacet
  facet normal 0.0491626 0.998791 -0
    outer loop
      vertex 50 11 0
      vertex 49.6079 11.0193 2
      vertex 50 11 2
    endloop
  endfacet
  facet normal 0.0491626 0.998791 0
    outer loop
      vertex 49.6079 11.0193 2
      vertex 50 11 0
      vertex 49.6079 11.0193 0
    endloop
  endfacet
  facet normal -0.9415 0.337014 0
    outer loop
      vertex 53.6955 13.4693 0
      vertex 53.8278 13.8389 2
      vertex 53.8278 13.8389 0
    endloop
  endfacet
  facet normal -0.9415 0.337014 0
    outer loop
      vertex 53.8278 13.8389 2
      vertex 53.6955 13.4693 0
      vertex 53.6955 13.4693 2
    endloop
  endfacet
  facet normal 0.42744 -0.904044 0
    outer loop
      vertex 48.1144 18.5277 0
      vertex 48.4693 18.6955 2
      vertex 48.1144 18.5277 2
    endloop
  endfacet
  facet normal 0.42744 -0.904044 0
    outer loop
      vertex 48.4693 18.6955 2
      vertex 48.1144 18.5277 0
      vertex 48.4693 18.6955 0
    endloop
  endfacet
  facet normal -0.671607 -0.740908 0
    outer loop
      vertex 52.5376 18.092 0
      vertex 52.8284 17.8284 2
      vertex 52.5376 18.092 2
    endloop
  endfacet
  facet normal -0.671607 -0.740908 -0
    outer loop
      vertex 52.8284 17.8284 2
      vertex 52.5376 18.092 0
      vertex 52.8284 17.8284 0
    endloop
  endfacet
  facet normal -0.242835 0.970068 0
    outer loop
      vertex 51.1611 11.1722 0
      vertex 50.7804 11.0769 2
      vertex 51.1611 11.1722 2
    endloop
  endfacet
  facet normal -0.242835 0.970068 0
    outer loop
      vertex 50.7804 11.0769 2
      vertex 51.1611 11.1722 0
      vertex 50.7804 11.0769 0
    endloop
  endfacet
  facet normal -0.146733 -0.989176 0
    outer loop
      vertex 50.3921 18.9807 0
      vertex 50.7804 18.9231 2
      vertex 50.3921 18.9807 2
    endloop
  endfacet
  facet normal -0.146733 -0.989176 -0
    outer loop
      vertex 50.7804 18.9231 2
      vertex 50.3921 18.9807 0
      vertex 50.7804 18.9231 0
    endloop
  endfacet
  facet normal 0.970068 -0.242835 0
    outer loop
      vertex 46.0769 15.7804 2
      vertex 46.1722 16.1611 0
      vertex 46.1722 16.1611 2
    endloop
  endfacet
  facet normal 0.970068 -0.242835 0
    outer loop
      vertex 46.1722 16.1611 0
      vertex 46.0769 15.7804 2
      vertex 46.0769 15.7804 0
    endloop
  endfacet
  facet normal 0.904044 0.42744 0
    outer loop
      vertex 46.4723 13.1144 2
      vertex 46.3045 13.4693 0
      vertex 46.3045 13.4693 2
    endloop
  endfacet
  facet normal 0.904044 0.42744 0
    outer loop
      vertex 46.3045 13.4693 0
      vertex 46.4723 13.1144 2
      vertex 46.4723 13.1144 0
    endloop
  endfacet
  facet normal -0.803137 0.595794 0
    outer loop
      vertex 53.092 12.4624 0
      vertex 53.3259 12.7777 2
      vertex 53.3259 12.7777 0
    endloop
  endfacet
  facet normal -0.803137 0.595794 0
    outer loop
      vertex 53.3259 12.7777 2
      vertex 53.092 12.4624 0
      vertex 53.092 12.4624 2
    endloop
  endfacet
  facet normal 0.803137 0.595794 0
    outer loop
      vertex 46.908 12.4624 2
      vertex 46.6741 12.7777 0
      vertex 46.6741 12.7777 2
    endloop
  endfacet
  facet normal 0.803137 0.595794 0
    outer loop
      vertex 46.6741 12.7777 0
      vertex 46.908 12.4624 2
      vertex 46.908 12.4624 0
    endloop
  endfacet
  facet normal -0.989176 0.146733 0
    outer loop
      vertex 53.9231 14.2196 0
      vertex 53.9807 14.6079 2
      vertex 53.9807 14.6079 0
    endloop
  endfacet
  facet normal -0.989176 0.146733 0
    outer loop
      vertex 53.9807 14.6079 2
      vertex 53.9231 14.2196 0
      vertex 53.9231 14.2196 2
    endloop
  endfacet
  facet normal 0.146733 -0.989176 0
    outer loop
      vertex 49.2196 18.9231 0
      vertex 49.6079 18.9807 2
      vertex 49.2196 18.9231 2
    endloop
  endfacet
  facet normal 0.146733 -0.989176 0
    outer loop
      vertex 49.6079 18.9807 2
      vertex 49.2196 18.9231 0
      vertex 49.6079 18.9807 0
    endloop
  endfacet
  facet normal -0.0491626 -0.998791 0
    outer loop
      vertex 50 19 0
      vertex 50.3921 18.9807 2
      vertex 50 19 2
    endloop
  endfacet
  facet normal -0.0491626 -0.998791 -0
    outer loop
      vertex 50.3921 18.9807 2
      vertex 50 19 0
      vertex 50.3921 18.9807 0
    endloop
  endfacet
  facet normal 0.9415 0.337014 0
    outer loop
      vertex 46.3045 13.4693 2
      vertex 46.1722 13.8389 0
      vertex 46.1722 13.8389 2
    endloop
  endfacet
  facet normal 0.9415 0.337014 0
    outer loop
      vertex 46.1722 13.8389 0
      vertex 46.3045 13.4693 2
      vertex 46.3045 13.4693 0
    endloop
  endfacet
  facet normal -0.42744 -0.904044 0
    outer loop
      vertex 51.5307 18.6955 0
      vertex 51.8856 18.5277 2
      vertex 51.5307 18.6955 2
    endloop
  endfacet
  facet normal -0.42744 -0.904044 -0
    outer loop
      vertex 51.8856 18.5277 2
      vertex 51.5307 18.6955 0
      vertex 51.8856 18.5277 0
    endloop
  endfacet
  facet normal 0.85774 0.514084 0
    outer loop
      vertex 46.6741 12.7777 2
      vertex 46.4723 13.1144 0
      vertex 46.4723 13.1144 2
    endloop
  endfacet
  facet normal 0.85774 0.514084 0
    outer loop
      vertex 46.4723 13.1144 0
      vertex 46.6741 12.7777 2
      vertex 46.6741 12.7777 0
    endloop
  endfacet
  facet normal 0.146733 0.989176 -0
    outer loop
      vertex 49.6079 11.0193 0
      vertex 49.2196 11.0769 2
      vertex 49.6079 11.0193 2
    endloop
  endfacet
  facet normal 0.146733 0.989176 0
    outer loop
      vertex 49.2196 11.0769 2
      vertex 49.6079 11.0193 0
      vertex 49.2196 11.0769 0
    endloop
  endfacet
  facet normal -0.671607 0.740908 0
    outer loop
      vertex 52.8284 12.1716 0
      vertex 52.5376 11.908 2
      vertex 52.8284 12.1716 2
    endloop
  endfacet
  facet normal -0.671607 0.740908 0
    outer loop
      vertex 52.5376 11.908 2
      vertex 52.8284 12.1716 0
      vertex 52.5376 11.908 0
    endloop
  endfacet
  facet normal 0.337014 -0.9415 0
    outer loop
      vertex 48.4693 18.6955 0
      vertex 48.8389 18.8278 2
      vertex 48.4693 18.6955 2
    endloop
  endfacet
  facet normal 0.337014 -0.9415 0
    outer loop
      vertex 48.8389 18.8278 2
      vertex 48.4693 18.6955 0
      vertex 48.8389 18.8278 0
    endloop
  endfacet
  facet normal -0.970068 0.242835 0
    outer loop
      vertex 53.8278 13.8389 0
      vertex 53.9231 14.2196 2
      vertex 53.9231 14.2196 0
    endloop
  endfacet
  facet normal -0.970068 0.242835 0
    outer loop
      vertex 53.9231 14.2196 2
      vertex 53.8278 13.8389 0
      vertex 53.8278 13.8389 2
    endloop
  endfacet
  facet normal 0.671607 -0.740908 0
    outer loop
      vertex 47.1716 17.8284 0
      vertex 47.4624 18.092 2
      vertex 47.1716 17.8284 2
    endloop
  endfacet
  facet normal 0.671607 -0.740908 0
    outer loop
      vertex 47.4624 18.092 2
      vertex 47.1716 17.8284 0
      vertex 47.4624 18.092 0
    endloop
  endfacet
  facet normal 0.595794 0.803137 -0
    outer loop
      vertex 47.7777 11.6741 0
      vertex 47.4624 11.908 2
      vertex 47.7777 11.6741 2
    endloop
  endfacet
  facet normal 0.595794 0.803137 0
    outer loop
      vertex 47.4624 11.908 2
      vertex 47.7777 11.6741 0
      vertex 47.4624 11.908 0
    endloop
  endfacet
  facet normal -0.803137 -0.595794 0
    outer loop
      vertex 53.3259 17.2223 0
      vertex 53.092 17.5376 2
      vertex 53.092 17.5376 0
    endloop
  endfacet
  facet normal -0.803137 -0.595794 0
    outer loop
      vertex 53.092 17.5376 2
      vertex 53.3259 17.2223 0
      vertex 53.3259 17.2223 2
    endloop
  endfacet
  facet normal 0.85774 -0.514084 0
    outer loop
      vertex 46.4723 16.8856 2
      vertex 46.6741 17.2223 0
      vertex 46.6741 17.2223 2
    endloop
  endfacet
  facet normal 0.85774 -0.514084 0
    outer loop
      vertex 46.6741 17.2223 0
      vertex 46.4723 16.8856 2
      vertex 46.4723 16.8856 0
    endloop
  endfacet
  facet normal -0.998791 0.0491626 0
    outer loop
      vertex 53.9807 14.6079 0
      vertex 54 15 2
      vertex 54 15 0
    endloop
  endfacet
  facet normal -0.998791 0.0491626 0
    outer loop
      vertex 54 15 2
      vertex 53.9807 14.6079 0
      vertex 53.9807 14.6079 2
    endloop
  endfacet
  facet normal -0.337014 0.9415 0
    outer loop
      vertex 51.5307 11.3045 0
      vertex 51.1611 11.1722 2
      vertex 51.5307 11.3045 2
    endloop
  endfacet
  facet normal -0.337014 0.9415 0
    outer loop
      vertex 51.1611 11.1722 2
      vertex 51.5307 11.3045 0
      vertex 51.1611 11.1722 0
    endloop
  endfacet
  facet normal 0.9415 -0.337014 0
    outer loop
      vertex 46.1722 16.1611 2
      vertex 46.3045 16.5307 0
      vertex 46.3045 16.5307 2
    endloop
  endfacet
  facet normal 0.9415 -0.337014 0
    outer loop
      vertex 46.3045 16.5307 0
      vertex 46.1722 16.1611 2
      vertex 46.1722 16.1611 0
    endloop
  endfacet
  facet normal -0.595794 -0.803137 0
    outer loop
      vertex 52.2223 18.3259 0
      vertex 52.5376 18.092 2
      vertex 52.2223 18.3259 2
    endloop
  endfacet
  facet normal -0.595794 -0.803137 -0
    outer loop
      vertex 52.5376 18.092 2
      vertex 52.2223 18.3259 0
      vertex 52.5376 18.092 0
    endloop
  endfacet
  facet normal -0.514084 -0.85774 0
    outer loop
      vertex 51.8856 18.5277 0
      vertex 52.2223 18.3259 2
      vertex 51.8856 18.5277 2
    endloop
  endfacet
  facet normal -0.514084 -0.85774 -0
    outer loop
      vertex 52.2223 18.3259 2
      vertex 51.8856 18.5277 0
      vertex 52.2223 18.3259 0
    endloop
  endfacet
  facet normal -0.146733 0.989176 0
    outer loop
      vertex 50.7804 11.0769 0
      vertex 50.3921 11.0193 2
      vertex 50.7804 11.0769 2
    endloop
  endfacet
  facet normal -0.146733 0.989176 0
    outer loop
      vertex 50.3921 11.0193 2
      vertex 50.7804 11.0769 0
      vertex 50.3921 11.0193 0
    endloop
  endfacet
  facet normal -0.85774 0.514084 0
    outer loop
      vertex 53.3259 12.7777 0
      vertex 53.5277 13.1144 2
      vertex 53.5277 13.1144 0
    endloop
  endfacet
  facet normal -0.85774 0.514084 0
    outer loop
      vertex 53.5277 13.1144 2
      vertex 53.3259 12.7777 0
      vertex 53.3259 12.7777 2
    endloop
  endfacet
  facet normal 0.998791 0.0491626 0
    outer loop
      vertex 46.0193 14.6079 2
      vertex 46 15 0
      vertex 46 15 2
    endloop
  endfacet
  facet normal 0.998791 0.0491626 0
    outer loop
      vertex 46 15 0
      vertex 46.0193 14.6079 2
      vertex 46.0193 14.6079 0
    endloop
  endfacet
  facet normal -0.242835 -0.970068 0
    outer loop
      vertex 50.7804 18.9231 0
      vertex 51.1611 18.8278 2
      vertex 50.7804 18.9231 2
    endloop
  endfacet
  facet normal -0.242835 -0.970068 -0
    outer loop
      vertex 51.1611 18.8278 2
      vertex 50.7804 18.9231 0
      vertex 51.1611 18.8278 0
    endloop
  endfacet
  facet normal 0.998791 -0.0491626 0
    outer loop
      vertex 46 15 2
      vertex 46.0193 15.3921 0
      vertex 46.0193 15.3921 2
    endloop
  endfacet
  facet normal 0.998791 -0.0491626 0
    outer loop
      vertex 46.0193 15.3921 0
      vertex 46 15 2
      vertex 46 15 0
    endloop
  endfacet
  facet normal 0.514084 -0.85774 0
    outer loop
      vertex 47.7777 18.3259 0
      vertex 48.1144 18.5277 2
      vertex 47.7777 18.3259 2
    endloop
  endfacet
  facet normal 0.514084 -0.85774 0
    outer loop
      vertex 48.1144 18.5277 2
      vertex 47.7777 18.3259 0
      vertex 48.1144 18.5277 0
    endloop
  endfacet
  facet normal 0.242835 0.970068 -0
    outer loop
      vertex 49.2196 11.0769 0
      vertex 48.8389 11.1722 2
      vertex 49.2196 11.0769 2
    endloop
  endfacet
  facet normal 0.242835 0.970068 0
    outer loop
      vertex 48.8389 11.1722 2
      vertex 49.2196 11.0769 0
      vertex 48.8389 11.1722 0
    endloop
  endfacet
  facet normal -0.904044 -0.42744 0
    outer loop
      vertex 53.6955 16.5307 0
      vertex 53.5277 16.8856 2
      vertex 53.5277 16.8856 0
    endloop
  endfacet
  facet normal -0.904044 -0.42744 0
    outer loop
      vertex 53.5277 16.8856 2
      vertex 53.6955 16.5307 0
      vertex 53.6955 16.5307 2
    endloop
  endfacet
  facet normal -0.85774 -0.514084 0
    outer loop
      vertex 53.5277 16.8856 0
      vertex 53.3259 17.2223 2
      vertex 53.3259 17.2223 0
    endloop
  endfacet
  facet normal -0.85774 -0.514084 0
    outer loop
      vertex 53.3259 17.2223 2
      vertex 53.5277 16.8856 0
      vertex 53.5277 16.8856 2
    endloop
  endfacet
  facet normal 0.740908 -0.671607 0
    outer loop
      vertex 46.908 17.5376 2
      vertex 47.1716 17.8284 0
      vertex 47.1716 17.8284 2
    endloop
  endfacet
  facet normal 0.740908 -0.671607 0
    outer loop
      vertex 47.1716 17.8284 0
      vertex 46.908 17.5376 2
      vertex 46.908 17.5376 0
    endloop
  endfacet
  facet normal 0.989176 0.146733 0
    outer loop
      vertex 46.0769 14.2196 2
      vertex 46.0193 14.6079 0
      vertex 46.0193 14.6079 2
    endloop
  endfacet
  facet normal 0.989176 0.146733 0
    outer loop
      vertex 46.0193 14.6079 0
      vertex 46.0769 14.2196 2
      vertex 46.0769 14.2196 0
    endloop
  endfacet
  facet normal 0.740908 0.671607 0
    outer loop
      vertex 47.1716 12.1716 2
      vertex 46.908 12.4624 0
      vertex 46.908 12.4624 2
    endloop
  endfacet
  facet normal 0.740908 0.671607 0
    outer loop
      vertex 46.908 12.4624 0
      vertex 47.1716 12.1716 2
      vertex 47.1716 12.1716 0
    endloop
  endfacet
  facet normal 0.0491626 -0.998791 0
    outer loop
      vertex 49.6079 18.9807 0
      vertex 50 19 2
      vertex 49.6079 18.9807 2
    endloop
  endfacet
  facet normal 0.0491626 -0.998791 0
    outer loop
      vertex 50 19 2
      vertex 49.6079 18.9807 0
      vertex 50 19 0
    endloop
  endfacet
  facet normal 0.242835 -0.970068 0
    outer loop
      vertex 48.8389 18.8278 0
      vertex 49.2196 18.9231 2
      vertex 48.8389 18.8278 2
    endloop
  endfacet
  facet normal 0.242835 -0.970068 0
    outer loop
      vertex 49.2196 18.9231 2
      vertex 48.8389 18.8278 0
      vertex 49.2196 18.9231 0
    endloop
  endfacet
  facet normal 0.514084 0.85774 -0
    outer loop
      vertex 48.1144 11.4723 0
      vertex 47.7777 11.6741 2
      vertex 48.1144 11.4723 2
    endloop
  endfacet
  facet normal 0.514084 0.85774 0
    outer loop
      vertex 47.7777 11.6741 2
      vertex 48.1144 11.4723 0
      vertex 47.7777 11.6741 0
    endloop
  endfacet
  facet normal 0.904044 -0.42744 0
    outer loop
      vertex 46.3045 16.5307 2
      vertex 46.4723 16.8856 0
      vertex 46.4723 16.8856 2
    endloop
  endfacet
  facet normal 0.904044 -0.42744 0
    outer loop
      vertex 46.4723 16.8856 0
      vertex 46.3045 16.5307 2
      vertex 46.3045 16.5307 0
    endloop
  endfacet
  facet normal -0.42744 0.904044 0
    outer loop
      vertex 51.8856 11.4723 0
      vertex 51.5307 11.3045 2
      vertex 51.8856 11.4723 2
    endloop
  endfacet
  facet normal -0.42744 0.904044 0
    outer loop
      vertex 51.5307 11.3045 2
      vertex 51.8856 11.4723 0
      vertex 51.5307 11.3045 0
    endloop
  endfacet
  facet normal -0.595794 0.803137 0
    outer loop
      vertex 52.5376 11.908 0
      vertex 52.2223 11.6741 2
      vertex 52.5376 11.908 2
    endloop
  endfacet
  facet normal -0.595794 0.803137 0
    outer loop
      vertex 52.2223 11.6741 2
      vertex 52.5376 11.908 0
      vertex 52.2223 11.6741 0
    endloop
  endfacet
  facet normal 0.970068 0.242835 0
    outer loop
      vertex 46.1722 13.8389 2
      vertex 46.0769 14.2196 0
      vertex 46.0769 14.2196 2
    endloop
  endfacet
  facet normal 0.970068 0.242835 0
    outer loop
      vertex 46.0769 14.2196 0
      vertex 46.1722 13.8389 2
      vertex 46.1722 13.8389 0
    endloop
  endfacet
  facet normal -0.740908 -0.671607 0
    outer loop
      vertex 53.092 17.5376 0
      vertex 52.8284 17.8284 2
      vertex 52.8284 17.8284 0
    endloop
  endfacet
  facet normal -0.740908 -0.671607 0
    outer loop
      vertex 52.8284 17.8284 2
      vertex 53.092 17.5376 0
      vertex 53.092 17.5376 2
    endloop
  endfacet
  facet normal -0.514084 0.85774 0
    outer loop
      vertex 52.2223 11.6741 0
      vertex 51.8856 11.4723 2
      vertex 52.2223 11.6741 2
    endloop
  endfacet
  facet normal -0.514084 0.85774 0
    outer loop
      vertex 51.8856 11.4723 2
      vertex 52.2223 11.6741 0
      vertex 51.8856 11.4723 0
    endloop
  endfacet
  facet normal -0.904044 0.42744 0
    outer loop
      vertex 53.5277 13.1144 0
      vertex 53.6955 13.4693 2
      vertex 53.6955 13.4693 0
    endloop
  endfacet
  facet normal -0.904044 0.42744 0
    outer loop
      vertex 53.6955 13.4693 2
      vertex 53.5277 13.1144 0
      vertex 53.5277 13.1144 2
    endloop
  endfacet
  facet normal 0.803137 -0.595794 0
    outer loop
      vertex 46.6741 17.2223 2
      vertex 46.908 17.5376 0
      vertex 46.908 17.5376 2
    endloop
  endfacet
  facet normal 0.803137 -0.595794 0
    outer loop
      vertex 46.908 17.5376 0
      vertex 46.6741 17.2223 2
      vertex 46.6741 17.2223 0
    endloop
  endfacet
  facet normal -0.0491626 0.998791 0
    outer loop
      vertex 50.3921 11.0193 0
      vertex 50 11 2
      vertex 50.3921 11.0193 2
    endloop
  endfacet
  facet normal -0.0491626 0.998791 0
    outer loop
      vertex 50 11 2
      vertex 50.3921 11.0193 0
      vertex 50 11 0
    endloop
  endfacet
  facet normal 0.595794 -0.803137 0
    outer loop
      vertex 47.4624 18.092 0
      vertex 47.7777 18.3259 2
      vertex 47.4624 18.092 2
    endloop
  endfacet
  facet normal 0.595794 -0.803137 0
    outer loop
      vertex 47.7777 18.3259 2
      vertex 47.4624 18.092 0
      vertex 47.7777 18.3259 0
    endloop
  endfacet
  facet normal -0.740908 0.671607 0
    outer loop
      vertex 52.8284 12.1716 0
      vertex 53.092 12.4624 2
      vertex 53.092 12.4624 0
    endloop
  endfacet
  facet normal -0.740908 0.671607 0
    outer loop
      vertex 53.092 12.4624 2
      vertex 52.8284 12.1716 0
      vertex 52.8284 12.1716 2
    endloop
  endfacet
  facet normal 0.989176 -0.146733 0
    outer loop
      vertex 46.0193 15.3921 2
      vertex 46.0769 15.7804 0
      vertex 46.0769 15.7804 2
    endloop
  endfacet
  facet normal 0.989176 -0.146733 0
    outer loop
      vertex 46.0769 15.7804 0
      vertex 46.0193 15.3921 2
      vertex 46.0193 15.3921 0
    endloop
  endfacet
  facet normal 0.337014 0.9415 -0
    outer loop
      vertex 48.8389 11.1722 0
      vertex 48.4693 11.3045 2
      vertex 48.8389 11.1722 2
    endloop
  endfacet
  facet normal 0.337014 0.9415 0
    outer loop
      vertex 48.4693 11.3045 2
      vertex 48.8389 11.1722 0
      vertex 48.4693 11.3045 0
    endloop
  endfacet
  facet normal 0.42744 0.904044 -0
    outer loop
      vertex 48.4693 11.3045 0
      vertex 48.1144 11.4723 2
      vertex 48.4693 11.3045 2
    endloop
  endfacet
  facet normal 0.42744 0.904044 0
    outer loop
      vertex 48.1144 11.4723 2
      vertex 48.4693 11.3045 0
      vertex 48.1144 11.4723 0
    endloop
  endfacet
  facet normal 0.337014 0.9415 -0
    outer loop
      vertex 48.8389 31.1722 0
      vertex 48.4693 31.3045 2
      vertex 48.8389 31.1722 2
    endloop
  endfacet
  facet normal 0.337014 0.9415 0
    outer loop
      vertex 48.4693 31.3045 2
      vertex 48.8389 31.1722 0
      vertex 48.4693 31.3045 0
    endloop
  endfacet
  facet normal -0.989176 -0.146733 0
    outer loop
      vertex 53.9807 35.3921 0
      vertex 53.9231 35.7804 2
      vertex 53.9231 35.7804 0
    endloop
  endfacet
  facet normal -0.989176 -0.146733 0
    outer loop
      vertex 53.9231 35.7804 2
      vertex 53.9807 35.3921 0
      vertex 53.9807 35.3921 2
    endloop
  endfacet
  facet normal -0.998791 -0.0491626 0
    outer loop
      vertex 54 35 0
      vertex 53.9807 35.3921 2
      vertex 53.9807 35.3921 0
    endloop
  endfacet
  facet normal -0.998791 -0.0491626 0
    outer loop
      vertex 53.9807 35.3921 2
      vertex 54 35 0
      vertex 54 35 2
    endloop
  endfacet
  facet normal -0.970068 -0.242835 0
    outer loop
      vertex 53.9231 35.7804 0
      vertex 53.8278 36.1611 2
      vertex 53.8278 36.1611 0
    endloop
  endfacet
  facet normal -0.970068 -0.242835 0
    outer loop
      vertex 53.8278 36.1611 2
      vertex 53.9231 35.7804 0
      vertex 53.9231 35.7804 2
    endloop
  endfacet
  facet normal 0.989176 -0.146733 0
    outer loop
      vertex 46.0193 35.3921 2
      vertex 46.0769 35.7804 0
      vertex 46.0769 35.7804 2
    endloop
  endfacet
  facet normal 0.989176 -0.146733 0
    outer loop
      vertex 46.0769 35.7804 0
      vertex 46.0193 35.3921 2
      vertex 46.0193 35.3921 0
    endloop
  endfacet
  facet normal 0.242835 0.970068 -0
    outer loop
      vertex 49.2196 31.0769 0
      vertex 48.8389 31.1722 2
      vertex 49.2196 31.0769 2
    endloop
  endfacet
  facet normal 0.242835 0.970068 0
    outer loop
      vertex 48.8389 31.1722 2
      vertex 49.2196 31.0769 0
      vertex 48.8389 31.1722 0
    endloop
  endfacet
  facet normal -0.337014 -0.9415 0
    outer loop
      vertex 51.1611 38.8278 0
      vertex 51.5307 38.6955 2
      vertex 51.1611 38.8278 2
    endloop
  endfacet
  facet normal -0.337014 -0.9415 -0
    outer loop
      vertex 51.5307 38.6955 2
      vertex 51.1611 38.8278 0
      vertex 51.5307 38.6955 0
    endloop
  endfacet
  facet normal 0.514084 -0.85774 0
    outer loop
      vertex 47.7777 38.3259 0
      vertex 48.1144 38.5277 2
      vertex 47.7777 38.3259 2
    endloop
  endfacet
  facet normal 0.514084 -0.85774 0
    outer loop
      vertex 48.1144 38.5277 2
      vertex 47.7777 38.3259 0
      vertex 48.1144 38.5277 0
    endloop
  endfacet
  facet normal 0.904044 0.42744 0
    outer loop
      vertex 46.4723 33.1144 2
      vertex 46.3045 33.4693 0
      vertex 46.3045 33.4693 2
    endloop
  endfacet
  facet normal 0.904044 0.42744 0
    outer loop
      vertex 46.3045 33.4693 0
      vertex 46.4723 33.1144 2
      vertex 46.4723 33.1144 0
    endloop
  endfacet
  facet normal 0.242835 -0.970068 0
    outer loop
      vertex 48.8389 38.8278 0
      vertex 49.2196 38.9231 2
      vertex 48.8389 38.8278 2
    endloop
  endfacet
  facet normal 0.242835 -0.970068 0
    outer loop
      vertex 49.2196 38.9231 2
      vertex 48.8389 38.8278 0
      vertex 49.2196 38.9231 0
    endloop
  endfacet
  facet normal 0.85774 0.514084 0
    outer loop
      vertex 46.6741 32.7777 2
      vertex 46.4723 33.1144 0
      vertex 46.4723 33.1144 2
    endloop
  endfacet
  facet normal 0.85774 0.514084 0
    outer loop
      vertex 46.4723 33.1144 0
      vertex 46.6741 32.7777 2
      vertex 46.6741 32.7777 0
    endloop
  endfacet
  facet normal -0.242835 0.970068 0
    outer loop
      vertex 51.1611 31.1722 0
      vertex 50.7804 31.0769 2
      vertex 51.1611 31.1722 2
    endloop
  endfacet
  facet normal -0.242835 0.970068 0
    outer loop
      vertex 50.7804 31.0769 2
      vertex 51.1611 31.1722 0
      vertex 50.7804 31.0769 0
    endloop
  endfacet
  facet normal 0.595794 0.803137 -0
    outer loop
      vertex 47.7777 31.6741 0
      vertex 47.4624 31.908 2
      vertex 47.7777 31.6741 2
    endloop
  endfacet
  facet normal 0.595794 0.803137 0
    outer loop
      vertex 47.4624 31.908 2
      vertex 47.7777 31.6741 0
      vertex 47.4624 31.908 0
    endloop
  endfacet
  facet normal -0.514084 0.85774 0
    outer loop
      vertex 52.2223 31.6741 0
      vertex 51.8856 31.4723 2
      vertex 52.2223 31.6741 2
    endloop
  endfacet
  facet normal -0.514084 0.85774 0
    outer loop
      vertex 51.8856 31.4723 2
      vertex 52.2223 31.6741 0
      vertex 51.8856 31.4723 0
    endloop
  endfacet
  facet normal -0.803137 0.595794 0
    outer loop
      vertex 53.092 32.4624 0
      vertex 53.3259 32.7777 2
      vertex 53.3259 32.7777 0
    endloop
  endfacet
  facet normal -0.803137 0.595794 0
    outer loop
      vertex 53.3259 32.7777 2
      vertex 53.092 32.4624 0
      vertex 53.092 32.4624 2
    endloop
  endfacet
  facet normal -0.146733 -0.989176 0
    outer loop
      vertex 50.3921 38.9807 0
      vertex 50.7804 38.9231 2
      vertex 50.3921 38.9807 2
    endloop
  endfacet
  facet normal -0.146733 -0.989176 -0
    outer loop
      vertex 50.7804 38.9231 2
      vertex 50.3921 38.9807 0
      vertex 50.7804 38.9231 0
    endloop
  endfacet
  facet normal 0.595794 -0.803137 0
    outer loop
      vertex 47.4624 38.092 0
      vertex 47.7777 38.3259 2
      vertex 47.4624 38.092 2
    endloop
  endfacet
  facet normal 0.595794 -0.803137 0
    outer loop
      vertex 47.7777 38.3259 2
      vertex 47.4624 38.092 0
      vertex 47.7777 38.3259 0
    endloop
  endfacet
  facet normal -0.42744 0.904044 0
    outer loop
      vertex 51.8856 31.4723 0
      vertex 51.5307 31.3045 2
      vertex 51.8856 31.4723 2
    endloop
  endfacet
  facet normal -0.42744 0.904044 0
    outer loop
      vertex 51.5307 31.3045 2
      vertex 51.8856 31.4723 0
      vertex 51.5307 31.3045 0
    endloop
  endfacet
  facet normal 0.803137 -0.595794 0
    outer loop
      vertex 46.6741 37.2223 2
      vertex 46.908 37.5376 0
      vertex 46.908 37.5376 2
    endloop
  endfacet
  facet normal 0.803137 -0.595794 0
    outer loop
      vertex 46.908 37.5376 0
      vertex 46.6741 37.2223 2
      vertex 46.6741 37.2223 0
    endloop
  endfacet
  facet normal -0.989176 0.146733 0
    outer loop
      vertex 53.9231 34.2196 0
      vertex 53.9807 34.6079 2
      vertex 53.9807 34.6079 0
    endloop
  endfacet
  facet normal -0.989176 0.146733 0
    outer loop
      vertex 53.9807 34.6079 2
      vertex 53.9231 34.2196 0
      vertex 53.9231 34.2196 2
    endloop
  endfacet
  facet normal 0.9415 -0.337014 0
    outer loop
      vertex 46.1722 36.1611 2
      vertex 46.3045 36.5307 0
      vertex 46.3045 36.5307 2
    endloop
  endfacet
  facet normal 0.9415 -0.337014 0
    outer loop
      vertex 46.3045 36.5307 0
      vertex 46.1722 36.1611 2
      vertex 46.1722 36.1611 0
    endloop
  endfacet
  facet normal -0.42744 -0.904044 0
    outer loop
      vertex 51.5307 38.6955 0
      vertex 51.8856 38.5277 2
      vertex 51.5307 38.6955 2
    endloop
  endfacet
  facet normal -0.42744 -0.904044 -0
    outer loop
      vertex 51.8856 38.5277 2
      vertex 51.5307 38.6955 0
      vertex 51.8856 38.5277 0
    endloop
  endfacet
  facet normal 0.9415 0.337014 0
    outer loop
      vertex 46.3045 33.4693 2
      vertex 46.1722 33.8389 0
      vertex 46.1722 33.8389 2
    endloop
  endfacet
  facet normal 0.9415 0.337014 0
    outer loop
      vertex 46.1722 33.8389 0
      vertex 46.3045 33.4693 2
      vertex 46.3045 33.4693 0
    endloop
  endfacet
  facet normal -0.970068 0.242835 0
    outer loop
      vertex 53.8278 33.8389 0
      vertex 53.9231 34.2196 2
      vertex 53.9231 34.2196 0
    endloop
  endfacet
  facet normal -0.970068 0.242835 0
    outer loop
      vertex 53.9231 34.2196 2
      vertex 53.8278 33.8389 0
      vertex 53.8278 33.8389 2
    endloop
  endfacet
  facet normal 0.0491626 -0.998791 0
    outer loop
      vertex 49.6079 38.9807 0
      vertex 50 39 2
      vertex 49.6079 38.9807 2
    endloop
  endfacet
  facet normal 0.0491626 -0.998791 0
    outer loop
      vertex 50 39 2
      vertex 49.6079 38.9807 0
      vertex 50 39 0
    endloop
  endfacet
  facet normal -0.671607 -0.740908 0
    outer loop
      vertex 52.5376 38.092 0
      vertex 52.8284 37.8284 2
      vertex 52.5376 38.092 2
    endloop
  endfacet
  facet normal -0.671607 -0.740908 -0
    outer loop
      vertex 52.8284 37.8284 2
      vertex 52.5376 38.092 0
      vertex 52.8284 37.8284 0
    endloop
  endfacet
  facet normal 0.42744 -0.904044 0
    outer loop
      vertex 48.1144 38.5277 0
      vertex 48.4693 38.6955 2
      vertex 48.1144 38.5277 2
    endloop
  endfacet
  facet normal 0.42744 -0.904044 0
    outer loop
      vertex 48.4693 38.6955 2
      vertex 48.1144 38.5277 0
      vertex 48.4693 38.6955 0
    endloop
  endfacet
  facet normal 0.671607 -0.740908 0
    outer loop
      vertex 47.1716 37.8284 0
      vertex 47.4624 38.092 2
      vertex 47.1716 37.8284 2
    endloop
  endfacet
  facet normal 0.671607 -0.740908 0
    outer loop
      vertex 47.4624 38.092 2
      vertex 47.1716 37.8284 0
      vertex 47.4624 38.092 0
    endloop
  endfacet
  facet normal -0.337014 0.9415 0
    outer loop
      vertex 51.5307 31.3045 0
      vertex 51.1611 31.1722 2
      vertex 51.5307 31.3045 2
    endloop
  endfacet
  facet normal -0.337014 0.9415 0
    outer loop
      vertex 51.1611 31.1722 2
      vertex 51.5307 31.3045 0
      vertex 51.1611 31.1722 0
    endloop
  endfacet
  facet normal 0.337014 -0.9415 0
    outer loop
      vertex 48.4693 38.6955 0
      vertex 48.8389 38.8278 2
      vertex 48.4693 38.6955 2
    endloop
  endfacet
  facet normal 0.337014 -0.9415 0
    outer loop
      vertex 48.8389 38.8278 2
      vertex 48.4693 38.6955 0
      vertex 48.8389 38.8278 0
    endloop
  endfacet
  facet normal -0.803137 -0.595794 0
    outer loop
      vertex 53.3259 37.2223 0
      vertex 53.092 37.5376 2
      vertex 53.092 37.5376 0
    endloop
  endfacet
  facet normal -0.803137 -0.595794 0
    outer loop
      vertex 53.092 37.5376 2
      vertex 53.3259 37.2223 0
      vertex 53.3259 37.2223 2
    endloop
  endfacet
  facet normal 0.85774 -0.514084 0
    outer loop
      vertex 46.4723 36.8856 2
      vertex 46.6741 37.2223 0
      vertex 46.6741 37.2223 2
    endloop
  endfacet
  facet normal 0.85774 -0.514084 0
    outer loop
      vertex 46.6741 37.2223 0
      vertex 46.4723 36.8856 2
      vertex 46.4723 36.8856 0
    endloop
  endfacet
  facet normal -0.998791 0.0491626 0
    outer loop
      vertex 53.9807 34.6079 0
      vertex 54 35 2
      vertex 54 35 0
    endloop
  endfacet
  facet normal -0.998791 0.0491626 0
    outer loop
      vertex 54 35 2
      vertex 53.9807 34.6079 0
      vertex 53.9807 34.6079 2
    endloop
  endfacet
  facet normal -0.904044 0.42744 0
    outer loop
      vertex 53.5277 33.1144 0
      vertex 53.6955 33.4693 2
      vertex 53.6955 33.4693 0
    endloop
  endfacet
  facet normal -0.904044 0.42744 0
    outer loop
      vertex 53.6955 33.4693 2
      vertex 53.5277 33.1144 0
      vertex 53.5277 33.1144 2
    endloop
  endfacet
  facet normal -0.85774 -0.514084 0
    outer loop
      vertex 53.5277 36.8856 0
      vertex 53.3259 37.2223 2
      vertex 53.3259 37.2223 0
    endloop
  endfacet
  facet normal -0.85774 -0.514084 0
    outer loop
      vertex 53.3259 37.2223 2
      vertex 53.5277 36.8856 0
      vertex 53.5277 36.8856 2
    endloop
  endfacet
  facet normal 0.671607 0.740908 -0
    outer loop
      vertex 47.4624 31.908 0
      vertex 47.1716 32.1716 2
      vertex 47.4624 31.908 2
    endloop
  endfacet
  facet normal 0.671607 0.740908 0
    outer loop
      vertex 47.1716 32.1716 2
      vertex 47.4624 31.908 0
      vertex 47.1716 32.1716 0
    endloop
  endfacet
  facet normal -0.595794 -0.803137 0
    outer loop
      vertex 52.2223 38.3259 0
      vertex 52.5376 38.092 2
      vertex 52.2223 38.3259 2
    endloop
  endfacet
  facet normal -0.595794 -0.803137 -0
    outer loop
      vertex 52.5376 38.092 2
      vertex 52.2223 38.3259 0
      vertex 52.5376 38.092 0
    endloop
  endfacet
  facet normal 0.514084 0.85774 -0
    outer loop
      vertex 48.1144 31.4723 0
      vertex 47.7777 31.6741 2
      vertex 48.1144 31.4723 2
    endloop
  endfacet
  facet normal 0.514084 0.85774 0
    outer loop
      vertex 47.7777 31.6741 2
      vertex 48.1144 31.4723 0
      vertex 47.7777 31.6741 0
    endloop
  endfacet
  facet normal -0.514084 -0.85774 0
    outer loop
      vertex 51.8856 38.5277 0
      vertex 52.2223 38.3259 2
      vertex 51.8856 38.5277 2
    endloop
  endfacet
  facet normal -0.514084 -0.85774 -0
    outer loop
      vertex 52.2223 38.3259 2
      vertex 51.8856 38.5277 0
      vertex 52.2223 38.3259 0
    endloop
  endfacet
  facet normal -0.146733 0.989176 0
    outer loop
      vertex 50.7804 31.0769 0
      vertex 50.3921 31.0193 2
      vertex 50.7804 31.0769 2
    endloop
  endfacet
  facet normal -0.146733 0.989176 0
    outer loop
      vertex 50.3921 31.0193 2
      vertex 50.7804 31.0769 0
      vertex 50.3921 31.0193 0
    endloop
  endfacet
  facet normal -0.9415 -0.337014 0
    outer loop
      vertex 53.8278 36.1611 0
      vertex 53.6955 36.5307 2
      vertex 53.6955 36.5307 0
    endloop
  endfacet
  facet normal -0.9415 -0.337014 0
    outer loop
      vertex 53.6955 36.5307 2
      vertex 53.8278 36.1611 0
      vertex 53.8278 36.1611 2
    endloop
  endfacet
  facet normal -0.85774 0.514084 0
    outer loop
      vertex 53.3259 32.7777 0
      vertex 53.5277 33.1144 2
      vertex 53.5277 33.1144 0
    endloop
  endfacet
  facet normal -0.85774 0.514084 0
    outer loop
      vertex 53.5277 33.1144 2
      vertex 53.3259 32.7777 0
      vertex 53.3259 32.7777 2
    endloop
  endfacet
  facet normal 0.998791 0.0491626 0
    outer loop
      vertex 46.0193 34.6079 2
      vertex 46 35 0
      vertex 46 35 2
    endloop
  endfacet
  facet normal 0.998791 0.0491626 0
    outer loop
      vertex 46 35 0
      vertex 46.0193 34.6079 2
      vertex 46.0193 34.6079 0
    endloop
  endfacet
  facet normal -0.9415 0.337014 0
    outer loop
      vertex 53.6955 33.4693 0
      vertex 53.8278 33.8389 2
      vertex 53.8278 33.8389 0
    endloop
  endfacet
  facet normal -0.9415 0.337014 0
    outer loop
      vertex 53.8278 33.8389 2
      vertex 53.6955 33.4693 0
      vertex 53.6955 33.4693 2
    endloop
  endfacet
  facet normal 0.146733 -0.989176 0
    outer loop
      vertex 49.2196 38.9231 0
      vertex 49.6079 38.9807 2
      vertex 49.2196 38.9231 2
    endloop
  endfacet
  facet normal 0.146733 -0.989176 0
    outer loop
      vertex 49.6079 38.9807 2
      vertex 49.2196 38.9231 0
      vertex 49.6079 38.9807 0
    endloop
  endfacet
  facet normal -0.740908 -0.671607 0
    outer loop
      vertex 53.092 37.5376 0
      vertex 52.8284 37.8284 2
      vertex 52.8284 37.8284 0
    endloop
  endfacet
  facet normal -0.740908 -0.671607 0
    outer loop
      vertex 52.8284 37.8284 2
      vertex 53.092 37.5376 0
      vertex 53.092 37.5376 2
    endloop
  endfacet
  facet normal -0.0491626 -0.998791 0
    outer loop
      vertex 50 39 0
      vertex 50.3921 38.9807 2
      vertex 50 39 2
    endloop
  endfacet
  facet normal -0.0491626 -0.998791 -0
    outer loop
      vertex 50.3921 38.9807 2
      vertex 50 39 0
      vertex 50.3921 38.9807 0
    endloop
  endfacet
  facet normal -0.904044 -0.42744 0
    outer loop
      vertex 53.6955 36.5307 0
      vertex 53.5277 36.8856 2
      vertex 53.5277 36.8856 0
    endloop
  endfacet
  facet normal -0.904044 -0.42744 0
    outer loop
      vertex 53.5277 36.8856 2
      vertex 53.6955 36.5307 0
      vertex 53.6955 36.5307 2
    endloop
  endfacet
  facet normal 0.146733 0.989176 -0
    outer loop
      vertex 49.6079 31.0193 0
      vertex 49.2196 31.0769 2
      vertex 49.6079 31.0193 2
    endloop
  endfacet
  facet normal 0.146733 0.989176 0
    outer loop
      vertex 49.2196 31.0769 2
      vertex 49.6079 31.0193 0
      vertex 49.2196 31.0769 0
    endloop
  endfacet
  facet normal -0.671607 0.740908 0
    outer loop
      vertex 52.8284 32.1716 0
      vertex 52.5376 31.908 2
      vertex 52.8284 32.1716 2
    endloop
  endfacet
  facet normal -0.671607 0.740908 0
    outer loop
      vertex 52.5376 31.908 2
      vertex 52.8284 32.1716 0
      vertex 52.5376 31.908 0
    endloop
  endfacet
  facet normal 0.0491626 0.998791 -0
    outer loop
      vertex 50 31 0
      vertex 49.6079 31.0193 2
      vertex 50 31 2
    endloop
  endfacet
  facet normal 0.0491626 0.998791 0
    outer loop
      vertex 49.6079 31.0193 2
      vertex 50 31 0
      vertex 49.6079 31.0193 0
    endloop
  endfacet
  facet normal 0.740908 -0.671607 0
    outer loop
      vertex 46.908 37.5376 2
      vertex 47.1716 37.8284 0
      vertex 47.1716 37.8284 2
    endloop
  endfacet
  facet normal 0.740908 -0.671607 0
    outer loop
      vertex 47.1716 37.8284 0
      vertex 46.908 37.5376 2
      vertex 46.908 37.5376 0
    endloop
  endfacet
  facet normal 0.904044 -0.42744 0
    outer loop
      vertex 46.3045 36.5307 2
      vertex 46.4723 36.8856 0
      vertex 46.4723 36.8856 2
    endloop
  endfacet
  facet normal 0.904044 -0.42744 0
    outer loop
      vertex 46.4723 36.8856 0
      vertex 46.3045 36.5307 2
      vertex 46.3045 36.5307 0
    endloop
  endfacet
  facet normal 0.970068 -0.242835 0
    outer loop
      vertex 46.0769 35.7804 2
      vertex 46.1722 36.1611 0
      vertex 46.1722 36.1611 2
    endloop
  endfacet
  facet normal 0.970068 -0.242835 0
    outer loop
      vertex 46.1722 36.1611 0
      vertex 46.0769 35.7804 2
      vertex 46.0769 35.7804 0
    endloop
  endfacet
  facet normal -0.242835 -0.970068 0
    outer loop
      vertex 50.7804 38.9231 0
      vertex 51.1611 38.8278 2
      vertex 50.7804 38.9231 2
    endloop
  endfacet
  facet normal -0.242835 -0.970068 -0
    outer loop
      vertex 51.1611 38.8278 2
      vertex 50.7804 38.9231 0
      vertex 51.1611 38.8278 0
    endloop
  endfacet
  facet normal 0.970068 0.242835 0
    outer loop
      vertex 46.1722 33.8389 2
      vertex 46.0769 34.2196 0
      vertex 46.0769 34.2196 2
    endloop
  endfacet
  facet normal 0.970068 0.242835 0
    outer loop
      vertex 46.0769 34.2196 0
      vertex 46.1722 33.8389 2
      vertex 46.1722 33.8389 0
    endloop
  endfacet
  facet normal 0.42744 0.904044 -0
    outer loop
      vertex 48.4693 31.3045 0
      vertex 48.1144 31.4723 2
      vertex 48.4693 31.3045 2
    endloop
  endfacet
  facet normal 0.42744 0.904044 0
    outer loop
      vertex 48.1144 31.4723 2
      vertex 48.4693 31.3045 0
      vertex 48.1144 31.4723 0
    endloop
  endfacet
  facet normal 0.740908 0.671607 0
    outer loop
      vertex 47.1716 32.1716 2
      vertex 46.908 32.4624 0
      vertex 46.908 32.4624 2
    endloop
  endfacet
  facet normal 0.740908 0.671607 0
    outer loop
      vertex 46.908 32.4624 0
      vertex 47.1716 32.1716 2
      vertex 47.1716 32.1716 0
    endloop
  endfacet
  facet normal -0.0491626 0.998791 0
    outer loop
      vertex 50.3921 31.0193 0
      vertex 50 31 2
      vertex 50.3921 31.0193 2
    endloop
  endfacet
  facet normal -0.0491626 0.998791 0
    outer loop
      vertex 50 31 2
      vertex 50.3921 31.0193 0
      vertex 50 31 0
    endloop
  endfacet
  facet normal 0.989176 0.146733 0
    outer loop
      vertex 46.0769 34.2196 2
      vertex 46.0193 34.6079 0
      vertex 46.0193 34.6079 2
    endloop
  endfacet
  facet normal 0.989176 0.146733 0
    outer loop
      vertex 46.0193 34.6079 0
      vertex 46.0769 34.2196 2
      vertex 46.0769 34.2196 0
    endloop
  endfacet
  facet normal -0.595794 0.803137 0
    outer loop
      vertex 52.5376 31.908 0
      vertex 52.2223 31.6741 2
      vertex 52.5376 31.908 2
    endloop
  endfacet
  facet normal -0.595794 0.803137 0
    outer loop
      vertex 52.2223 31.6741 2
      vertex 52.5376 31.908 0
      vertex 52.2223 31.6741 0
    endloop
  endfacet
  facet normal 0.803137 0.595794 0
    outer loop
      vertex 46.908 32.4624 2
      vertex 46.6741 32.7777 0
      vertex 46.6741 32.7777 2
    endloop
  endfacet
  facet normal 0.803137 0.595794 0
    outer loop
      vertex 46.6741 32.7777 0
      vertex 46.908 32.4624 2
      vertex 46.908 32.4624 0
    endloop
  endfacet
  facet normal 0.998791 -0.0491626 0
    outer loop
      vertex 46 35 2
      vertex 46.0193 35.3921 0
      vertex 46.0193 35.3921 2
    endloop
  endfacet
  facet normal 0.998791 -0.0491626 0
    outer loop
      vertex 46.0193 35.3921 0
      vertex 46 35 2
      vertex 46 35 0
    endloop
  endfacet
  facet normal -0.740908 0.671607 0
    outer loop
      vertex 52.8284 32.1716 0
      vertex 53.092 32.4624 2
      vertex 53.092 32.4624 0
    endloop
  endfacet
  facet normal -0.740908 0.671607 0
    outer loop
      vertex 53.092 32.4624 2
      vertex 52.8284 32.1716 0
      vertex 52.8284 32.1716 2
    endloop
  endfacet
  facet normal -0 0 1
    outer loop
      vertex 0 28 8
      vertex 2 22 8
      vertex 2 28 8
    endloop
  endfacet
  facet normal 0 0 1
    outer loop
      vertex 2 22 8
      vertex 0 28 8
      vertex 0 22 8
    endloop
  endfacet
  facet normal 0 -1 0
    outer loop
      vertex 0 28 8
      vertex 2 28 12
      vertex 0 28 12
    endloop
  endfacet
  facet normal 0 -1 -0
    outer loop
      vertex 2 28 12
      vertex 0 28 8
      vertex 2 28 8
    endloop
  endfacet
  facet normal 0 1 -0
    outer loop
      vertex 2 22 8
      vertex 0 22 12
      vertex 2 22 12
    endloop
  endfacet
  facet normal 0 1 0
    outer loop
      vertex 0 22 12
      vertex 2 22 8
      vertex 0 22 8
    endloop
  endfacet
endsolid OpenSCAD_Model
